<svg id="Capa_1" enable-background="new 0 0 512 512" height="512" viewBox="0 0 512 512" width="512" xmlns="http://www.w3.org/2000/svg"><g><path d="m335.394 146.607c6.582 6.582 17.451 5.618 22.813-1.888l37.5-52.5c4.815-6.741 3.254-16.109-3.487-20.925-6.741-4.815-16.109-3.254-20.925 3.488l-27.208 38.091-17.479-17.479c-5.857-5.858-15.355-5.858-21.213 0s-5.858 15.355 0 21.213z"/><path d="m197.82 314.18c-5.858-5.858-15.355-5.858-21.213 0l-10.607 10.607-10.607-10.607c-5.857-5.858-15.355-5.858-21.213 0s-5.858 15.355 0 21.213l10.607 10.607-10.607 10.606c-5.858 5.858-5.858 15.355 0 21.213 5.857 5.857 15.354 5.859 21.213 0l10.607-10.606 10.607 10.607c5.857 5.858 15.355 5.858 21.213 0s5.858-15.355 0-21.213l-10.607-10.607 10.607-10.606c5.858-5.858 5.858-15.356 0-21.214z"/><path d="m105 241c-3.978 0-7.793 1.58-10.606 4.393l-90 90c-5.835 5.835-5.861 15.287-.059 21.155l90 91c2.817 2.849 6.658 4.452 10.665 4.452h106v45c0 8.284 6.716 15 15 15h60c8.284 0 15-6.716 15-15v-45h105c8.284 0 15-6.716 15-15v-181c0-8.284-6.716-15-15-15h-105v-30h106c3.978 0 7.793-1.58 10.606-4.393l90-90c5.835-5.835 5.861-15.287.059-21.155l-90-91c-2.817-2.849-6.658-4.452-10.665-4.452h-301c-8.284 0-15 6.716-15 15v181c0 8.284 6.716 15 15 15h105v30zm166 241h-30v-30h30zm120-60h-279.738l-75.107-75.942 75.058-75.058h279.787zm-270-392h279.738l75.107 75.942-75.058 75.058h-279.787zm120 181h30v30h-30z"/></g></svg>