<svg height="616pt" viewBox="-93 -19 616 616.25033" width="616pt" xmlns="http://www.w3.org/2000/svg"><path d="m423.367188 35.585938c0-20.292969-16.539063-36.835938-36.835938-36.835938h-258.578125c-.082031 0-.160156 0-.160156 0-.324219 0-.640625 0-.960938.078125-.085937 0-.242187 0-.320312 0-.398438.078125-.796875.078125-1.117188.160156-.082031 0-.242187.078125-.320312.078125-.238281.085938-.5625.167969-.800781.246094-.15625.078125-.316407.078125-.484376.15625-.234374.082031-.472656.160156-.714843.238281-.15625.078125-.316407.078125-.394531.167969-.324219.1523438-.640626.316406-1.039063.472656-.085937.082032-.246094.082032-.324219.160156-.238281.164063-.484375.320313-.71875.484376-.074218.078124-.238281.15625-.316406.234374-.242188.164063-.480469.320313-.636719.480469-.085937.078125-.164062.15625-.328125.238281-.316406.246094-.550781.480469-.878906.796876l-120.253906 120.1875c-.328125.316406-.644532.632812-.878906.957031-.167969.160156-.246094.316406-.40625.480469-.15625.15625-.316407.398437-.394532.558593-.167968.15625-.246094.398438-.398437.5625-.085938.15625-.242188.398438-.320313.558594-.082031.234375-.242187.394531-.324218.640625-.078126.15625-.15625.394531-.234376.550781-.085937.242188-.164062.40625-.242187.644531-.082031.242188-.164063.398438-.242187.640626-.078126.238281-.078126.398437-.15625.636718-.082032.238282-.082032.484375-.160157.640625-.078125.238281-.078125.476563-.078125.722657 0 .234374-.078125.394531-.078125.558593-.082031.472657-.082031.878907-.082031 1.351563v407.214844c0 20.296874 16.539062 36.835937 36.832031 36.835937h355.511719c20.296875 0 36.835938-16.539063 36.835938-36.835937zm-36.835938 513.8125h-50.65625c-2.242188-16.460938 3.191406-33.085938 15.257812-45.070313 11.984376-11.984375 28.6875-17.5 45.070313-15.257813v50.65625c0 5.355469-4.394531 9.671876-9.671875 9.671876zm-355.511719 0c-5.351562 0-9.664062-4.316407-9.664062-9.671876v-393.625h92.046875c15.507812 0 28.128906-12.621093 28.128906-28.128906v-92.058594h245c5.355469 0 9.671875 4.320313 9.671875 9.671876v314.203124l-28.050781-.40625h-.15625c-13.988282 0-25.894532 9.992188-28.292969 23.734376 0 .078124 0 .242187-.078125.320312 0 .085938-.078125.242188-.078125.320312l-3.4375 27.890626c-3.113281 1.195312-6.148437 2.394531-9.105469 3.757812l-22.613281-17.1875c-.082031-.078125-.164063-.078125-.242187-.15625-.082032-.082031-.160157-.082031-.238282-.160156-11.429687-7.992188-26.933594-6.632813-36.835937 3.195312l-29.089844 29.085938c-9.910156 9.910156-11.269531 25.410156-3.199219 36.839844.078125.078124.164063.242187.242188.320312 0 0 .078125.078125.078125.078125l17.183593 22.613281c-1.359374 3.042969-2.640624 6.15625-3.835937 9.269532l-28.046875 3.917968c-.078125 0-.160156 0-.238281.078125-.078125 0-.167969 0-.246094 0-13.742187 2.398438-23.730469 14.304688-23.730469 28.285157v27.570312h-165.171875zm192.257813-27.644532c0-.722656.5625-1.363281 1.285156-1.519531l35.957031-5.035156h.078125c.394532-.082031.878906-.160157 1.277344-.238281h.085938c.394531-.089844.714843-.167969 1.03125-.324219.164062-.082031.324218-.082031.484374-.160157.238282-.078124.394532-.15625.640626-.238281.15625-.082031.316406-.160156.472656-.238281.242187-.085938.40625-.242188.644531-.320312.15625-.082032.320313-.160157.476563-.242188.316406-.160156.644531-.398438.960937-.632812.078125-.085938.15625-.167969.324219-.246094.234375-.160156.472656-.316406.632812-.554688.078125-.089844.160156-.167968.324219-.246094.238281-.15625.394531-.394531.636719-.636718.078125-.078125.160156-.164063.238281-.242188.242187-.238281.402344-.480468.640625-.796875.078125-.078125.078125-.078125.15625-.15625.484375-.640625.960938-1.363281 1.28125-2.082031.078125-.078125.078125-.238281.15625-.316406.085938-.242188.242188-.480469.320312-.722656.085938-.160157.164063-.398438.164063-.554688.078125-.160156.078125-.238281.160156-.40625 2.234375-7.1875 5.113281-14.222656 8.625-20.855469.085938-.078125.085938-.160156.164063-.316406.160156-.238281.238281-.480469.316406-.722656.078125-.15625.164062-.398438.238281-.554688.078125-.238281.167969-.402343.246094-.644531.078125-.234375.15625-.472656.15625-.640625.082031-.15625.082031-.394531.160156-.554687.078125-.242188.078125-.476563.15625-.71875 0-.15625.082031-.320313.082031-.558594 0-.242188.085938-.484375.085938-.800782 0-.15625 0-.402343 0-.5625 0-.234374 0-.472656 0-.714843 0-.242188 0-.398438 0-.640625 0-.238282 0-.394532-.085938-.640625 0-.238281-.082031-.476563-.082031-.714844 0-.164063-.078125-.402344-.078125-.558594-.078125-.242187-.15625-.480469-.15625-.722656-.082031-.15625-.082031-.320313-.160156-.480469-.078125-.234375-.15625-.472656-.246094-.71875-.078125-.160156-.152344-.316406-.238281-.5625-.078125-.238281-.15625-.394531-.316406-.632812-.078125-.242188-.242188-.398438-.320313-.640625-.078125-.160157-.15625-.320313-.320312-.480469-.15625-.238281-.320313-.484375-.476563-.71875-.082031-.078125-.082031-.160156-.160156-.238281l-21.972656-28.925781c-.402344-.644532-.324219-1.441407.238281-2l29.085938-29.085938c.5625-.558594 1.359374-.640625 2-.242188l28.683593 21.816407s.078125.078125.078125.078125l.082032.078125s.078124 0 .078124.082031c.246094.164062.484376.402344.796876.558594.085937.078125.164062.078125.242187.164062.238281.15625.480469.242188.644531.398438.078125.078125.15625.078125.316406.160156.234376.078125.480469.242188.71875.320312.160157.078126.398438.15625.5625.238282.15625.078125.394532.15625.558594.234375.15625.085937.316406.085937.472656.167969.164063.078124.328126.078124.484376.160156.160156.078125.316406.078125.480468.078125.160156 0 .320313.078125.476563.078125.160156 0 .320312.078125.484375.078125.238281 0 .394531.078125.636718.078125h.316407c.320312 0 .722656.082031 1.035156.082031.96875 0 2-.082031 2.957031-.316406.484375-.078125.890625-.238281 1.363282-.40625.078124 0 .160156-.078125.160156-.078125.398437-.15625.796875-.316406 1.199218-.472656.078126-.085938.15625-.085938.316407-.164063.085937-.078125.164062-.078125.246093-.078125 6.632813-3.515625 13.664063-6.394531 20.855469-8.628906.078125 0 .15625-.082032.238281-.082032.316407-.082031.5625-.242187.875-.320312.160157-.078125.324219-.15625.480469-.15625.238281-.078125.484375-.242188.722657-.320312.15625-.085938.316406-.164063.5625-.320313.15625-.082031.394531-.238281.550781-.316406.164062-.167969.40625-.246094.5625-.40625.160156-.078125.320312-.238281.480469-.316407.15625-.167968.394531-.324218.5625-.402343.15625-.160157.316406-.238281.472656-.394531.160156-.164063.328125-.324219.484375-.480469.238281-.242188.394531-.484375.558593-.640625.078126-.082032.15625-.160156.242188-.238282.558594-.640624 1.03125-1.363281 1.4375-2.15625v-.085937c.15625-.320313.316406-.714844.472656-1.039063.085938-.082031.085938-.238281.085938-.316406.082031-.316406.238281-.5625.316406-.878906.082031-.160156.082031-.402344.160156-.558594.078125-.242187.078125-.484375.15625-.640625.085938-.238281.085938-.476562.164063-.722656 0-.15625.078125-.234375.078125-.394531l4.398437-35.796875c.160157-.722657.800781-1.203125 1.515625-1.203125l28.203125.402344v84.777343c-23.566406-2.15625-47.0625 6.160157-64.320312 23.339844-17.179688 17.179687-25.488281 40.75-23.332031 64.242187h-85.746094zm-108.910156-403.78125c0 .5625-.402344.960938-.964844.960938h-72.789063l73.753907-73.757813zm0 0"/></svg>