<svg clip-rule="evenodd" fill-rule="evenodd" height="512" stroke-linejoin="round" stroke-miterlimit="2" viewBox="0 0 24 24" width="512" xmlns="http://www.w3.org/2000/svg"><g id="Icon"><path d="m12 21.25c.414 0 .75.336.75.75s-.336.75-.75.75c-5.933 0-10.75-4.817-10.75-10.75 0-3.634 1.807-6.849 4.57-8.795.339-.238.807-.157 1.045.181.239.339.157.807-.181 1.045-2.379 1.675-3.934 4.442-3.934 7.569 0 5.105 4.145 9.25 9.25 9.25z"/><path d="m12.597 2.769c-.414-.026-.728-.383-.701-.796.026-.413.383-.727.796-.701 5.611.357 10.058 5.027 10.058 10.728 0 3.276-1.468 6.211-3.782 8.184-.315.268-.789.23-1.057-.085-.269-.315-.231-.788.084-1.057 1.991-1.697 3.255-4.223 3.255-7.042 0-4.905-3.826-8.923-8.653-9.231z"/><path d="m20.29 19.909c.403.095.653.499.558.902-.094.403-.498.653-.901.558l-2.832-.665c-.403-.095-.653-.499-.558-.902l.67-2.85c.094-.403.498-.653.901-.559.403.095.654.499.559.902 0 0-.499 2.12-.499 2.12z"/><path d="m4.236 3.408c-.411-.049-.705-.423-.655-.834.049-.411.423-.704.834-.655l2.911.35c.411.049.705.423.655.834l-.354 2.946c-.049.411-.423.705-.834.655-.411-.049-.705-.423-.655-.834 0 0 .265-2.201.265-2.201z"/><path d="m12.003 6.263c3.172 0 5.747 2.575 5.747 5.747s-2.575 5.747-5.747 5.747-5.747-2.575-5.747-5.747 2.575-5.747 5.747-5.747zm-2.53 6.267 1.333 1.334c.293.293.768.293 1.061 0l2.666-2.667c.293-.293.293-.768 0-1.061-.292-.292-.768-.292-1.06 0l-2.137 2.137-.803-.803c-.292-.293-.768-.293-1.06 0-.293.292-.293.768 0 1.06z"/></g></svg>