<svg width="361" height="251" viewBox="0 0 361 251" fill="none" xmlns="http://www.w3.org/2000/svg">
<rect x="0.537109" width="360.214" height="250.337" rx="10" fill="#151515"/>
<rect x="25.5371" y="112" width="15" height="113.337" rx="7.5" fill="#1F1F23"/>
<rect x="25.5371" y="140.48" width="15" height="84.8572" rx="7.5" fill="#F29F7B"/>
<rect x="74.5371" y="112" width="15" height="113.337" rx="7.5" fill="#1F1F23"/>
<rect x="74.5371" y="180.583" width="15" height="44.7534" rx="7.5" fill="#8B70D3"/>
<rect x="123.537" y="112" width="15" height="113.337" rx="7.5" fill="#1F1F23"/>
<rect x="123.537" y="148.14" width="15" height="77.1967" rx="7.5" fill="#7DACF5"/>
<rect x="172.537" y="112" width="15" height="113.337" rx="7.5" fill="#1F1F23"/>
<rect x="172.537" y="151.522" width="15" height="73.8141" rx="7.5" fill="#F29F7B"/>
<rect x="221.537" y="112" width="15" height="113.337" rx="7.5" fill="#1F1F23"/>
<rect x="221.537" y="136.411" width="15" height="88.9254" rx="7.5" fill="#81CCCE"/>
<rect x="270.537" y="112" width="15" height="113.337" rx="7.5" fill="#1F1F23"/>
<rect x="270.537" y="171.475" width="15" height="53.8628" rx="7.5" fill="#3CE17D"/>
<rect x="319.537" y="112" width="15" height="113.337" rx="7.5" fill="#1F1F23"/>
<rect x="319.537" y="155.591" width="15" height="69.7459" rx="7.5" fill="#81CCCE"/>
<path d="M32.2251 50.154C31.1984 50.154 30.2744 49.978 29.4531 49.626C28.6318 49.2593 27.9864 48.746 27.5171 48.086C27.0478 47.426 26.8131 46.656 26.8131 45.776H29.4971C29.5558 46.436 29.8124 46.9787 30.2671 47.404C30.7364 47.8293 31.3891 48.042 32.2251 48.042C33.0904 48.042 33.7651 47.8367 34.2491 47.426C34.7331 47.0007 34.9751 46.458 34.9751 45.798C34.9751 45.2847 34.8211 44.8667 34.5131 44.544C34.2198 44.2213 33.8458 43.972 33.3911 43.796C32.9511 43.62 32.3351 43.4293 31.5431 43.224C30.5458 42.96 29.7318 42.696 29.1011 42.432C28.4851 42.1533 27.9571 41.728 27.5171 41.156C27.0771 40.584 26.8571 39.8213 26.8571 38.868C26.8571 37.988 27.0771 37.218 27.5171 36.558C27.9571 35.898 28.5731 35.392 29.3651 35.04C30.1571 34.688 31.0738 34.512 32.1151 34.512C33.5964 34.512 34.8064 34.886 35.7451 35.634C36.6984 36.3673 37.2264 37.3793 37.3291 38.67H34.5571C34.5131 38.1127 34.2491 37.636 33.7651 37.24C33.2811 36.844 32.6431 36.646 31.8511 36.646C31.1324 36.646 30.5458 36.8293 30.0911 37.196C29.6364 37.5627 29.4091 38.0907 29.4091 38.78C29.4091 39.2493 29.5484 39.638 29.8271 39.946C30.1204 40.2393 30.4871 40.474 30.9271 40.65C31.3671 40.826 31.9684 41.0167 32.7311 41.222C33.7431 41.5007 34.5644 41.7793 35.1951 42.058C35.8404 42.3367 36.3831 42.7693 36.8231 43.356C37.2778 43.928 37.5051 44.698 37.5051 45.666C37.5051 46.4433 37.2924 47.1767 36.8671 47.866C36.4564 48.5553 35.8478 49.1127 35.0411 49.538C34.2491 49.9487 33.3104 50.154 32.2251 50.154ZM45.7225 50.198C44.5785 50.198 43.5445 49.9413 42.6205 49.428C41.6965 48.9 40.9705 48.1667 40.4425 47.228C39.9145 46.2747 39.6505 45.1747 39.6505 43.928C39.6505 42.696 39.9218 41.6033 40.4645 40.65C41.0071 39.6967 41.7478 38.9633 42.6865 38.45C43.6251 37.9367 44.6738 37.68 45.8325 37.68C46.9911 37.68 48.0398 37.9367 48.9785 38.45C49.9171 38.9633 50.6578 39.6967 51.2005 40.65C51.7431 41.6033 52.0145 42.696 52.0145 43.928C52.0145 45.16 51.7358 46.2527 51.1785 47.206C50.6211 48.1593 49.8585 48.9 48.8905 49.428C47.9371 49.9413 46.8811 50.198 45.7225 50.198ZM45.7225 48.02C46.3678 48.02 46.9691 47.866 47.5265 47.558C48.0985 47.25 48.5605 46.788 48.9125 46.172C49.2645 45.556 49.4405 44.808 49.4405 43.928C49.4405 43.048 49.2718 42.3073 48.9345 41.706C48.5971 41.09 48.1498 40.628 47.5925 40.32C47.0351 40.012 46.4338 39.858 45.7885 39.858C45.1431 39.858 44.5418 40.012 43.9845 40.32C43.4418 40.628 43.0091 41.09 42.6865 41.706C42.3638 42.3073 42.2025 43.048 42.2025 43.928C42.2025 45.2333 42.5325 46.2453 43.1925 46.964C43.8671 47.668 44.7105 48.02 45.7225 48.02ZM59.5758 39.924H57.3318V50H54.8018V39.924H53.3718V37.878H54.8018V37.02C54.8018 35.6267 55.1684 34.6147 55.9018 33.984C56.6498 33.3387 57.8158 33.016 59.3998 33.016V35.106C58.6371 35.106 58.1018 35.2527 57.7938 35.546C57.4858 35.8247 57.3318 36.316 57.3318 37.02V37.878H59.5758V39.924ZM64.7244 39.924V46.634C64.7244 47.0887 64.8271 47.4187 65.0324 47.624C65.2524 47.8147 65.6191 47.91 66.1324 47.91H67.6724V50H65.6924C64.5631 50 63.6978 49.736 63.0964 49.208C62.4951 48.68 62.1944 47.822 62.1944 46.634V39.924H60.7644V37.878H62.1944V34.864H64.7244V37.878H67.6724V39.924H64.7244ZM86.264 37.878L82.502 50H79.862L77.42 41.046L74.978 50H72.338L68.554 37.878H71.106L73.636 47.624L76.21 37.878H78.828L81.292 47.58L83.8 37.878H86.264ZM87.3023 43.884C87.3023 42.6667 87.5516 41.5887 88.0503 40.65C88.5636 39.7113 89.2529 38.9853 90.1183 38.472C90.9983 37.944 91.9663 37.68 93.0223 37.68C93.9756 37.68 94.8043 37.8707 95.5083 38.252C96.2269 38.6187 96.7989 39.0807 97.2243 39.638V37.878H99.7543V50H97.2243V48.196C96.7989 48.768 96.2196 49.2447 95.4863 49.626C94.7529 50.0073 93.9169 50.198 92.9783 50.198C91.9369 50.198 90.9836 49.934 90.1183 49.406C89.2529 48.8633 88.5636 48.1153 88.0503 47.162C87.5516 46.194 87.3023 45.1013 87.3023 43.884ZM97.2243 43.928C97.2243 43.092 97.0483 42.366 96.6963 41.75C96.3589 41.134 95.9116 40.6647 95.3543 40.342C94.7969 40.0193 94.1956 39.858 93.5503 39.858C92.9049 39.858 92.3036 40.0193 91.7463 40.342C91.1889 40.65 90.7343 41.112 90.3823 41.728C90.0449 42.3293 89.8763 43.048 89.8763 43.884C89.8763 44.72 90.0449 45.4533 90.3823 46.084C90.7343 46.7147 91.1889 47.1987 91.7463 47.536C92.3183 47.8587 92.9196 48.02 93.5503 48.02C94.1956 48.02 94.7969 47.8587 95.3543 47.536C95.9116 47.2133 96.3589 46.744 96.6963 46.128C97.0483 45.4973 97.2243 44.764 97.2243 43.928ZM105.556 39.638C105.923 39.022 106.407 38.5453 107.008 38.208C107.624 37.856 108.35 37.68 109.186 37.68V40.276H108.548C107.566 40.276 106.818 40.5253 106.304 41.024C105.806 41.5227 105.556 42.388 105.556 43.62V50H103.048V37.878H105.556V39.638ZM122.602 43.642C122.602 44.0967 122.572 44.5073 122.514 44.874H113.252C113.325 45.842 113.684 46.6193 114.33 47.206C114.975 47.7927 115.767 48.086 116.706 48.086C118.055 48.086 119.008 47.5213 119.566 46.392H122.272C121.905 47.5067 121.238 48.4233 120.27 49.142C119.316 49.846 118.128 50.198 116.706 50.198C115.547 50.198 114.506 49.9413 113.582 49.428C112.672 48.9 111.954 48.1667 111.426 47.228C110.912 46.2747 110.656 45.1747 110.656 43.928C110.656 42.6813 110.905 41.5887 111.404 40.65C111.917 39.6967 112.628 38.9633 113.538 38.45C114.462 37.9367 115.518 37.68 116.706 37.68C117.85 37.68 118.869 37.9293 119.764 38.428C120.658 38.9267 121.355 39.6307 121.854 40.54C122.352 41.4347 122.602 42.4687 122.602 43.642ZM119.984 42.85C119.969 41.926 119.639 41.1853 118.994 40.628C118.348 40.0707 117.549 39.792 116.596 39.792C115.73 39.792 114.99 40.0707 114.374 40.628C113.758 41.1707 113.391 41.9113 113.274 42.85H119.984ZM133.271 34.71V44.456C133.271 45.6147 133.571 46.4873 134.173 47.074C134.789 47.6607 135.639 47.954 136.725 47.954C137.825 47.954 138.675 47.6607 139.277 47.074C139.893 46.4873 140.201 45.6147 140.201 44.456V34.71H142.709V44.412C142.709 45.6587 142.437 46.7147 141.895 47.58C141.352 48.4453 140.626 49.0907 139.717 49.516C138.807 49.9413 137.803 50.154 136.703 50.154C135.603 50.154 134.598 49.9413 133.689 49.516C132.794 49.0907 132.083 48.4453 131.555 47.58C131.027 46.7147 130.763 45.6587 130.763 44.412V34.71H133.271ZM150.374 50.198C149.421 50.198 148.563 50.0293 147.8 49.692C147.052 49.34 146.458 48.8707 146.018 48.284C145.578 47.6827 145.344 47.0153 145.314 46.282H147.91C147.954 46.7953 148.196 47.228 148.636 47.58C149.091 47.9173 149.656 48.086 150.33 48.086C151.034 48.086 151.577 47.954 151.958 47.69C152.354 47.4113 152.552 47.0593 152.552 46.634C152.552 46.1793 152.332 45.842 151.892 45.622C151.467 45.402 150.785 45.16 149.846 44.896C148.937 44.6467 148.196 44.4047 147.624 44.17C147.052 43.9353 146.554 43.576 146.128 43.092C145.718 42.608 145.512 41.97 145.512 41.178C145.512 40.5327 145.703 39.946 146.084 39.418C146.466 38.8753 147.008 38.45 147.712 38.142C148.431 37.834 149.252 37.68 150.176 37.68C151.555 37.68 152.662 38.032 153.498 38.736C154.349 39.4253 154.804 40.3713 154.862 41.574H152.354C152.31 41.0313 152.09 40.5987 151.694 40.276C151.298 39.9533 150.763 39.792 150.088 39.792C149.428 39.792 148.922 39.9167 148.57 40.166C148.218 40.4153 148.042 40.7453 148.042 41.156C148.042 41.4787 148.16 41.75 148.394 41.97C148.629 42.19 148.915 42.366 149.252 42.498C149.59 42.6153 150.088 42.7693 150.748 42.96C151.628 43.1947 152.347 43.4367 152.904 43.686C153.476 43.9207 153.968 44.2727 154.378 44.742C154.789 45.2113 155.002 45.8347 155.016 46.612C155.016 47.3013 154.826 47.9173 154.444 48.46C154.063 49.0027 153.52 49.428 152.816 49.736C152.127 50.044 151.313 50.198 150.374 50.198ZM168.836 43.642C168.836 44.0967 168.807 44.5073 168.748 44.874H159.486C159.56 45.842 159.919 46.6193 160.564 47.206C161.21 47.7927 162.002 48.086 162.94 48.086C164.29 48.086 165.243 47.5213 165.8 46.392H168.506C168.14 47.5067 167.472 48.4233 166.504 49.142C165.551 49.846 164.363 50.198 162.94 50.198C161.782 50.198 160.74 49.9413 159.816 49.428C158.907 48.9 158.188 48.1667 157.66 47.228C157.147 46.2747 156.89 45.1747 156.89 43.928C156.89 42.6813 157.14 41.5887 157.638 40.65C158.152 39.6967 158.863 38.9633 159.772 38.45C160.696 37.9367 161.752 37.68 162.94 37.68C164.084 37.68 165.104 37.9293 165.998 38.428C166.893 38.9267 167.59 39.6307 168.088 40.54C168.587 41.4347 168.836 42.4687 168.836 43.642ZM166.218 42.85C166.204 41.926 165.874 41.1853 165.228 40.628C164.583 40.0707 163.784 39.792 162.83 39.792C161.965 39.792 161.224 40.0707 160.608 40.628C159.992 41.1707 159.626 41.9113 159.508 42.85H166.218ZM175.704 50.198C174.751 50.198 173.893 50.0293 173.13 49.692C172.382 49.34 171.788 48.8707 171.348 48.284C170.908 47.6827 170.674 47.0153 170.644 46.282H173.24C173.284 46.7953 173.526 47.228 173.966 47.58C174.421 47.9173 174.986 48.086 175.66 48.086C176.364 48.086 176.907 47.954 177.288 47.69C177.684 47.4113 177.882 47.0593 177.882 46.634C177.882 46.1793 177.662 45.842 177.222 45.622C176.797 45.402 176.115 45.16 175.176 44.896C174.267 44.6467 173.526 44.4047 172.954 44.17C172.382 43.9353 171.884 43.576 171.458 43.092C171.048 42.608 170.842 41.97 170.842 41.178C170.842 40.5327 171.033 39.946 171.414 39.418C171.796 38.8753 172.338 38.45 173.042 38.142C173.761 37.834 174.582 37.68 175.506 37.68C176.885 37.68 177.992 38.032 178.828 38.736C179.679 39.4253 180.134 40.3713 180.192 41.574H177.684C177.64 41.0313 177.42 40.5987 177.024 40.276C176.628 39.9533 176.093 39.792 175.418 39.792C174.758 39.792 174.252 39.9167 173.9 40.166C173.548 40.4153 173.372 40.7453 173.372 41.156C173.372 41.4787 173.49 41.75 173.724 41.97C173.959 42.19 174.245 42.366 174.582 42.498C174.92 42.6153 175.418 42.7693 176.078 42.96C176.958 43.1947 177.677 43.4367 178.234 43.686C178.806 43.9207 179.298 44.2727 179.708 44.742C180.119 45.2113 180.332 45.8347 180.346 46.612C180.346 47.3013 180.156 47.9173 179.774 48.46C179.393 49.0027 178.85 49.428 178.146 49.736C177.457 50.044 176.643 50.198 175.704 50.198Z" fill="white"/>
<path d="M27.4871 79H28.5521V68.245H26.0021V69.19H27.4871V79ZM30.682 78.925H37.837V78.04H32.287C34.402 76.48 37.507 73.945 37.507 71.2C37.507 69.13 36.127 68.065 34.252 68.065C32.272 68.065 30.892 69.31 30.772 71.575H31.792C31.882 70.075 32.662 68.965 34.252 68.965C35.917 68.965 36.457 70 36.457 71.245C36.457 73.54 33.772 75.865 30.682 78.175V78.925ZM39.791 68.23V74.185H40.781C41.201 73.285 42.101 72.685 43.286 72.685C44.996 72.685 45.896 73.69 45.896 75.325C45.896 76.945 45.071 78.145 43.256 78.145C41.891 78.145 40.886 77.41 40.616 76.075H39.581C39.851 77.86 41.171 79.045 43.256 79.045C45.791 79.045 46.901 77.335 46.901 75.31C46.901 73.615 46.016 71.785 43.421 71.785C42.281 71.785 41.246 72.31 40.766 72.985V69.145H46.256V68.23H39.791ZM49.8888 78.295C49.8888 77.86 49.5588 77.53 49.1388 77.53C48.7038 77.53 48.3738 77.86 48.3738 78.295C48.3738 78.73 48.7038 79.075 49.1388 79.075C49.5588 79.075 49.8888 78.73 49.8888 78.295ZM51.4134 70.99H52.4334C52.5984 69.685 53.5734 68.965 54.9084 68.965C56.3334 68.965 57.0984 69.76 57.0984 70.9C57.0984 72.22 56.0934 72.895 54.0384 72.895H53.6934V73.78H54.0234C56.1084 73.78 57.3084 74.47 57.3084 76.06C57.3084 77.245 56.5434 78.19 54.9534 78.19C53.3634 78.19 52.4334 77.215 52.2534 75.94H51.2334C51.4434 77.98 52.9284 79.075 54.9534 79.075C57.2184 79.075 58.3134 77.785 58.3134 76.15C58.3134 74.56 57.3534 73.63 55.9884 73.36V73.285C57.3984 73.06 58.1184 72.01 58.1184 70.795C58.1184 69.265 57.0084 68.05 54.9384 68.05C52.9284 68.05 51.5634 69.16 51.4134 70.99ZM60.5478 68.23V74.185H61.5378C61.9578 73.285 62.8578 72.685 64.0428 72.685C65.7528 72.685 66.6528 73.69 66.6528 75.325C66.6528 76.945 65.8278 78.145 64.0128 78.145C62.6478 78.145 61.6428 77.41 61.3728 76.075H60.3378C60.6078 77.86 61.9278 79.045 64.0128 79.045C66.5478 79.045 67.6578 77.335 67.6578 75.31C67.6578 73.615 66.7728 71.785 64.1778 71.785C63.0378 71.785 62.0028 72.31 61.5228 72.985V69.145H67.0128V68.23H60.5478ZM69.4456 70.99H70.4656C70.6306 69.685 71.6056 68.965 72.9406 68.965C74.3656 68.965 75.1306 69.76 75.1306 70.9C75.1306 72.22 74.1256 72.895 72.0706 72.895H71.7256V73.78H72.0556C74.1406 73.78 75.3406 74.47 75.3406 76.06C75.3406 77.245 74.5756 78.19 72.9856 78.19C71.3956 78.19 70.4656 77.215 70.2856 75.94H69.2656C69.4756 77.98 70.9606 79.075 72.9856 79.075C75.2506 79.075 76.3456 77.785 76.3456 76.15C76.3456 74.56 75.3856 73.63 74.0206 73.36V73.285C75.4306 73.06 76.1506 72.01 76.1506 70.795C76.1506 69.265 75.0406 68.05 72.9706 68.05C70.9606 68.05 69.5956 69.16 69.4456 70.99ZM79.42 78.295C79.42 77.86 79.09 77.53 78.67 77.53C78.235 77.53 77.905 77.86 77.905 78.295C77.905 78.73 78.235 79.075 78.67 79.075C79.09 79.075 79.42 78.73 79.42 78.295ZM80.7796 78.925H87.9346V78.04H82.3846C84.4996 76.48 87.6046 73.945 87.6046 71.2C87.6046 69.13 86.2246 68.065 84.3496 68.065C82.3696 68.065 80.9896 69.31 80.8696 71.575H81.8896C81.9796 70.075 82.7596 68.965 84.3496 68.965C86.0146 68.965 86.5546 70 86.5546 71.245C86.5546 73.54 83.8696 75.865 80.7796 78.175V78.925ZM89.8886 68.23V74.185H90.8786C91.2986 73.285 92.1986 72.685 93.3836 72.685C95.0936 72.685 95.9936 73.69 95.9936 75.325C95.9936 76.945 95.1686 78.145 93.3536 78.145C91.9886 78.145 90.9836 77.41 90.7136 76.075H89.6786C89.9486 77.86 91.2686 79.045 93.3536 79.045C95.8886 79.045 96.9986 77.335 96.9986 75.31C96.9986 73.615 96.1136 71.785 93.5186 71.785C92.3786 71.785 91.3436 72.31 90.8636 72.985V69.145H96.3536V68.23H89.8886ZM105.986 70.87C105.791 69.295 104.756 68.035 102.746 68.035C100.001 68.035 98.9364 70.18 98.9364 73.585C98.9364 76.675 99.6564 79.045 102.866 79.045C105.296 79.045 106.376 77.395 106.376 75.49C106.376 73.225 105.056 71.86 102.956 71.86C101.531 71.86 100.271 72.565 99.8664 73.795C99.7914 70.225 100.856 68.92 102.746 68.92C104.096 68.92 104.801 69.655 105.011 70.87H105.986ZM102.761 72.76C104.426 72.76 105.356 73.795 105.356 75.535C105.356 77.155 104.366 78.16 102.821 78.16C100.871 78.16 100.001 76.84 100.001 75.325C100.001 73.555 101.426 72.76 102.761 72.76Z" fill="#818181"/>
<path d="M259.437 38.5V43H254.997V44.2H259.437V48.7H260.737V44.2H265.197V43H260.737V38.5H259.437ZM267.663 50.9H277.203V49.72H269.803C272.623 47.64 276.763 44.26 276.763 40.6C276.763 37.84 274.923 36.42 272.423 36.42C269.783 36.42 267.943 38.08 267.783 41.1H269.143C269.263 39.1 270.303 37.62 272.423 37.62C274.643 37.62 275.363 39 275.363 40.66C275.363 43.72 271.783 46.82 267.663 49.9V50.9ZM279.108 50.9H288.648V49.72H281.248C284.068 47.64 288.208 44.26 288.208 40.6C288.208 37.84 286.368 36.42 283.868 36.42C281.228 36.42 279.388 38.08 279.228 41.1H280.588C280.708 39.1 281.748 37.62 283.868 37.62C286.088 37.62 286.808 39 286.808 40.66C286.808 43.72 283.228 46.82 279.108 49.9V50.9ZM290.393 39.66C290.393 41.42 291.593 42.54 293.193 42.54C294.813 42.54 296.013 41.42 296.013 39.66C296.013 37.92 294.813 36.8 293.193 36.8C291.593 36.8 290.393 37.92 290.393 39.66ZM293.193 37.7C294.193 37.7 294.873 38.4 294.873 39.66C294.873 40.92 294.193 41.64 293.193 41.64C292.193 41.64 291.533 40.92 291.533 39.66C291.533 38.4 292.193 37.7 293.193 37.7ZM291.973 51H293.393L301.593 37H300.193L291.973 51ZM297.593 48.34C297.593 50.1 298.793 51.22 300.393 51.22C301.993 51.22 303.193 50.1 303.193 48.34C303.193 46.58 301.993 45.46 300.393 45.46C298.793 45.46 297.593 46.58 297.593 48.34ZM300.393 46.38C301.393 46.38 302.053 47.08 302.053 48.34C302.053 49.6 301.393 50.3 300.393 50.3C299.393 50.3 298.713 49.6 298.713 48.34C298.713 47.08 299.393 46.38 300.393 46.38Z" fill="#3CE17D"/>
<path opacity="0.4" d="M329.727 34H321.347C317.707 34 315.537 36.17 315.537 39.81V48.18C315.537 51.83 317.707 54 321.347 54H329.717C333.357 54 335.527 51.83 335.527 48.19V39.81C335.537 36.17 333.367 34 329.727 34Z" fill="#3CE17D"/>
<path d="M330.367 41.41C330.297 41.24 330.157 41.1 329.987 41.03C329.907 41 329.817 40.98 329.727 40.98H327.867C327.477 40.98 327.167 41.29 327.167 41.68C327.167 42.07 327.477 42.38 327.867 42.38H328.047L325.937 44.49L324.917 42.97C324.797 42.8 324.617 42.68 324.407 42.66C324.187 42.64 323.997 42.71 323.847 42.86L320.867 45.84C320.597 46.11 320.597 46.55 320.867 46.83C321.007 46.97 321.177 47.03 321.357 47.03C321.537 47.03 321.717 46.96 321.847 46.83L324.227 44.45L325.247 45.97C325.367 46.14 325.547 46.26 325.757 46.28C325.977 46.3 326.167 46.23 326.317 46.08L329.037 43.36V43.54C329.037 43.93 329.347 44.24 329.737 44.24C330.127 44.24 330.437 43.93 330.437 43.54V41.67C330.417 41.58 330.407 41.49 330.367 41.41Z" fill="#3CE17D"/>
</svg>
