<svg width="330" height="180" viewBox="0 0 330 180" fill="none" xmlns="http://www.w3.org/2000/svg">
<rect x="0.958984" width="329" height="180" rx="10" fill="#151515"/>
<path d="M27.159 42H28.209V33.765L31.899 42H32.664L36.354 33.735V42H37.404V31.65H36.279L32.274 40.62L28.269 31.65H27.159V42ZM49.6859 36.75C49.6859 33.615 47.4509 31.395 44.4959 31.395C41.5559 31.395 39.3059 33.615 39.3059 36.75C39.3059 39.9 41.5559 42.105 44.4959 42.105C47.4509 42.105 49.6859 39.9 49.6859 36.75ZM40.3859 36.75C40.3859 34.005 42.1709 32.325 44.4959 32.325C46.8209 32.325 48.6059 34.005 48.6059 36.75C48.6059 39.495 46.8209 41.19 44.4959 41.19C42.1709 41.19 40.3859 39.495 40.3859 36.75ZM58.4622 31.515V40.32L52.6572 31.515H51.6072V42H52.6572V33.18L58.4622 42H59.5122V31.515H58.4622Z" fill="white"/>
<path d="M30.183 103.808H41.727V101.984H33.471C36.567 99.464 41.223 95.792 41.223 91.472C41.223 88.256 39.111 86.336 35.847 86.336C32.727 86.336 30.399 88.256 30.255 91.952H32.367C32.463 89.768 33.615 88.208 35.871 88.208C38.223 88.208 39.063 89.648 39.063 91.568C39.063 95.12 34.743 98.576 30.183 102.248V103.808ZM44.2517 95.144C44.2517 100.184 45.4997 104 50.2997 104C55.0757 104 56.3237 100.184 56.3237 95.144C56.3237 90.176 55.0757 86.384 50.2997 86.384C45.4997 86.384 44.2517 90.176 44.2517 95.144ZM54.1637 95.144C54.1637 98.888 53.7077 102.008 50.2997 102.008C46.8677 102.008 46.4117 98.888 46.4117 95.144C46.4117 91.544 46.8677 88.376 50.2997 88.376C53.7077 88.376 54.1637 91.544 54.1637 95.144Z" fill="white"/>
<rect x="134.959" y="17" width="60" height="140.252" rx="10" fill="#7DACF6"/>
<path d="M158.294 31.515V32.385H155.384V42H154.334V32.385H151.409V31.515H158.294ZM167.737 31.515V42H166.687V37.095H161.002V42H159.952V31.515H161.002V36.225H166.687V31.515H167.737ZM171.138 31.515V38.115C171.138 39.155 171.383 39.925 171.873 40.425C172.373 40.925 173.053 41.175 173.913 41.175C174.773 41.175 175.443 40.93 175.923 40.44C176.413 39.94 176.658 39.165 176.658 38.115V31.515H177.708V38.1C177.708 39.43 177.353 40.43 176.643 41.1C175.943 41.77 175.028 42.105 173.898 42.105C172.768 42.105 171.848 41.77 171.138 41.1C170.438 40.43 170.088 39.43 170.088 38.1V31.515H171.138Z" fill="white"/>
<path d="M152.183 102.248C154.215 100.616 155.807 99.28 156.959 98.24C158.111 97.184 159.079 96.088 159.863 94.952C160.663 93.8 161.063 92.672 161.063 91.568C161.063 90.528 160.807 89.712 160.295 89.12C159.799 88.512 158.991 88.208 157.871 88.208C156.783 88.208 155.935 88.552 155.327 89.24C154.735 89.912 154.415 90.816 154.367 91.952H152.255C152.319 90.16 152.863 88.776 153.887 87.8C154.911 86.824 156.231 86.336 157.847 86.336C159.495 86.336 160.799 86.792 161.759 87.704C162.735 88.616 163.223 89.872 163.223 91.472C163.223 92.8 162.823 94.096 162.023 95.36C161.239 96.608 160.343 97.712 159.335 98.672C158.327 99.616 157.039 100.72 155.471 101.984H163.727V103.808H152.183V102.248ZM166.204 91.016C166.316 89.544 166.884 88.392 167.908 87.56C168.932 86.728 170.26 86.312 171.892 86.312C172.98 86.312 173.916 86.512 174.7 86.912C175.5 87.296 176.1 87.824 176.5 88.496C176.916 89.168 177.124 89.928 177.124 90.776C177.124 91.768 176.836 92.624 176.26 93.344C175.7 94.064 174.964 94.528 174.052 94.736V94.856C175.092 95.112 175.916 95.616 176.524 96.368C177.132 97.12 177.436 98.104 177.436 99.32C177.436 100.232 177.228 101.056 176.812 101.792C176.396 102.512 175.772 103.08 174.94 103.496C174.108 103.912 173.108 104.12 171.94 104.12C170.244 104.12 168.852 103.68 167.764 102.8C166.676 101.904 166.068 100.64 165.94 99.008H168.052C168.164 99.968 168.556 100.752 169.228 101.36C169.9 101.968 170.796 102.272 171.916 102.272C173.036 102.272 173.884 101.984 174.46 101.408C175.052 100.816 175.348 100.056 175.348 99.128C175.348 97.928 174.948 97.064 174.148 96.536C173.348 96.008 172.14 95.744 170.524 95.744H169.972V93.92H170.548C172.02 93.904 173.132 93.664 173.884 93.2C174.636 92.72 175.012 91.984 175.012 90.992C175.012 90.144 174.732 89.464 174.172 88.952C173.628 88.44 172.844 88.184 171.82 88.184C170.828 88.184 170.028 88.44 169.42 88.952C168.812 89.464 168.452 90.152 168.34 91.016H166.204Z" fill="white"/>
<circle cx="164.959" cy="137" r="4" fill="white"/>
<path d="M92.294 31.515V32.385H89.384V42H88.334V32.385H85.409V31.515H92.294ZM94.957 31.515V38.115C94.957 39.155 95.202 39.925 95.692 40.425C96.192 40.925 96.872 41.175 97.732 41.175C98.592 41.175 99.262 40.93 99.742 40.44C100.232 39.94 100.477 39.165 100.477 38.115V31.515H101.527V38.1C101.527 39.43 101.172 40.43 100.462 41.1C99.762 41.77 98.847 42.105 97.717 42.105C96.587 42.105 95.667 41.77 94.957 41.1C94.257 40.43 93.907 39.43 93.907 38.1V31.515H94.957ZM104.919 32.37V36.285H108.894V37.155H104.919V41.13H109.344V42H103.869V31.5H109.344V32.37H104.919Z" fill="white"/>
<path d="M88.183 102.248C90.215 100.616 91.807 99.28 92.959 98.24C94.111 97.184 95.079 96.088 95.863 94.952C96.663 93.8 97.063 92.672 97.063 91.568C97.063 90.528 96.807 89.712 96.295 89.12C95.799 88.512 94.991 88.208 93.871 88.208C92.783 88.208 91.935 88.552 91.327 89.24C90.735 89.912 90.415 90.816 90.367 91.952H88.255C88.319 90.16 88.863 88.776 89.887 87.8C90.911 86.824 92.231 86.336 93.847 86.336C95.495 86.336 96.799 86.792 97.759 87.704C98.735 88.616 99.223 89.872 99.223 91.472C99.223 92.8 98.823 94.096 98.023 95.36C97.239 96.608 96.343 97.712 95.335 98.672C94.327 99.616 93.039 100.72 91.471 101.984H99.727V103.808H88.183V102.248ZM101.676 88.64V86.648H106.188V104H103.98V88.64H101.676Z" fill="white"/>
<path opacity="0.4" d="M98.8756 129.979H93.3757C90.2407 129.979 89.0215 131.198 89.0215 134.333V141.667C89.0215 143.775 90.1673 146.021 93.3757 146.021H98.8756C102.011 146.021 103.23 144.802 103.23 141.667V134.333C103.23 131.198 102.011 129.979 98.8756 129.979Z" fill="white" fill-opacity="0.5"/>
<path d="M97.5007 137.432C98.4524 137.432 99.224 136.66 99.224 135.708C99.224 134.756 98.4524 133.985 97.5007 133.985C96.5489 133.985 95.7773 134.756 95.7773 135.708C95.7773 136.66 96.5489 137.432 97.5007 137.432Z" fill="white" fill-opacity="0.5"/>
<path d="M106.804 132.656C106.428 132.463 105.64 132.243 104.568 132.995L103.211 133.948C103.22 134.076 103.229 134.196 103.229 134.333V141.666C103.229 141.804 103.211 141.923 103.211 142.051L104.568 143.005C105.136 143.408 105.631 143.536 106.025 143.536C106.364 143.536 106.63 143.445 106.804 143.353C107.18 143.161 107.813 142.638 107.813 141.327V134.681C107.813 133.371 107.18 132.848 106.804 132.656Z" fill="white" fill-opacity="0.5"/>
<path d="M232.879 31.515L229.909 42H228.739L226.099 33.06L223.399 42L222.259 42.015L219.349 31.515H220.474L222.874 40.71L225.559 31.515H226.729L229.339 40.71L231.754 31.515H232.879ZM235.535 32.37V36.285H239.51V37.155H235.535V41.13H239.96V42H234.485V31.5H239.96V32.37H235.535ZM245.134 31.515C246.294 31.515 247.289 31.725 248.119 32.145C248.949 32.565 249.584 33.17 250.024 33.96C250.464 34.75 250.684 35.69 250.684 36.78C250.684 37.86 250.464 38.795 250.024 39.585C249.584 40.365 248.949 40.965 248.119 41.385C247.289 41.795 246.294 42 245.134 42H242.029V31.515H245.134ZM245.134 41.13C246.594 41.13 247.704 40.75 248.464 39.99C249.234 39.22 249.619 38.15 249.619 36.78C249.619 35.4 249.234 34.325 248.464 33.555C247.704 32.775 246.594 32.385 245.134 32.385H243.079V41.13H245.134Z" fill="white"/>
<path d="M222.183 102.248C224.215 100.616 225.807 99.28 226.959 98.24C228.111 97.184 229.079 96.088 229.863 94.952C230.663 93.8 231.063 92.672 231.063 91.568C231.063 90.528 230.807 89.712 230.295 89.12C229.799 88.512 228.991 88.208 227.871 88.208C226.783 88.208 225.935 88.552 225.327 89.24C224.735 89.912 224.415 90.816 224.367 91.952H222.255C222.319 90.16 222.863 88.776 223.887 87.8C224.911 86.824 226.231 86.336 227.847 86.336C229.495 86.336 230.799 86.792 231.759 87.704C232.735 88.616 233.223 89.872 233.223 91.472C233.223 92.8 232.823 94.096 232.023 95.36C231.239 96.608 230.343 97.712 229.335 98.672C228.327 99.616 227.039 100.72 225.471 101.984H233.727V103.808H222.183V102.248ZM235.988 102.248C238.02 100.616 239.612 99.28 240.764 98.24C241.916 97.184 242.884 96.088 243.668 94.952C244.468 93.8 244.868 92.672 244.868 91.568C244.868 90.528 244.612 89.712 244.1 89.12C243.604 88.512 242.796 88.208 241.676 88.208C240.588 88.208 239.74 88.552 239.132 89.24C238.54 89.912 238.22 90.816 238.172 91.952H236.06C236.124 90.16 236.668 88.776 237.692 87.8C238.716 86.824 240.036 86.336 241.652 86.336C243.3 86.336 244.604 86.792 245.564 87.704C246.54 88.616 247.028 89.872 247.028 91.472C247.028 92.8 246.628 94.096 245.828 95.36C245.044 96.608 244.148 97.712 243.14 98.672C242.132 99.616 240.844 100.72 239.276 101.984H247.532V103.808H235.988V102.248Z" fill="white"/>
<path opacity="0.4" d="M236.767 140.026L233.77 143.023C233.44 142.73 233.119 142.428 232.807 142.116C231.863 141.163 231.01 140.163 230.25 139.118C229.498 138.073 228.893 137.028 228.453 135.993C228.013 134.948 227.793 133.948 227.793 132.995C227.793 132.372 227.903 131.776 228.123 131.226C228.343 130.667 228.691 130.153 229.177 129.695C229.764 129.118 230.405 128.833 231.084 128.833C231.34 128.833 231.597 128.888 231.826 128.998C232.065 129.108 232.275 129.273 232.44 129.512L234.567 132.509C234.732 132.738 234.851 132.949 234.934 133.151C235.016 133.343 235.062 133.536 235.062 133.71C235.062 133.93 234.998 134.15 234.87 134.361C234.75 134.572 234.576 134.792 234.356 135.012L233.66 135.736C233.559 135.837 233.513 135.956 233.513 136.103C233.513 136.176 233.522 136.24 233.54 136.313C233.568 136.387 233.595 136.442 233.614 136.497C233.779 136.799 234.063 137.193 234.466 137.67C234.879 138.147 235.319 138.633 235.795 139.118C236.125 139.439 236.446 139.751 236.767 140.026Z" fill="white" fill-opacity="0.5"/>
<path d="M246.099 143.803C246.099 144.059 246.053 144.325 245.961 144.582C245.934 144.655 245.906 144.728 245.87 144.802C245.714 145.132 245.512 145.443 245.246 145.737C244.797 146.232 244.302 146.589 243.743 146.818C243.734 146.818 243.725 146.828 243.716 146.828C243.175 147.048 242.588 147.167 241.956 147.167C241.021 147.167 240.021 146.947 238.967 146.498C237.913 146.048 236.859 145.443 235.814 144.683C235.456 144.417 235.099 144.151 234.76 143.867L237.757 140.869C238.014 141.062 238.243 141.208 238.436 141.309C238.481 141.328 238.536 141.355 238.601 141.383C238.674 141.41 238.747 141.419 238.83 141.419C238.986 141.419 239.105 141.364 239.206 141.263L239.902 140.576C240.131 140.347 240.351 140.173 240.562 140.063C240.773 139.934 240.984 139.87 241.213 139.87C241.387 139.87 241.571 139.907 241.772 139.989C241.974 140.072 242.185 140.191 242.414 140.347L245.448 142.501C245.686 142.666 245.851 142.858 245.952 143.088C246.044 143.317 246.099 143.546 246.099 143.803Z" fill="white" fill-opacity="0.5"/>
<path d="M282.159 42H283.209V37.17H287.109V36.3H283.209V32.385H287.829V31.515H282.159V42ZM295.196 34.56C295.196 35.835 294.431 36.765 292.721 36.765H290.606V32.4H292.706C294.476 32.4 295.196 33.24 295.196 34.56ZM289.556 31.515V42H290.606V37.62H292.541L295.136 42H296.396L293.696 37.545C295.466 37.215 296.276 36 296.276 34.56C296.276 32.835 295.136 31.515 292.706 31.515H289.556ZM298.36 42H299.41V31.515H298.36V42Z" fill="white"/>
<path d="M277.183 102.248C279.215 100.616 280.807 99.28 281.959 98.24C283.111 97.184 284.079 96.088 284.863 94.952C285.663 93.8 286.063 92.672 286.063 91.568C286.063 90.528 285.807 89.712 285.295 89.12C284.799 88.512 283.991 88.208 282.871 88.208C281.783 88.208 280.935 88.552 280.327 89.24C279.735 89.912 279.415 90.816 279.367 91.952H277.255C277.319 90.16 277.863 88.776 278.887 87.8C279.911 86.824 281.231 86.336 282.847 86.336C284.495 86.336 285.799 86.792 286.759 87.704C287.735 88.616 288.223 89.872 288.223 91.472C288.223 92.8 287.823 94.096 287.023 95.36C286.239 96.608 285.343 97.712 284.335 98.672C283.327 99.616 282.039 100.72 280.471 101.984H288.727V103.808H277.183V102.248ZM290.724 100.136V98.48L299.148 86.816H301.764V98.24H304.164V100.136H301.764V104H299.604V100.136H290.724ZM299.7 89.096L293.244 98.24H299.7V89.096Z" fill="white"/>
<path d="M294.313 130.263V128.833C294.313 128.458 294.001 128.146 293.625 128.146C293.249 128.146 292.938 128.458 292.938 128.833V130.208H286.979V128.833C286.979 128.458 286.668 128.146 286.292 128.146C285.916 128.146 285.604 128.458 285.604 128.833V130.263C283.129 130.493 281.929 131.968 281.745 134.159C281.727 134.425 281.947 134.645 282.204 134.645H297.714C297.979 134.645 298.199 134.416 298.172 134.159C297.989 131.968 296.788 130.493 294.313 130.263Z" fill="white" fill-opacity="0.5"/>
<path opacity="0.4" d="M297.292 136.02C297.796 136.02 298.209 136.433 298.209 136.937V142.583C298.209 145.333 296.834 147.167 293.626 147.167H286.292C283.084 147.167 281.709 145.333 281.709 142.583V136.937C281.709 136.433 282.121 136.02 282.626 136.02H297.292Z" fill="white" fill-opacity="0.5"/>
<path d="M286.751 140.75C286.512 140.75 286.274 140.649 286.1 140.484C285.935 140.31 285.834 140.071 285.834 139.833C285.834 139.595 285.935 139.356 286.1 139.182C286.356 138.926 286.76 138.843 287.099 138.99C287.218 139.036 287.319 139.1 287.401 139.182C287.566 139.356 287.667 139.595 287.667 139.833C287.667 140.071 287.566 140.31 287.401 140.484C287.227 140.649 286.989 140.75 286.751 140.75Z" fill="white" fill-opacity="0.5"/>
<path d="M289.96 140.75C289.721 140.75 289.483 140.649 289.309 140.484C289.144 140.31 289.043 140.071 289.043 139.833C289.043 139.595 289.144 139.356 289.309 139.182C289.391 139.1 289.492 139.036 289.611 138.99C289.95 138.843 290.354 138.926 290.61 139.182C290.775 139.356 290.876 139.595 290.876 139.833C290.876 140.071 290.775 140.31 290.61 140.484C290.565 140.521 290.519 140.557 290.473 140.594C290.418 140.631 290.363 140.658 290.308 140.676C290.253 140.704 290.198 140.722 290.143 140.731C290.079 140.741 290.024 140.75 289.96 140.75Z" fill="white" fill-opacity="0.5"/>
<path d="M293.167 140.75C292.928 140.75 292.69 140.649 292.516 140.484C292.351 140.31 292.25 140.072 292.25 139.833C292.25 139.595 292.351 139.357 292.516 139.182C292.608 139.1 292.699 139.036 292.818 138.99C292.983 138.917 293.167 138.898 293.35 138.935C293.405 138.944 293.46 138.962 293.515 138.99C293.57 139.008 293.625 139.036 293.68 139.072C293.726 139.109 293.772 139.146 293.817 139.182C293.982 139.357 294.083 139.595 294.083 139.833C294.083 140.072 293.982 140.31 293.817 140.484C293.772 140.521 293.726 140.557 293.68 140.594C293.625 140.631 293.57 140.658 293.515 140.677C293.46 140.704 293.405 140.722 293.35 140.732C293.286 140.741 293.222 140.75 293.167 140.75Z" fill="white" fill-opacity="0.5"/>
<path d="M286.751 143.958C286.631 143.958 286.512 143.931 286.402 143.885C286.283 143.839 286.191 143.775 286.1 143.693C285.935 143.518 285.834 143.28 285.834 143.042C285.834 142.803 285.935 142.565 286.1 142.391C286.191 142.308 286.283 142.244 286.402 142.198C286.567 142.125 286.751 142.107 286.934 142.143C286.989 142.153 287.044 142.171 287.099 142.198C287.154 142.217 287.209 142.244 287.264 142.281C287.31 142.318 287.356 142.354 287.401 142.391C287.566 142.565 287.667 142.803 287.667 143.042C287.667 143.28 287.566 143.518 287.401 143.693C287.356 143.729 287.31 143.775 287.264 143.802C287.209 143.839 287.154 143.867 287.099 143.885C287.044 143.913 286.989 143.931 286.934 143.94C286.87 143.949 286.815 143.958 286.751 143.958Z" fill="white" fill-opacity="0.5"/>
<path d="M289.96 143.958C289.721 143.958 289.483 143.857 289.309 143.692C289.144 143.518 289.043 143.28 289.043 143.041C289.043 142.803 289.144 142.565 289.309 142.391C289.648 142.051 290.271 142.051 290.61 142.391C290.775 142.565 290.876 142.803 290.876 143.041C290.876 143.28 290.775 143.518 290.61 143.692C290.436 143.857 290.198 143.958 289.96 143.958Z" fill="white" fill-opacity="0.5"/>
<path d="M293.167 143.958C292.928 143.958 292.69 143.857 292.516 143.692C292.351 143.518 292.25 143.28 292.25 143.041C292.25 142.803 292.351 142.565 292.516 142.391C292.855 142.051 293.478 142.051 293.817 142.391C293.982 142.565 294.083 142.803 294.083 143.041C294.083 143.28 293.982 143.518 293.817 143.692C293.643 143.857 293.405 143.958 293.167 143.958Z" fill="white" fill-opacity="0.5"/>
</svg>
