<svg width="81" height="81" viewBox="0 0 81 81" fill="none" xmlns="http://www.w3.org/2000/svg">
<rect x="0.835938" y="0.729492" width="80" height="80" rx="10" fill="#8B6EFF"/>
<path d="M31.4609 51.9795L31.4609 48.2295" stroke="white" stroke-width="3" stroke-linecap="round"/>
<path d="M40.8359 51.9795L40.8359 46.3545" stroke="white" stroke-width="3" stroke-linecap="round"/>
<path d="M50.2109 51.9795L50.2109 42.6045" stroke="white" stroke-width="3" stroke-linecap="round"/>
<path d="M29.5859 38.292C28.7575 38.292 28.0859 38.9636 28.0859 39.792C28.0859 40.6204 28.7575 41.292 29.5859 41.292V38.292ZM49.6383 31.1612C50.0493 30.4419 49.7994 29.5256 49.0801 29.1146C48.3609 28.7036 47.4446 28.9535 47.0336 29.6728L49.6383 31.1612ZM44.3418 28.5522C43.5244 28.687 42.9711 29.4589 43.1059 30.2763C43.2408 31.0937 44.0127 31.647 44.8301 31.5122L44.3418 28.5522ZM46.9628 29.6401L46.7186 28.1601L46.9628 29.6401ZM49.6144 31.1474L48.1724 31.5605L49.6144 31.1474ZM48.7689 33.6426C48.9971 34.439 49.8277 34.8996 50.6241 34.6715C51.4204 34.4433 51.8811 33.6128 51.6529 32.8164L48.7689 33.6426ZM48.8499 29.6136L49.5912 28.3096L49.5912 28.3096L48.8499 29.6136ZM29.5859 41.292C38.3718 41.292 45.5387 38.3354 49.6383 31.1612L47.0336 29.6728C43.6331 35.6236 37.6751 38.292 29.5859 38.292V41.292ZM44.8301 31.5122L47.2069 31.1201L46.7186 28.1601L44.3418 28.5522L44.8301 31.5122ZM48.1724 31.5605L48.7689 33.6426L51.6529 32.8164L51.0564 30.7342L48.1724 31.5605ZM47.2069 31.1201C47.4616 31.0781 47.6621 31.0451 47.8354 31.0205C48.0091 30.9959 48.1237 30.9844 48.2038 30.9807C48.3577 30.9737 48.2583 31.0027 48.1087 30.9177L49.5912 28.3096C49.0532 28.0038 48.5098 27.9637 48.0671 27.9839C47.6594 28.0025 47.1821 28.0837 46.7186 28.1601L47.2069 31.1201ZM51.0564 30.7342C50.9433 30.3395 50.8175 29.887 50.6509 29.5179C50.458 29.0904 50.1495 28.6269 49.5912 28.3096L48.1087 30.9177C48.0416 30.8796 47.9813 30.8273 47.9378 30.7742C47.901 30.7292 47.8971 30.7089 47.9166 30.7521C47.9374 30.7981 47.9683 30.8787 48.0138 31.0225C48.0593 31.1661 48.1081 31.3358 48.1724 31.5605L51.0564 30.7342Z" fill="white"/>
<path d="M23.0234 40.7295C23.0234 32.3326 23.0234 28.1342 25.632 25.5256C28.2406 22.917 32.439 22.917 40.8359 22.917C49.2328 22.917 53.4313 22.917 56.0399 25.5256C58.6484 28.1342 58.6484 32.3326 58.6484 40.7295C58.6484 49.1264 58.6484 53.3248 56.0399 55.9334C53.4313 58.542 49.2328 58.542 40.8359 58.542C32.439 58.542 28.2406 58.542 25.632 55.9334C23.0234 53.3248 23.0234 49.1264 23.0234 40.7295Z" stroke="white" stroke-width="3"/>
</svg>
