<svg width="81" height="81" viewBox="0 0 81 81" fill="none" xmlns="http://www.w3.org/2000/svg">
<rect x="0.835938" y="0.729492" width="80" height="80" rx="10" fill="#8FD784"/>
<path fill-rule="evenodd" clip-rule="evenodd" d="M37.1724 21.5742L47.1345 21.5742C49.1625 21.5742 50.7696 21.5742 52.0632 21.6842C53.3864 21.7968 54.5038 22.0317 55.5176 22.5736C56.994 23.3627 58.2031 24.5719 58.9922 26.0482C59.5342 27.0621 59.7691 28.1795 59.8816 29.5026C59.9917 30.7962 59.9917 32.4033 59.9916 34.4313V34.4927C59.9916 35.2308 59.3933 35.8291 58.6552 35.8291C57.9172 35.8291 57.3189 35.2308 57.3189 34.4927C57.3189 32.3897 57.3177 30.8962 57.2185 29.7292C57.1206 28.5787 56.9347 27.8688 56.6351 27.3082C56.0951 26.2981 55.2678 25.4707 54.2577 24.9308C53.697 24.6311 52.9871 24.4453 51.8367 24.3474C50.6697 24.2481 49.1761 24.247 47.0732 24.247H37.2729C33.8752 24.247 31.4614 24.2498 29.6303 24.496C27.8375 24.7371 26.8047 25.1891 26.0506 25.9432C25.2965 26.6973 24.8445 27.7301 24.6035 29.5228C24.3573 31.354 24.3544 33.7678 24.3544 37.1655V38.9474C24.3544 39.7653 24.3547 40.5041 24.361 41.1747H39.0548C39.7929 41.1747 40.3912 41.773 40.3912 42.5111C40.3912 43.2491 39.7929 43.8475 39.0548 43.8475H24.4555C24.4778 44.1261 24.505 44.3878 24.5382 44.6348C24.714 45.9423 25.0355 46.6347 25.5287 47.1279C26.0218 47.621 26.7142 47.9425 28.0217 48.1183C29.3676 48.2993 31.1515 48.3021 33.7092 48.3021H39.0548C39.7929 48.3021 40.3912 48.9005 40.3912 49.6385V58.5478C40.3912 59.2859 39.7929 59.8842 39.0548 59.8842H33.7092C32.9711 59.8842 32.3728 59.2859 32.3728 58.5478C32.3728 57.8097 32.9711 57.2114 33.7092 57.2114H37.7184V50.9749H33.6114C31.1746 50.975 29.2104 50.975 27.6656 50.7673C26.0617 50.5517 24.7113 50.0903 23.6387 49.0178C22.5662 47.9453 22.1049 46.5949 21.8893 44.991C21.8029 44.3485 21.7524 43.6336 21.723 42.8422C21.696 42.7363 21.6816 42.6254 21.6816 42.5111C21.6816 42.4252 21.6897 42.3413 21.7052 42.2599C21.6816 41.2952 21.6816 40.2256 21.6816 39.0451L21.6816 37.065C21.6816 33.7903 21.6816 31.1966 21.9545 29.1667C22.2354 27.0776 22.8272 25.3867 24.1606 24.0532C25.4941 22.7197 27.185 22.128 29.2741 21.8471C31.304 21.5742 33.8978 21.5742 37.1724 21.5742ZM51.4352 37.611H51.6205C53.2214 37.6109 54.5564 37.6109 55.6162 37.7534C56.7349 37.9038 57.7448 38.2346 58.5564 39.0462C59.368 39.8578 59.6989 40.8677 59.8493 41.9864C59.9917 43.0462 59.9917 44.3812 59.9916 45.9822V51.513C59.9917 53.114 59.9917 54.449 59.8493 55.5088C59.6989 56.6275 59.368 57.6374 58.5564 58.449C57.7448 59.2606 56.7349 59.5914 55.6162 59.7418C54.5564 59.8843 53.2214 59.8843 51.6205 59.8842H51.4352C49.8342 59.8843 48.4992 59.8843 47.4394 59.7418C46.3207 59.5914 45.3108 59.2606 44.4992 58.449C43.6876 57.6374 43.3568 56.6275 43.2064 55.5088C43.0639 54.449 43.0639 53.114 43.064 51.513V45.9822C43.0639 44.3812 43.0639 43.0462 43.2064 41.9864C43.3568 40.8677 43.6876 39.8578 44.4992 39.0462C45.3108 38.2346 46.3207 37.9038 47.4394 37.7534C48.4992 37.6109 49.8342 37.6109 51.4352 37.611ZM47.7955 40.4023C46.9732 40.5129 46.6213 40.7039 46.3891 40.9361C46.1569 41.1683 45.9659 41.5202 45.8553 42.3425C45.7396 43.2032 45.7368 44.3571 45.7368 46.0748V51.4204C45.7368 53.1381 45.7396 54.292 45.8553 55.1527C45.9659 55.9749 46.1569 56.3269 46.3891 56.5591C46.6213 56.7913 46.9732 56.9823 47.7955 57.0929C48.6562 57.2086 49.8101 57.2114 51.5278 57.2114C53.2455 57.2114 54.3994 57.2086 55.2601 57.0929C56.0824 56.9823 56.4343 56.7913 56.6665 56.5591C56.8987 56.3269 57.0897 55.9749 57.2003 55.1527C57.316 54.292 57.3189 53.1381 57.3189 51.4204V46.0748C57.3189 44.3571 57.316 43.2032 57.2003 42.3425C57.0897 41.5202 56.8987 41.1683 56.6665 40.9361C56.4343 40.7039 56.0824 40.5129 55.2601 40.4023C54.3994 40.2866 53.2455 40.2838 51.5278 40.2838C49.8101 40.2838 48.6562 40.2866 47.7955 40.4023ZM48.4095 54.9841C48.4095 54.246 49.0079 53.6477 49.7459 53.6477H53.3097C54.0477 53.6477 54.6461 54.246 54.6461 54.9841C54.6461 55.7222 54.0477 56.3205 53.3097 56.3205H49.7459C49.0079 56.3205 48.4095 55.7222 48.4095 54.9841Z" fill="white"/>
</svg>
