<svg width="81" height="81" viewBox="0 0 81 81" fill="none" xmlns="http://www.w3.org/2000/svg">
<rect x="0.835938" y="0.046875" width="80" height="80" rx="10" fill="#6DCAFF"/>
<path d="M43.6484 41.9219L50.2109 34.4219M44.5859 45.6719C44.5859 47.7429 42.907 49.4219 40.8359 49.4219C38.7649 49.4219 37.0859 47.7429 37.0859 45.6719C37.0859 43.6008 38.7649 41.9219 40.8359 41.9219C42.907 41.9219 44.5859 43.6008 44.5859 45.6719Z" stroke="white" stroke-width="3" stroke-linecap="round"/>
<path d="M29.5859 40.0469C29.5859 33.8337 34.6227 28.7969 40.8359 28.7969C42.8851 28.7969 44.8062 29.3447 46.4609 30.3019" stroke="white" stroke-width="3" stroke-linecap="round"/>
<path d="M23.0234 40.0469C23.0234 31.65 23.0234 27.4515 25.632 24.843C28.2406 22.2344 32.439 22.2344 40.8359 22.2344C49.2328 22.2344 53.4313 22.2344 56.0399 24.843C58.6484 27.4515 58.6484 31.65 58.6484 40.0469C58.6484 48.4438 58.6484 52.6422 56.0399 55.2508C53.4313 57.8594 49.2328 57.8594 40.8359 57.8594C32.439 57.8594 28.2406 57.8594 25.632 55.2508C23.0234 52.6422 23.0234 48.4438 23.0234 40.0469Z" stroke="white" stroke-width="3"/>
</svg>
