<svg id="Layer_1" viewBox="0 0 1000 1000" xmlns="http://www.w3.org/2000/svg" data-name="Layer 1"><path d="m594.48 734.12a23.2 23.2 0 0 1 -23.17 23.18h-142.62a23.18 23.18 0 0 1 0-46.35h142.62a23.2 23.2 0 0 1 23.17 23.17z"/><path d="m505.5 110.07c-120.44-3-221 92.52-224 213a216.62 216.62 0 0 0 64.19 160.31 8 8 0 0 1 .68.74c.74.91 18.42 22.66 37.42 60.21 16.68 32.94 37.39 84.54 43.79 146.62h149c12.42-144.88 72.42-203.57 76.56-207.46 40.74-40.08 64-93.14 65.36-149.41 3.04-120.49-92.5-220.97-213-224.01zm70.1 148.31a28.08 28.08 0 0 1 -12.32 4.3l-25.76 116.63a10 10 0 0 1 -18.2 3.23l-34.93-54.74-20.63 93.39a28.3 28.3 0 1 1 -17.66-12.79l24-108.49a10 10 0 0 1 18.2-3.22l34.94 54.74 20.73-93.87a28.3 28.3 0 1 1 31.67.82z"/><path d="m582.31 800.47a23.2 23.2 0 0 1 -23.17 23.18h-118.28a23.18 23.18 0 0 1 0-46.35h118.28a23.2 23.2 0 0 1 23.17 23.17z"/><path d="m567.91 866.83a23.2 23.2 0 0 1 -23.17 23.17h-89.48a23.18 23.18 0 0 1 0-46.35h89.48a23.2 23.2 0 0 1 23.17 23.18z"/></svg>