<svg id="Capa_1" enable-background="new 0 0 512 512" height="512" viewBox="0 0 512 512" width="512" xmlns="http://www.w3.org/2000/svg"><g><path d="m256 111c-79.953 0-145 65.047-145 145s65.047 145 145 145 145-65.047 145-145-65.047-145-145-145zm101.444 152.111h-30v-27.787l-71.444 71.445-32-32-53.394 53.394-21.213-21.213 74.607-74.607 32 32 50.231-50.231h-27.787v-30h79z"/><path d="m512 288v-64h-34.285c-2.549-17.817-7.188-34.957-13.672-51.163l29.66-17.124-32-55.426-29.698 17.146c-10.961-13.904-23.534-26.477-37.438-37.438l17.146-29.698-55.426-32-17.124 29.66c-16.206-6.484-33.346-11.123-51.163-13.672v-34.285h-64v34.285c-17.817 2.549-34.957 7.188-51.163 13.672l-17.124-29.66-55.426 32 17.146 29.698c-13.904 10.961-26.477 23.534-37.438 37.438l-29.698-17.146-32 55.426 29.66 17.124c-6.484 16.206-11.123 33.346-13.672 51.163h-34.285v64h34.285c2.549 17.817 7.188 34.957 13.672 51.163l-29.66 17.124 32 55.426 29.698-17.146c10.961 13.904 23.534 26.477 37.438 37.438l-17.146 29.698 55.426 32 17.124-29.66c16.206 6.484 33.346 11.123 51.163 13.672v34.285h64v-34.285c17.817-2.549 34.957-7.188 51.163-13.672l17.124 29.66 55.426-32-17.146-29.698c13.904-10.961 26.477-23.534 37.438-37.438l29.698 17.146 32-55.426-29.66-17.124c6.484-16.206 11.123-33.346 13.672-51.163zm-256 143c-96.495 0-175-78.505-175-175s78.505-175 175-175 175 78.505 175 175-78.505 175-175 175z"/></g></svg>