<svg xmlns="http://www.w3.org/2000/svg" version="1.1" xmlns:xlink="http://www.w3.org/1999/xlink" width="512" height="512" x="0" y="0" viewBox="0 0 100 100" style="enable-background:new 0 0 512 512" xml:space="preserve"><g><path d="M74.266 21.384c-.371-.282-1.09-.108-1.838-.16-.806 4.815 1.267 10.176-3.15 14.655C64.974 24.161 59.781 13.64 50.022 6.2c-2.219-1.692-4.685-4.556-7.416-3.455-3.102 1.25-1.616 5.043-1.85 7.738-1.107 12.787-7.581 22.893-15.518 33.403-2.172-5.461-2.201-10.738-7.647-14.213-.201 8.625-3.162 15.685-6.451 22.633-1.925 4.065-3.392 8.276-4.162 12.713-2.368 13.644 9.586 29.7 25.034 31.897-11.311-15.794 1.63-25.666 7.503-37.581 3.193 3.226 3.122 6.827 3.237 10.854 5.342-5.06 8.186-11.378 10.12-18.223.426-1.504.112-3.735 1.878-4.243 2.105-.605 3.094 1.587 4.21 2.907 10.512 12.437 12.353 26.476 7.58 41.719-.465 1.486-1.92 3.323-.655 4.531 1.735 1.658 3.37-.438 4.77-1.304 28.685-17.72 30.428-53.767 3.61-74.192z" fill="#00c1ff" opacity="1" data-original="#000000"></path></g></svg>