<svg xmlns="http://www.w3.org/2000/svg" version="1.1" xmlns:xlink="http://www.w3.org/1999/xlink" width="512" height="512" x="0" y="0" viewBox="0 0 512 512" style="enable-background:new 0 0 512 512" xml:space="preserve" class=""><g><linearGradient id="a" x1="256" x2="256" y1="512" y2="0" gradientUnits="userSpaceOnUse"><stop stop-opacity="1" stop-color="#fd5900" offset="0"></stop><stop stop-opacity="1" stop-color="#b80203" offset="0.019305019305019305"></stop><stop stop-opacity="1" stop-color="#ff3739" offset="1"></stop><stop stop-opacity="1" stop-color="#ffe329" offset="1"></stop></linearGradient><path fill="url(#a)" d="M436 150h-15V15c0-8.284-6.716-15-15-15h-60c-8.284 0-15 6.716-15 15v135h-30V45c0-8.284-6.716-15-15-15h-60c-8.284 0-15 6.716-15 15v105h-30V75c0-8.284-6.716-15-15-15h-60c-8.284 0-15 6.716-15 15v75H76c-8.284 0-15 6.716-15 15v60c0 8.284 6.716 15 15 15h23.787L211 351.213V497a15 15 0 0 0 25.607 10.606l60-60A14.999 14.999 0 0 0 301 437v-85.787L412.213 240H436c8.284 0 15-6.716 15-15v-60c0-8.284-6.716-15-15-15zM361 30h30v120h-30zM241 60h30v90h-30zM121 90h30v60h-30zm154.394 244.394A15 15 0 0 0 271 345v85.787l-30 30V345a15 15 0 0 0-4.394-10.606L142.213 240h227.574zM421 210H91v-30h330z" opacity="1" data-original="url(#a)" class=""></path></g></svg>