<svg xmlns="http://www.w3.org/2000/svg" version="1.1" xmlns:xlink="http://www.w3.org/1999/xlink" width="512" height="512" x="0" y="0" viewBox="0 0 32 32" style="enable-background:new 0 0 512 512" xml:space="preserve"><g><path d="M11.73 14.93a1.07 1.07 0 0 1-1.07-1.07v-3.2a1.07 1.07 0 1 1 2.13 0v3.2a1.07 1.07 0 0 1-1.06 1.07zM16 14.93a1.07 1.07 0 0 1-1.07-1.07V9.6a1.07 1.07 0 0 1 2.13 0v4.27A1.07 1.07 0 0 1 16 14.93zM20.27 14.93a1.07 1.07 0 0 1-1.07-1.07V7.47a1.07 1.07 0 1 1 2.13 0v6.4a1.07 1.07 0 0 1-1.06 1.06z" fill="#dffd20" opacity="1" data-original="#000000"></path><path d="M24.53 32H7.47a4.27 4.27 0 0 1-4.27-4.27V8.4a5.32 5.32 0 0 1 1.92-4.1L8.8 1.24A5.35 5.35 0 0 1 12.21 0h12.32a4.27 4.27 0 0 1 4.27 4.27v23.46A4.27 4.27 0 0 1 24.53 32zM12.21 2.13a3.21 3.21 0 0 0-2 .74L6.48 5.94A3.19 3.19 0 0 0 5.33 8.4v19.33a2.14 2.14 0 0 0 2.13 2.13h17.07a2.14 2.14 0 0 0 2.13-2.13V4.27a2.14 2.14 0 0 0-2.13-2.13z" fill="#dffd20" opacity="1" data-original="#000000"></path><path d="M22.4 25.6H9.6a1.07 1.07 0 1 1 0-2.13h12.8a1.07 1.07 0 1 1 0 2.13zM22.4 20.27H9.6a1.07 1.07 0 0 1 0-2.13h12.8a1.07 1.07 0 1 1 0 2.13z" fill="#dffd20" opacity="1" data-original="#000000"></path></g></svg>