<svg xmlns="http://www.w3.org/2000/svg" version="1.1" xmlns:xlink="http://www.w3.org/1999/xlink" width="512" height="512" x="0" y="0" viewBox="0 0 32 32" style="enable-background:new 0 0 512 512" xml:space="preserve" class=""><g><g data-name="Layer 2"><path d="M27.346 2.707A2 2 0 0 0 25.819 2H6.181a2 2 0 0 0-1.973 2.329l.667 4A1.992 1.992 0 0 0 6.847 10h18.306a1.992 1.992 0 0 0 1.972-1.671l.667-4a2 2 0 0 0-.446-1.622zM25.153 9V8zm0-1H6.847l-.666-4H25.82zM23.613 12H8.387a2 2 0 0 0-1.9 2.632l1.333 4A2 2 0 0 0 9.721 20h12.558a2 2 0 0 0 1.9-1.368l1.333-4A2 2 0 0 0 23.613 12zm-1.334 6H9.721l-1.334-4h15.225zM20.613 22h-9.226a2 2 0 0 0-1.9 2.632l1.333 4A2 2 0 0 0 12.721 30h6.558a2 2 0 0 0 1.9-1.368l1.333-4A2 2 0 0 0 20.613 22zm-1.334 6h-6.558l-1.334-4h9.225z" fill="#ff3a9e" opacity="1" data-original="#000000"></path></g></g></svg>