<svg xmlns="http://www.w3.org/2000/svg" version="1.1" xmlns:xlink="http://www.w3.org/1999/xlink" width="512" height="512" x="0" y="0" viewBox="0 0 24 24" style="enable-background:new 0 0 512 512" xml:space="preserve" class=""><g><path fill="#007bff" fill-rule="evenodd" d="M18 12a4 4 0 1 0-3.874-5H3a1 1 0 0 0 0 2h11.126c.444 1.725 2.01 3 3.874 3zm-2-4a2 2 0 1 0 4 0 2 2 0 0 0-4 0zM2 16a4 4 0 0 1 7.874-1H21a1 1 0 1 1 0 2H9.874A4.002 4.002 0 0 1 2 16zm6 0a2 2 0 1 0-4 0 2 2 0 0 0 4 0z" clip-rule="evenodd" opacity="1" data-original="#000000" class=""></path></g></svg>