<svg id="Layer_1" enable-background="new 0 0 64 64" height="512" viewBox="0 0 64 64" width="512" xmlns="http://www.w3.org/2000/svg"><g><g><path d="m28.7 45.4-.1-.1c-.3-.3-.7-.4-1.1-.4-.5 0-1.1.2-1.4.7l-.6.8c-.3.4-.4.9-.4 1.3 0 .5.3.9.7 1.2l.1.1c.3.3.7.4 1.1.4.6 0 1.1-.3 1.4-.7l.6-.7c.3-.4.4-.8.4-1.3-.1-.6-.3-1-.7-1.3z"/><path d="m26.4 39.8-.1-.1c-.3-.3-.7-.4-1.1-.4-.6 0-1.1.2-1.4.7l-3.1 3.9c-.6.8-.5 1.9.3 2.5l.1.1c.3.3.7.4 1.1.4.6 0 1.1-.3 1.4-.7l3.1-3.9c.7-.7.5-1.8-.3-2.5z"/><path d="m20.9 38.5-.1-.1c-.4-.3-.8-.4-1.2-.4-.5 0-1.1.2-1.4.7l-.9 1.1s-.1.1-.1.1l-.3.4-.4.5c-.3.4-.4.8-.4 1.3.1.5.3.9.7 1.2l.1.1c.3.3.7.4 1.1.4.6 0 1.1-.3 1.4-.7l1.7-2.2c.7-.7.6-1.8-.2-2.4z"/><path d="m16.5 37.7c-.1-.5-.3-1-.7-1.2-.4-.4-.8-.5-1.2-.5-.6 0-1.1.3-1.5.7l-.4.4c-.3.4-.4.9-.4 1.4.1.5.3 1 .7 1.2.3.3.7.4 1.2.4.6 0 1.1-.3 1.5-.7l.4-.5c.3-.4.4-.8.4-1.2z"/><path d="m10.9 14.6-10.9 12.5 7.2 4.9 9.6-13.5z"/><path d="m52.3 37.9-11.6-7.9-4.8-.1c-.1 0-.2 0-.3-.1-1.7-.9-2.9-2.9-3.5-3.9l-.1-.2h-4.3l-.1.2c-.9 3.7-3.9 4.6-5.1 4.8-.1 0-.1 0-.2 0-.3 0-.6-.1-.8-.3-.3-.2-.5-.6-.5-1v-5.4c0-.8.4-1.5 1-2l2.6-2h-.7c-1.1-.1-2.2-.2-3.4-.2-.8 0-1.7 0-2.4.1h-.1l-8.2 11.5.1.2c.9 1.4 1.9 2.6 2.8 3.3l.2.1.2-.1c.5-.3 1-.4 1.6-.4.8 0 1.5.2 2.1.7.5.4.8.9 1.1 1.4l.1.3.3-.2c.3-.2.7-.3 1.1-.3h.4c.7 0 1.5.2 2 .7l.1.1c.4.3.7.7.9 1.2l.2.4.3-.2c.6-.5 1.3-.7 2.1-.7.7 0 1.4.2 2 .7l.1.1c1.3 1.1 1.6 3 .6 4.4l-.3.4.5.1c.5.1.9.3 1.3.6l.1.1c.7.5 1.1 1.3 1.2 2.2 0 .4 0 .8-.1 1.2l-.1.2.9.7c.4.3.9.3 1.1.3.6 0 1.2-.3 1.6-.8.6-.9.4-2.1-.4-2.7l-1.9-1.2c-.2-.2-.4-.5-.3-.8 0-.1.1-.2.1-.3.1-.2.4-.3.6-.3s.3 0 .4.1l5.5 3.9c.3.2.8.4 1.2.4h.4c.5-.1 1-.4 1.3-.9.3-.4.4-1 .3-1.5s-.4-1-.8-1.3l-.1-.1-5.1-3.6c-.2-.1-.3-.3-.3-.5s0-.4.1-.5c.1-.2.4-.3.6-.3s.3 0 .4.1l7.7 5.5c.3.2.8.4 1.2.4h.4c.5-.1 1-.4 1.3-.9.6-.9.4-2.2-.5-2.8l-8-5.6c-.2-.1-.3-.3-.3-.5s0-.4.1-.5c.1-.2.4-.3.6-.3h.2c.1 0 .2.1.3.1l8 5.7 2.5 1.8c.4.2.8.4 1.2.4.7 0 1.3-.3 1.7-.9.2-.4.4-.8.4-1.2.1-.9-.2-1.5-.8-1.9z"/><path d="m46 20c-3.5-.4-6.8-.6-10-.6-3 0-6 .2-8.8.5h-.1l-4.1 3.4c-.3.2-.5.5-.5.8v5.2l.4-.1c1.4-.4 3.1-1.5 3.5-4.3.1-.4.4-.6.7-.6h5.4c.3 0 .6.2.7.4 0 0 1.2 2.6 2.9 3.7l.1.1 5.2.1 2.1 1.5 7.5 5.2.2-.1c.9-.8 1.9-1.9 2.9-3.5l.1-.2-8.1-11.5z"/><path d="m53 14.6-5.9 3.9 8.7 12.2.9 1.3 7.2-4.9z"/></g></g></svg>