<svg id="svg1144" height="512" viewBox="0 0 8.4666667 8.4666667" width="512" xmlns="http://www.w3.org/2000/svg" xmlns:svg="http://www.w3.org/2000/svg"><g id="layer2"><path id="path824" d="m1.6461525.000003c-.3242807 0-.5875606.26345389-.5875606.59582877v7.27500613c0 .3337317.2632799.5958288.5875606.5958288h5.1738418c.3242808 0 .5880778-.266555.5880778-.5958288v-6.0192686c0-.07032-.028881-.1372899-.07855-.1870689-.5486419-.5495709-1.1342977-1.1353306-1.5750973-1.57613043-.03896-.03895999-.09602-.08836997-.1979201-.08836997zm3.6468045.5291668-.0020899 1.3223995c-.0002292.1469279.1186877.2656169.2656167.2656169h1.3223963v5.7536517c0 .03795-.024889.06666-.05891.06666h-5.1738515c-.03402 0-.05839-.02768-.05839-.06666 0 0 0-4.8500041 0-7.27500613 0-.03898.024369-.0666599.05839-.06666 1.0811428-.0000034 2.4312257-.00000199 3.6468384-.00000197zm.5281327.37413684.6847126.68471286h-.6857466zm-3.1749987 2.00659516c-.3529498 0-.3529498.5296829 0 .5296829h3.1739647c.3531228 0 .3531228-.5296829 0-.5296829zm0 1.3223997c-.3529498 0-.3529498.5291667 0 .5291667h3.1739647c.3529508 0 .3529508-.5291667 0-.5291667zm0 1.853633h3.1739647c.3529508 0 .3529508-.5291667 0-.5291667h-3.1739647c-.3529498 0-.3529498.5291667 0 .5291667z" font-variant-ligatures="normal" font-variant-position="normal" font-variant-caps="normal" font-variant-numeric="normal" font-variant-alternates="normal" font-feature-settings="normal" text-indent="0" text-align="start" text-decoration-line="none" text-decoration-style="solid" text-decoration-color="rgb(0,0,0)" text-transform="none" text-orientation="mixed" white-space="normal" shape-padding="0" isolation="auto" mix-blend-mode="normal" solid-color="rgb(0,0,0)" solid-opacity="1" vector-effect="none"/></g></svg>