<svg id="Layer_1" enable-background="new 0 0 512 512" viewBox="0 0 512 512" xmlns="http://www.w3.org/2000/svg"><path clip-rule="evenodd" d="m320.93 50.223c0-4.418 3.582-8 8-8h37.514c4.418 0 8 3.582 8 8v40.838c0 4.418-3.582 8-8 8s-8-3.582-8-8v-32.838h-29.514c-4.418 0-8-3.582-8-8zm-239.864 331.551h-29.513v-32.838c0-4.418-3.582-8-8-8s-8 3.582-8 8v40.838c0 4.418 3.582 8 8 8h37.514c4.418 0 8-3.582 8-8s-3.583-8-8.001-8zm-37.513-282.713c4.418 0 8-3.582 8-8v-32.838h29.514c4.418 0 8-3.582 8-8s-3.582-8-8-8h-37.514c-4.418 0-8 3.582-8 8v40.838c0 4.418 3.582 8 8 8zm247.09 133.627c10.345 17.917-2.601 40.338-23.289 40.338h-117.78c-20.688 0-33.633-22.422-23.289-40.338l58.89-102c10.285-17.815 36.293-17.815 46.579 0zm-90.995-69.37 1.779 49.281c.137 3.786 3.248 6.786 7.036 6.786s6.899-3 7.036-6.786l1.779-49.281c.072-1.982-.591-3.714-1.968-5.142-2.944-3.052-10.75-3.053-13.693 0-1.377 1.428-2.04 3.16-1.969 5.142zm17.835 81.186c0-4.981-4.038-9.019-9.019-9.019s-9.02 4.038-9.02 9.019 4.038 9.019 9.02 9.019c4.981 0 9.019-4.037 9.019-9.019zm255.261 191.68-28.731 29.61c-5.046 5.2-13.428 5.325-18.628.28l-79.578-77.219c-5.2-5.045-5.326-13.43-.281-18.628l1.637-1.687-44.364-43.408c-25.348 21.763-58.305 34.915-94.334 34.915-80.032 0-144.911-64.879-144.911-144.91 0-80.032 64.879-144.91 144.911-144.91 80.031 0 144.91 64.878 144.91 144.91 0 30.819-9.629 59.386-26.031 82.871l45.277 44.296 1.637-1.687c5.045-5.199 13.43-5.326 18.629-.279l79.578 77.221c5.197 5.044 5.325 13.425.279 18.625zm-146.7-221.049c0-64.938-52.643-117.581-117.581-117.581s-117.581 52.643-117.581 117.581 52.643 117.581 117.581 117.581c64.939 0 117.581-52.643 117.581-117.581z" fill-rule="evenodd"/></svg>