<svg id="Capa_1" enable-background="new 0 0 512 512" height="512" viewBox="0 0 512 512" width="512" xmlns="http://www.w3.org/2000/svg"><path d="m500.012 304.718-50.291-29.08c.654-6.526.984-13.093.984-19.638s-.33-13.112-.984-19.638l50.291-29.08c9.551-5.523 12.824-17.754 7.309-27.32l-59.909-103.923c-5.511-9.559-17.73-12.844-27.279-7.32l-50.29 29.079c-10.657-7.712-22.014-14.293-33.964-19.679v-58.119c0-11.046-8.941-20-19.97-20h-119.818c-11.029 0-19.97 8.954-19.97 20v58.118c-11.95 5.386-23.308 11.967-33.964 19.679l-50.29-29.079c-9.552-5.523-21.765-2.246-27.279 7.321l-59.909 103.922c-5.515 9.566-2.242 21.797 7.309 27.32l50.291 29.08c-.654 6.526-.984 13.092-.984 19.639s.33 13.113.984 19.639l-50.291 29.08c-9.551 5.523-12.824 17.754-7.309 27.32l59.909 103.923c5.515 9.566 17.728 12.841 27.279 7.321l50.29-29.079c10.656 7.712 22.014 14.293 33.964 19.679v58.117c0 11.046 8.941 20 19.97 20h119.818c11.029 0 19.97-8.954 19.97-20v-58.118c11.95-5.386 23.307-11.967 33.964-19.679l50.29 29.079c9.566 5.531 21.775 2.227 27.279-7.32l59.909-103.923c5.515-9.566 2.242-21.798-7.309-27.321zm-77.203 93.923-44.632-25.807c-7.269-4.203-16.385-3.405-22.815 1.995-13.855 11.634-29.433 20.66-46.3 26.825-7.88 2.88-13.123 10.386-13.123 18.788v51.558h-79.879v-51.559c0-8.401-5.243-15.907-13.123-18.788-16.867-6.166-32.444-15.19-46.298-26.825-6.431-5.4-15.547-6.198-22.816-1.995l-44.632 25.807-39.939-69.282 44.606-25.792c7.258-4.196 11.127-12.485 9.688-20.754-1.534-8.815-2.312-17.836-2.312-26.813s.778-17.997 2.312-26.812c1.439-8.269-2.43-16.558-9.688-20.754l-44.606-25.792 39.939-69.282 44.632 25.807c7.268 4.203 16.384 3.406 22.816-1.995 13.854-11.635 29.432-20.66 46.298-26.825 7.881-2.88 13.123-10.386 13.123-18.788v-51.558h79.879v51.559c0 8.401 5.243 15.907 13.123 18.788 16.867 6.166 32.445 15.191 46.3 26.825 6.432 5.401 15.548 6.199 22.815 1.995l44.632-25.807 39.939 69.282-44.606 25.792c-7.258 4.196-11.127 12.485-9.688 20.753 1.534 8.818 2.312 17.839 2.312 26.813s-.778 17.995-2.312 26.813c-1.438 8.269 2.431 16.557 9.688 20.753l44.606 25.792zm-146.828-177.27 52.291-30.19c9.565-5.523 21.798-2.246 27.32 7.32 5.523 9.566 2.245 21.798-7.32 27.32l-52.272 30.179c0 22.056-17.944 40-40 40s-40-17.944-40-40 17.944-40 40-40c7.275 0 14.097 1.962 19.981 5.371zm82.107 87.537c-19.916 38.3-59.034 62.092-102.088 62.092-63.411 0-115-51.589-115-115s51.589-115 115-115c11.046 0 20 8.954 20 20s-8.954 20-20 20c-41.355 0-75 33.645-75 75s33.645 75 75 75c28.075 0 53.594-15.537 66.6-40.546 5.096-9.8 17.173-13.612 26.972-8.517s13.612 17.171 8.516 26.971z"/></svg>