<svg xmlns="http://www.w3.org/2000/svg" version="1.1" xmlns:xlink="http://www.w3.org/1999/xlink" width="512" height="512" x="0" y="0" viewBox="0 0 24 24" style="enable-background:new 0 0 512 512" xml:space="preserve" class=""><rect width="24" height="24" rx="4.8" ry="4.8" fill="#2f2f2f" shape="rounded"></rect><g transform="matrix(0.7,0,0,0.7,3.6000000000000014,3.6000000000000014)"><g fill="#000"><path d="M13 8a1 1 0 1 0-2 0v8a1 1 0 1 0 2 0zM16 13a1 1 0 0 1 1 1v2a1 1 0 1 1-2 0v-2a1 1 0 0 1 1-1zM9 11a1 1 0 1 0-2 0v5a1 1 0 1 0 2 0z" fill="#ffffff" opacity="1" data-original="#000000" class=""></path><path fill-rule="evenodd" d="M7 2a5 5 0 0 0-5 5v10a5 5 0 0 0 5 5h10a5 5 0 0 0 5-5V7a5 5 0 0 0-5-5zM4 7a3 3 0 0 1 3-3h10a3 3 0 0 1 3 3v10a3 3 0 0 1-3 3H7a3 3 0 0 1-3-3z" clip-rule="evenodd" fill="#ffffff" opacity="1" data-original="#000000" class=""></path></g></g></svg>