<svg xmlns="http://www.w3.org/2000/svg" version="1.1" xmlns:xlink="http://www.w3.org/1999/xlink" width="512" height="512" x="0" y="0" viewBox="0 0 36 36" style="enable-background:new 0 0 512 512" xml:space="preserve" class=""><rect width="36" height="36" rx="7.2" ry="7.2" fill="#2f2f2f" shape="rounded"></rect><g transform="matrix(0.7,0,0,0.7,5.4,5.4)"><path d="M35.25 27c0 .69-.56 1.25-1.25 1.25H13.04c-.54 1.73-2.13 3-4.04 3s-3.5-1.27-4.04-3H2a1.25 1.25 0 0 1 0-2.5h2.96c.54-1.73 2.13-3 4.04-3s3.5 1.27 4.04 3H34c.69 0 1.25.56 1.25 1.25zM2 10.25h8.96c.54 1.73 2.13 3 4.04 3s3.5-1.27 4.04-3H34a1.25 1.25 0 0 0 0-2.5H19.04c-.54-1.73-2.13-3-4.04-3s-3.5 1.27-4.04 3H2a1.25 1.25 0 0 0 0 2.5zm32 6.5h-2.96c-.54-1.73-2.13-3-4.04-3s-3.5 1.27-4.04 3H2a1.25 1.25 0 0 0 0 2.5h20.96c.54 1.73 2.13 3 4.04 3s3.5-1.27 4.04-3H34a1.25 1.25 0 0 0 0-2.5z" fill="#ffffff" opacity="1" data-original="#000000" class=""></path></g></svg>