<svg xmlns="http://www.w3.org/2000/svg" version="1.1" xmlns:xlink="http://www.w3.org/1999/xlink" width="512" height="512" x="0" y="0" viewBox="0 0 64 64" style="enable-background:new 0 0 512 512" xml:space="preserve" class=""><rect width="64" height="64" rx="12.8" ry="12.8" fill="#2f2f2f" shape="rounded"></rect><g transform="matrix(0.7,0,0,0.7,9.600000286102297,9.59699914455414)"><path d="M45 32a2 2 0 0 0 2 2 7 7 0 0 1 0 14H29.8a10 10 0 1 0 0 4H47a11 11 0 0 0 0-22 2 2 0 0 0-2 2zM20 56a6 6 0 1 1 6-6 6 6 0 0 1-6 6z" fill="#ffffff" opacity="1" data-original="#000000" class=""></path><path d="M17 34h17.17l-.58.59a2 2 0 1 0 2.82 2.82l4-4a1.79 1.79 0 0 0 .25-.31 1.19 1.19 0 0 0 .09-.15l.1-.2.06-.2a.84.84 0 0 0 .05-.17 2 2 0 0 0 0-.78.84.84 0 0 0-.05-.17l-.06-.2-.1-.2a1.19 1.19 0 0 0-.09-.15 1.79 1.79 0 0 0-.25-.31l-4-4a2 2 0 0 0-2.82 2.82l.58.59H17a7 7 0 0 1 0-14h17.2a10 10 0 1 0 0-4H17a11 11 0 0 0 0 22zM44 8a6 6 0 1 1-6 6 6 6 0 0 1 6-6zM20.59 47.59l-1.65 1.64a2 2 0 0 0-2.35.36 2 2 0 0 0 0 2.82l1 1a2 2 0 0 0 2.82 0l3-3a2 2 0 0 0-2.82-2.82z" fill="#ffffff" opacity="1" data-original="#000000" class=""></path></g></svg>