<svg xmlns="http://www.w3.org/2000/svg" version="1.1" xmlns:xlink="http://www.w3.org/1999/xlink" width="512" height="512" x="0" y="0" viewBox="0 0 32 32" style="enable-background:new 0 0 512 512" xml:space="preserve" class=""><rect width="32" height="32" rx="6.4" ry="6.4" fill="#2f2f2f" shape="rounded"></rect><g transform="matrix(0.7,0,0,0.7,4.800000000000001,4.8000288963317885)"><path d="M5 26.194h15a1 1 0 0 0 0-2h-.612l-9.564-9.563 4.75-4.747 1.006 1.006a3.449 3.449 0 0 0 2.46 1.02h.01a3.449 3.449 0 0 0 2.46-1.02l3.685-3.693V16a1 1 0 0 0 2 0V5a4.005 4.005 0 0 0-4-4H5a4.005 4.005 0 0 0-4 4v17.194a4.004 4.004 0 0 0 4 4ZM22.195 3a1.996 1.996 0 0 1 1.916 1.459L19.1 9.47a1.474 1.474 0 0 1-1.06.44 1.5 1.5 0 0 1-1.05-.43L10.52 3ZM3 5a2.002 2.002 0 0 1 2-2h2.69l5.47 5.47L3 18.623Zm0 16.45 5.41-5.405 8.15 8.15H5a2.002 2.002 0 0 1-2-2Z" fill="#ffffff" opacity="1" data-original="#000000" class=""></path><path d="M21.494 23.583c0 3.639 3.937 7.035 4.105 7.178a.998.998 0 0 0 1.287.008c.168-.14 4.114-3.463 4.114-7.186a4.753 4.753 0 1 0-9.506 0Zm4.753-2.753A2.756 2.756 0 0 1 29 23.583c0 2.017-1.765 4.063-2.749 5.047-1.116-1.137-2.757-3.207-2.757-5.047a2.756 2.756 0 0 1 2.753-2.753Z" fill="#ffffff" opacity="1" data-original="#000000" class=""></path><path d="M27.483 23.583a1.236 1.236 0 1 0-1.236 1.237 1.236 1.236 0 0 0 1.236-1.237Z" fill="#ffffff" opacity="1" data-original="#000000" class=""></path></g></svg>