<svg width="218" height="336" viewBox="0 0 218 336" fill="none" xmlns="http://www.w3.org/2000/svg">
<mask id="mask0_701_2548" style="mask-type:alpha" maskUnits="userSpaceOnUse" x="0" y="0" width="218" height="336">
<rect width="218" height="336" fill="#D9D9D9"/>
</mask>
<g mask="url(#mask0_701_2548)">
<rect x="-174.121" y="175.122" width="300" height="260" rx="10" transform="rotate(-36.5833 -174.121 175.122)" fill="#131313"/>
<g filter="url(#filter0_d_701_2548)">
<rect x="-10.668" y="84.9385" width="90" height="25" rx="12.5" transform="rotate(-36.5833 -10.668 84.9385)" fill="url(#paint0_linear_701_2548)"/>
<rect x="-9.96848" y="85.042" width="89" height="24" rx="12" transform="rotate(-36.5833 -9.96848 85.042)" stroke="url(#paint1_linear_701_2548)"/>
</g>
<path d="M13.0088 87.9128L9.38731 90.6007L4.8399 84.4738L5.78743 83.7706L9.70309 89.0462L12.3771 87.0616L13.0088 87.9128ZM14.9864 86.582C14.5474 86.9078 14.1087 87.0549 13.6701 87.0234C13.2276 86.9865 12.8574 86.7673 12.5594 86.3658C12.2535 85.9536 12.1737 85.5106 12.3201 85.0366C12.4298 84.6812 12.6778 84.2937 13.0639 83.8743L14.3167 82.5086C14.0942 82.2088 13.8344 82.0322 13.5374 81.9787C13.2296 81.9331 12.9285 82.0196 12.6341 82.2382C12.3932 82.4169 12.2334 82.6435 12.1547 82.9178C12.0773 83.1827 12.1 83.4482 12.2227 83.7141L11.3474 84.3637C11.0727 83.837 11.014 83.3161 11.1712 82.8008C11.3285 82.2856 11.64 81.8552 12.1057 81.5095C12.368 81.3148 12.6441 81.1722 12.9338 81.0816C13.225 80.9818 13.5065 80.9472 13.7784 80.9779C14.1395 81.017 14.4462 81.1505 14.6984 81.3785C14.9559 81.6024 15.2138 81.8884 15.4721 82.2363L17.3137 84.7176L16.4304 85.3732L16.3053 85.2046C16.2218 85.0921 16.1447 84.9211 16.0738 84.6914L15.9197 84.7186C15.9529 85.0095 15.9235 85.2886 15.8315 85.5562C15.7124 85.9103 15.4307 86.2522 14.9864 86.582ZM14.6207 85.7201C14.8562 85.5453 15.0346 85.3382 15.1558 85.0988C15.2958 84.8288 15.3498 84.5604 15.3178 84.2936C15.3012 84.1482 15.2745 84.0227 15.2377 83.9172C15.1969 83.8063 15.137 83.664 15.0578 83.4903C15.0222 83.4088 15.0059 83.342 15.0088 83.29C15.0078 83.2327 15.0294 83.1835 15.0736 83.1424L14.9541 83.0318L14.1657 83.9158L13.7495 84.3618C13.4866 84.6564 13.3333 84.9197 13.2895 85.1515C13.2605 85.3473 13.3056 85.5256 13.4248 85.6861C13.5639 85.8735 13.7401 85.9711 13.9534 85.9788C14.168 85.9772 14.3905 85.891 14.6207 85.7201ZM20.2699 82.6604C19.7078 83.0776 19.1374 83.2935 18.5587 83.3079C17.9813 83.313 17.4704 83.0944 17.0259 82.6522L17.9172 81.9907C18.1762 82.2053 18.4583 82.3114 18.7637 82.3089C19.0744 82.3025 19.3957 82.1761 19.7276 81.9297C20.0006 81.7271 20.1823 81.5133 20.2728 81.2884C20.3593 81.0582 20.331 80.8467 20.188 80.654C20.0767 80.5041 19.9384 80.4241 19.7731 80.4139C19.6039 80.3984 19.4238 80.4242 19.2328 80.4912C19.0418 80.5583 18.7979 80.6604 18.5012 80.7976C18.0962 80.9902 17.7562 81.1305 17.4811 81.2185C17.206 81.3064 16.9272 81.3224 16.6448 81.2663C16.3625 81.2102 16.11 81.0323 15.8875 80.7325C15.5736 80.3096 15.4912 79.8685 15.6401 79.4092C15.7891 78.95 16.1071 78.5396 16.5943 78.178C17.0975 77.8045 17.6151 77.6238 18.147 77.6358C18.675 77.6424 19.15 77.8461 19.572 78.2469L18.7449 78.8608C18.4939 78.6568 18.2291 78.5629 17.9503 78.5788C17.6716 78.5947 17.3983 78.702 17.1307 78.9007C16.8737 79.0914 16.7087 79.2886 16.6357 79.4922C16.5627 79.6959 16.5878 79.8807 16.7109 80.0466C16.8103 80.1804 16.9379 80.2517 17.0939 80.2605C17.2459 80.264 17.4073 80.2354 17.5783 80.1749C17.7546 80.1105 17.9892 80.007 18.2819 79.8645C18.6976 79.6639 19.0503 79.5183 19.3401 79.4278C19.6259 79.3318 19.9166 79.3153 20.2123 79.3781C20.5094 79.4316 20.7752 79.6163 21.0096 79.9321C21.3274 80.3604 21.4238 80.8202 21.2987 81.3116C21.1696 81.7976 20.8267 82.2472 20.2699 82.6604ZM24.2556 79.5652C23.9077 79.8235 23.5858 79.9379 23.2899 79.9084C22.9941 79.8789 22.7051 79.6741 22.423 79.294L20.4324 76.612L19.7418 77.1246L19.1935 76.3858L19.884 75.8733L18.6563 74.2191L19.5396 73.5635L20.7673 75.2177L21.6988 74.5263L22.2471 75.2651L21.3157 75.9564L23.1334 78.4056C23.2725 78.5929 23.4006 78.7096 23.5177 78.7555C23.6348 78.8014 23.7897 78.7529 23.9824 78.6098L24.4562 78.2582L25.0104 79.005L24.2556 79.5652ZM29.3505 75.7837L23.0927 70.9264L24.0884 70.1873L28.5012 73.6495C28.6858 73.7864 28.8219 73.8971 28.9095 73.9815C29.0024 74.062 29.0886 74.1557 29.1681 74.2628L29.2966 74.1674C29.2171 74.0604 29.1496 73.9527 29.0942 73.8444C29.0387 73.7361 28.9695 73.5758 28.8866 73.3634L26.8025 68.1729L27.8866 67.3683L32.2511 70.8662C32.4304 71.0071 32.5639 71.1197 32.6514 71.2042C32.739 71.2886 32.8225 71.3844 32.902 71.4914L33.0385 71.3901C32.959 71.2831 32.8936 71.1781 32.8421 71.0751C32.792 70.9629 32.7235 70.7979 32.6366 70.5801L30.6007 65.3539L31.5964 64.6148L34.4334 72.0111L33.1486 72.9647L28.8538 69.5272C28.6639 69.3609 28.4955 69.1787 28.3485 68.9806L28.22 69.076C28.375 69.2848 28.4979 69.5007 28.5888 69.7238L30.6353 74.8301L29.3505 75.7837ZM38.5607 69.0847C38.1271 69.4066 37.6682 69.5936 37.1839 69.6459C36.6957 69.6928 36.2287 69.6118 35.7831 69.4029C35.3335 69.1886 34.9478 68.8647 34.626 68.4311C34.324 68.0242 34.1229 67.5799 34.0226 67.098C33.9277 66.6122 33.9648 66.1364 34.1338 65.6706C34.3028 65.2047 34.6201 64.799 35.0859 64.4533C35.482 64.1593 35.9096 63.9748 36.3686 63.8997C36.833 63.8207 37.2941 63.877 37.7518 64.0686C38.2056 64.2549 38.6132 64.5916 38.9748 65.0788L39.1536 65.3197L36.1343 67.5606C35.872 67.7553 35.6787 67.8863 35.5544 67.9537L35.6176 68.106C35.6737 68.081 35.7217 68.0785 35.7616 68.0987C35.8029 68.1096 35.8561 68.1365 35.9212 68.1795C35.9637 68.2144 36.0335 68.2581 36.1306 68.3106C36.4403 68.5041 36.7618 68.6017 37.0951 68.6034C37.4285 68.6051 37.7316 68.5046 38.0046 68.302C38.2884 68.0914 38.4783 67.8383 38.5745 67.5428C38.6666 67.2419 38.6728 66.9426 38.5929 66.6449L39.5164 65.9595C39.7082 66.5311 39.732 67.0946 39.5879 67.6499C39.4492 68.2012 39.1068 68.6795 38.5607 69.0847ZM35.2555 67.3162C35.2947 67.2124 35.3385 67.1259 35.3868 67.0568C35.4352 66.9878 35.4995 66.9234 35.5798 66.8638L37.2741 65.6063C37.3651 65.5387 37.4507 65.4918 37.5308 65.4655C37.6163 65.4353 37.7171 65.4145 37.8331 65.4031L37.836 65.2391C37.7639 65.2427 37.712 65.2398 37.68 65.2303C37.6441 65.2154 37.6049 65.1906 37.5624 65.1557C37.496 65.0887 37.3937 65.0235 37.2554 64.9602C36.9973 64.8362 36.7268 64.7962 36.4439 64.8401C36.1624 64.8747 35.9012 64.9814 35.6603 65.1602C35.4087 65.3469 35.2283 65.568 35.119 65.8235C35.0058 66.0736 34.9684 66.3421 35.007 66.6289C35.0184 66.745 35.0485 66.8638 35.0972 66.9854C35.1183 67.0362 35.1307 67.0809 35.1345 67.1196C35.1437 67.1543 35.1341 67.2029 35.1058 67.2654L35.2555 67.3162ZM43.6579 65.3016C43.2242 65.6234 42.7653 65.8105 42.281 65.8627C41.7928 65.9096 41.3259 65.8286 40.8802 65.6197C40.4306 65.4055 40.0449 65.0815 39.7231 64.6479C39.4211 64.2411 39.22 63.7967 39.1197 63.3149C39.0248 62.8291 39.0619 62.3532 39.2309 61.8874C39.3999 61.4216 39.7172 61.0158 40.183 60.6702C40.5791 60.3761 41.0067 60.1916 41.4658 60.1166C41.9302 60.0376 42.3912 60.0939 42.8489 60.2855C43.3027 60.4718 43.7103 60.8085 44.0719 61.2956L44.2507 61.5365L41.2314 63.7774C40.9691 63.9721 40.7758 64.1032 40.6515 64.1705L40.7147 64.3229C40.7708 64.2978 40.8188 64.2954 40.8587 64.3156C40.9 64.3265 40.9532 64.3534 41.0183 64.3964C41.0608 64.4313 41.1306 64.4749 41.2277 64.5274C41.5374 64.721 41.8589 64.8186 42.1922 64.8203C42.5256 64.8219 42.8287 64.7214 43.1018 64.5188C43.3855 64.3082 43.5754 64.0552 43.6716 63.7596C43.7637 63.4588 43.7699 63.1595 43.6901 62.8617L44.6135 62.1763C44.8053 62.748 44.8292 63.3114 44.685 63.8667C44.5463 64.418 44.2039 64.8963 43.6579 65.3016ZM40.3527 63.533C40.3918 63.4292 40.4356 63.3428 40.484 63.2737C40.5323 63.2046 40.5966 63.1403 40.6769 63.0807L42.3712 61.8231C42.4622 61.7556 42.5478 61.7087 42.6279 61.6824C42.7134 61.6522 42.8142 61.6313 42.9303 61.6199L42.9331 61.4559C42.8611 61.4596 42.8091 61.4566 42.7771 61.4471C42.7412 61.4323 42.702 61.4074 42.6595 61.3726C42.5932 61.3056 42.4908 61.2404 42.3525 61.177C42.0944 61.0531 41.8239 61.013 41.5411 61.057C41.2595 61.0916 40.9983 61.1982 40.7574 61.377C40.5058 61.5638 40.3254 61.7849 40.2161 62.0403C40.1029 62.2904 40.0655 62.5589 40.1041 62.8458C40.1155 62.9619 40.1456 63.0807 40.1943 63.2022C40.2154 63.253 40.2278 63.2978 40.2316 63.3364C40.2408 63.3712 40.2312 63.4198 40.2029 63.4823L40.3527 63.533ZM46.6578 62.938L42.1104 56.8112L42.9937 56.1556L44.9486 58.7894C45.0439 58.9179 45.124 59.0369 45.1888 59.1466C45.2589 59.2523 45.3249 59.3859 45.3868 59.5476L45.5189 59.5242C45.5523 59.2337 45.5856 58.9932 45.6185 58.8027L46.0202 56.4747L47.1845 55.6105L46.6255 58.6158C46.5992 58.793 46.5317 58.9593 46.423 59.1148L46.5064 59.2272C46.6933 59.1881 46.8819 59.1851 47.0724 59.218L50.6728 59.958L49.5406 60.7984L46.6377 60.1758C46.5817 60.1676 46.4245 60.1348 46.1661 60.0775C46.1209 60.0613 46.0749 60.0497 46.0283 60.0428C45.9777 60.0305 45.9271 60.0183 45.8765 60.006L45.8099 60.1177C45.9547 60.2344 46.0715 60.347 46.1602 60.4555C46.2504 60.5546 46.3491 60.6764 46.4564 60.8209L47.5411 62.2824L46.6578 62.938Z" fill="white" fill-opacity="0.65"/>
<path d="M51.7988 51.6499L57.3948 52.4779L58.2228 46.882" stroke="white" stroke-opacity="0.65"/>
<path d="M-23.6623 228.504C-25.6373 225.844 -25.0812 222.086 -22.4203 220.111L-12.7844 212.959C-10.1236 210.984 -6.36549 211.54 -4.39055 214.201L7.80446 230.631L-11.4673 244.935L-23.6623 228.504Z" fill="#7DACF5"/>
<path d="M-23.9143 174.473C-25.8892 171.812 -25.3332 168.054 -22.6723 166.079L-13.0364 158.927C-10.3755 156.952 -6.61744 157.508 -4.6425 160.169L33.5006 211.56L14.2288 225.864L-23.9143 174.473Z" fill="#81CCCE"/>
<path d="M27.7283 190.361C25.7533 187.7 26.3094 183.942 28.9703 181.967L38.6062 174.815C41.2671 172.84 45.0251 173.396 47.0001 176.057L59.1951 192.488L39.9233 206.792L27.7283 190.361Z" fill="#8B70D3"/>
<path d="M62.5681 183.609C60.5932 180.948 61.1493 177.19 63.8101 175.215L73.446 168.063C76.1069 166.088 79.865 166.644 81.8399 169.305L84.8918 173.417L65.62 187.721L62.5681 183.609Z" fill="#3CE17D"/>
<path d="M69.4548 139.195C67.4799 136.534 68.036 132.776 70.6969 130.801L80.3327 123.649C82.9936 121.674 86.7517 122.23 88.7266 124.891L110.587 154.344L91.3155 168.648L69.4548 139.195Z" fill="#F29F7B"/>
<path d="M87.3396 109.601C85.3647 106.94 85.9207 103.182 88.5816 101.207L98.2175 94.0554C100.878 92.0804 104.636 92.6365 106.611 95.2974L136.282 135.273L117.01 149.577L87.3396 109.601Z" fill="#7DACF5"/>
<path d="M4.56359 253.563L0.925659 248.662L2.22329 247.699L5.7062 250.324C5.8571 250.438 5.98617 250.545 6.09341 250.644C6.20064 250.744 6.31624 250.878 6.44021 251.045L6.54299 250.968C6.41903 250.801 6.32111 250.651 6.24924 250.519C6.18165 250.383 6.11841 250.231 6.05952 250.062L4.55518 245.968L5.85281 245.005L9.49074 249.906L8.73272 250.469L6.07698 246.891C5.91487 246.672 5.7529 246.427 5.59105 246.156L5.47873 246.219C5.61709 246.495 5.73728 246.778 5.8393 247.067L7.40296 251.456L6.65779 252.009L2.89714 249.251C2.67715 249.089 2.44561 248.889 2.20253 248.651L2.10928 248.74C2.31824 248.977 2.50377 249.204 2.66588 249.423L5.32161 253.001L4.56359 253.563ZM12.6383 247.69C12.1286 248.068 11.614 248.274 11.0944 248.308C10.5758 248.334 10.0895 248.22 9.63525 247.966C9.17787 247.708 8.77753 247.347 8.43424 246.885C8.08777 246.418 7.85874 245.93 7.74715 245.422C7.63556 244.914 7.66897 244.417 7.8474 243.933C8.03011 243.445 8.37628 243.012 8.88591 242.634C9.39554 242.256 9.90804 242.051 10.4234 242.021C10.943 241.987 11.43 242.097 11.8842 242.351C12.3426 242.602 12.7451 242.961 13.0916 243.428C13.4349 243.89 13.6618 244.38 13.7723 244.895C13.8839 245.404 13.8499 245.904 13.6704 246.396C13.4919 246.88 13.1479 247.311 12.6383 247.69ZM12.1329 247.009C12.4583 246.767 12.6795 246.483 12.7963 246.158C12.9143 245.824 12.9299 245.474 12.8432 245.107C12.7608 244.736 12.5845 244.369 12.3143 244.005C12.0441 243.641 11.7452 243.368 11.4176 243.186C11.0911 242.997 10.7528 242.912 10.4028 242.933C10.054 242.946 9.71679 243.073 9.39131 243.315C9.06583 243.557 8.84412 243.844 8.72619 244.177C8.60936 244.503 8.59429 244.85 8.68099 245.217C8.7645 245.58 8.94135 245.944 9.21154 246.308C9.48172 246.672 9.78007 246.948 10.1066 247.138C10.4331 247.327 10.7708 247.415 11.1197 247.402C11.4697 247.381 11.8074 247.25 12.1329 247.009ZM15.6737 245.317L12.0358 240.416L12.993 239.705L17.2326 241.699C17.3646 241.761 17.4816 241.82 17.5838 241.877C17.6859 241.934 17.8086 242.019 17.9521 242.132L18.0406 242.036C17.8856 241.872 17.7271 241.681 17.565 241.463L15.1 238.141L15.8516 237.584L19.4895 242.485L18.5388 243.191L14.2767 241.193C14.1384 241.123 14.0235 241.062 13.932 241.011C13.8374 240.955 13.7199 240.873 13.5797 240.764L13.496 240.866C13.6509 241.03 13.8094 241.221 13.9715 241.44L16.4317 244.755L15.6737 245.317Z" fill="white" fill-opacity="0.6"/>
<path d="M33.9487 231.754L33.1907 232.316L30.0582 228.096L28.4843 229.264L27.9789 228.583L31.8911 225.679L32.3965 226.36L30.8162 227.533L33.9487 231.754ZM37.9876 228.875C37.3452 229.352 36.7501 229.548 36.2022 229.463C35.6512 229.374 35.1643 229.045 34.7415 228.475L32.3909 225.308L33.149 224.746L35.4996 227.913C36.0622 228.671 36.7246 228.767 37.4869 228.201C37.8809 227.908 38.0948 227.597 38.1284 227.266C38.1632 226.929 38.0471 226.58 37.7801 226.22L35.4295 223.053L36.1875 222.49L38.5381 225.657C38.9577 226.223 39.1303 226.782 39.0561 227.335C38.9819 227.888 38.6257 228.402 37.9876 228.875ZM43.9472 224.333L40.7224 226.726L37.0845 221.825L40.3093 219.431L40.8147 220.112L38.3479 221.943L39.4064 223.369L41.5969 221.743L42.0976 222.418L39.907 224.044L40.975 225.482L43.4418 223.652L43.9472 224.333Z" fill="white" fill-opacity="0.6"/>
<path d="M58.4338 213.58L53.4276 209.694L54.2242 209.103L57.7544 211.872C57.9021 211.982 58.011 212.07 58.081 212.138C58.1554 212.202 58.2243 212.277 58.2879 212.363L58.3907 212.287C58.3271 212.201 58.2731 212.115 58.2288 212.028C58.1844 211.942 58.1291 211.813 58.0627 211.644L56.3955 207.491L57.2627 206.847L60.7543 209.646C60.8978 209.759 61.0045 209.849 61.0746 209.916C61.1446 209.984 61.2115 210.06 61.275 210.146L61.3842 210.065C61.3207 209.979 61.2683 209.895 61.2271 209.813C61.187 209.723 61.1322 209.591 61.0627 209.417L59.434 205.236L60.2305 204.645L62.5002 210.562L61.4723 211.325L58.0365 208.575C57.8846 208.442 57.7498 208.296 57.6322 208.137L57.5295 208.214C57.6534 208.381 57.7518 208.553 57.8245 208.732L59.4617 212.817L58.4338 213.58ZM67.67 206.725L64.4452 209.118L60.8072 204.217L64.032 201.823L64.5374 202.504L62.0707 204.335L63.1291 205.761L65.3197 204.135L65.8203 204.81L63.6298 206.436L64.6978 207.875L67.1646 206.044L67.67 206.725ZM68.4162 206.171L64.7783 201.269L66.1723 200.235C66.9903 199.628 67.7766 199.376 68.5313 199.48C69.2828 199.58 69.951 200.024 70.5358 200.812C71.1175 201.595 71.3452 202.363 71.2187 203.114C71.0934 203.858 70.6218 204.534 69.8038 205.141L68.4162 206.171ZM69.292 204.465C69.8487 204.052 70.1886 203.597 70.3116 203.1C70.4357 202.596 70.2578 202.021 69.7778 201.374C69.3201 200.758 68.8279 200.426 68.3012 200.378C67.7713 200.326 67.2258 200.509 66.6648 200.925L66.0417 201.388L68.6688 204.927L69.292 204.465Z" fill="white" fill-opacity="0.6"/>
<path d="M86.862 192.48L86.104 193.043L82.9714 188.822L81.3976 189.991L80.8922 189.31L84.8044 186.406L85.3098 187.087L83.7295 188.26L86.862 192.48ZM89.7451 190.34L88.9871 190.903L85.3492 186.002L86.1072 185.439L87.6663 187.54L89.9468 185.847L88.3877 183.746L89.1457 183.184L92.7837 188.085L92.0256 188.648L90.4522 186.528L88.1717 188.221L89.7451 190.34ZM95.6498 186.078C95.0074 186.554 94.4123 186.75 93.8644 186.665C93.3134 186.576 92.8265 186.247 92.4037 185.677L90.0532 182.51L90.8112 181.948L93.1618 185.115C93.7244 185.873 94.3868 185.969 95.1491 185.403C95.5432 185.111 95.757 184.799 95.7906 184.469C95.8254 184.131 95.7093 183.782 95.4423 183.422L93.0917 180.255L93.8497 179.692L96.2003 182.859C96.6199 183.425 96.7925 183.984 96.7183 184.537C96.6441 185.09 96.2879 185.604 95.6498 186.078Z" fill="white" fill-opacity="0.6"/>
<path d="M110.902 174.639L110.144 175.201L106.506 170.3L109.731 167.906L110.236 168.587L107.769 170.418L108.828 171.844L111.018 170.218L111.519 170.893L109.329 172.519L110.902 174.639ZM114.015 172.328L110.377 167.427L112.349 165.963C112.828 165.607 113.296 165.446 113.753 165.479C114.206 165.508 114.609 165.76 114.962 166.235C115.242 166.612 115.373 167 115.356 167.397C115.331 167.748 115.2 167.992 114.962 168.128L114.985 168.24C115.051 168.212 115.112 168.21 115.17 168.233C115.228 168.25 115.298 168.281 115.379 168.327L117.631 169.644L116.822 170.245L114.498 168.832L113.271 169.742L114.773 171.766L114.015 172.328ZM113.896 168.262C114.187 168.046 114.36 167.814 114.416 167.567C114.476 167.317 114.412 167.065 114.225 166.813C114.043 166.568 113.824 166.439 113.567 166.424C113.315 166.405 113.043 166.504 112.751 166.72L111.64 167.545L112.784 169.087L113.896 168.262ZM119.101 168.553L118.343 169.116L114.705 164.214L115.463 163.651L119.101 168.553Z" fill="white" fill-opacity="0.6"/>
<path d="M134.792 157.027C134.454 157.278 134.095 157.461 133.716 157.577C133.337 157.685 132.957 157.695 132.573 157.608C132.186 157.516 131.833 157.3 131.514 156.959L132.285 156.387C132.612 156.676 132.953 156.804 133.308 156.773C133.661 156.737 133.997 156.6 134.318 156.362C134.631 156.13 134.827 155.885 134.908 155.626C134.989 155.36 134.936 155.1 134.748 154.847C134.609 154.659 134.442 154.55 134.248 154.522C134.05 154.489 133.849 154.508 133.644 154.581C133.436 154.649 133.162 154.759 132.823 154.911C132.411 155.098 132.066 155.234 131.791 155.319C131.512 155.4 131.23 155.41 130.946 155.348C130.658 155.283 130.398 155.094 130.166 154.781C129.95 154.49 129.835 154.187 129.82 153.872C129.806 153.558 129.885 153.253 130.059 152.958C130.229 152.659 130.476 152.389 130.802 152.148C131.282 151.792 131.787 151.609 132.318 151.6C132.846 151.587 133.332 151.798 133.774 152.233L133.016 152.796C132.745 152.565 132.458 152.459 132.154 152.479C131.854 152.496 131.563 152.609 131.28 152.819C130.997 153.029 130.821 153.252 130.752 153.49C130.679 153.723 130.721 153.945 130.877 154.154C130.997 154.317 131.146 154.41 131.322 154.432C131.502 154.451 131.688 154.429 131.88 154.366C132.073 154.303 132.328 154.2 132.647 154.056C133.08 153.861 133.441 153.722 133.732 153.639C134.027 153.553 134.329 153.548 134.638 153.624C134.943 153.696 135.222 153.901 135.473 154.24C135.81 154.694 135.921 155.17 135.805 155.667C135.691 156.157 135.353 156.61 134.792 157.027ZM137.655 154.782L136.865 155.369L134.993 149.156L135.835 148.532L141.239 152.122L140.456 152.704L139.257 151.88L137.214 153.396L137.655 154.782ZM136.949 152.556L138.529 151.384L136.557 150.028C136.426 149.932 136.318 149.85 136.233 149.78C136.153 149.707 136.081 149.628 136.017 149.542L135.914 149.618C135.978 149.704 136.031 149.798 136.073 149.899C136.119 149.998 136.169 150.123 136.223 150.276L136.949 152.556ZM143.143 150.709L142.385 151.272L139.252 147.051L137.678 148.219L137.173 147.538L141.085 144.635L141.591 145.316L140.01 146.489L143.143 150.709Z" fill="white" fill-opacity="0.6"/>
<path d="M-20.8552 325.376C-22.6539 326.711 -24.4686 327.072 -26.2991 326.458C-28.1168 325.834 -29.8171 324.456 -31.4001 322.323C-33.2119 319.882 -34.2181 317.6 -34.4187 315.478C-34.6288 313.342 -33.8281 311.602 -32.0166 310.258C-30.7318 309.304 -29.4241 308.891 -28.0935 309.02C-26.7596 309.125 -25.5241 309.703 -24.3869 310.752L-26.0636 311.996C-26.8637 311.375 -27.6556 311.046 -28.4395 311.01C-29.2233 310.974 -30.0199 311.256 -30.8293 311.857C-31.9086 312.658 -32.4495 313.647 -32.4522 314.825C-32.4516 315.98 -32.0277 317.29 -31.1806 318.753C-30.9078 319.228 -30.6534 319.866 -30.4174 320.667L-30.086 320.631C-30.2657 319.449 -30.1647 318.457 -29.7831 317.656C-29.3982 316.832 -28.8139 316.13 -28.0302 315.548C-27.1051 314.861 -26.1431 314.466 -25.1442 314.362C-24.1324 314.249 -23.162 314.416 -22.2331 314.862C-21.3041 315.308 -20.4963 315.994 -19.8097 316.919C-19.1231 317.844 -18.6977 318.833 -18.5333 319.887C-18.369 320.94 -18.4845 321.953 -18.8797 322.923C-19.2845 323.881 -19.943 324.699 -20.8552 325.376ZM-22.0617 323.791C-21.4579 323.343 -21.0408 322.804 -20.8104 322.175C-20.5801 321.545 -20.5304 320.901 -20.6615 320.241C-20.7893 319.559 -21.0773 318.916 -21.5255 318.312C-22.2598 317.322 -23.1208 316.726 -24.1086 316.523C-25.0835 316.31 -26.0271 316.542 -26.9393 317.219C-27.5689 317.686 -28.0357 318.252 -28.3398 318.916C-28.6439 319.58 -28.7578 320.272 -28.6814 320.993C-28.5922 321.704 -28.3139 322.374 -27.8467 323.003C-27.3794 323.633 -26.8185 324.093 -26.1639 324.385C-25.5061 324.654 -24.8217 324.743 -24.1109 324.654C-23.3872 324.555 -22.7041 324.268 -22.0617 323.791ZM-13.5387 319.946C-13.8599 320.184 -14.2172 320.28 -14.6106 320.233C-15.0135 320.173 -15.3341 319.983 -15.5725 319.662C-15.8014 319.353 -15.8813 319.004 -15.8121 318.614C-15.7429 318.224 -15.5478 317.91 -15.2266 317.672C-14.9311 317.452 -14.5883 317.377 -14.1982 317.446C-13.8177 317.503 -13.5178 317.678 -13.2985 317.974C-13.0601 318.295 -12.9643 318.652 -13.011 319.046C-13.0673 319.426 -13.2432 319.726 -13.5387 319.946ZM-11.2059 317.915L-12.3789 316.335L-10.5659 308.952C-10.1608 307.296 -9.98263 305.899 -10.0313 304.759C-10.0896 303.607 -10.462 302.568 -11.1486 301.643C-11.8065 300.757 -12.548 300.241 -13.3728 300.096C-14.2073 299.938 -15.0677 300.189 -15.9542 300.847C-16.9178 301.562 -17.4501 302.415 -17.5511 303.407C-17.6616 304.385 -17.3262 305.481 -16.5451 306.695L-18.3181 308.011C-19.4077 306.409 -19.8542 304.827 -19.6576 303.266C-19.461 301.706 -18.6239 300.377 -17.1464 299.281C-16.2471 298.613 -15.3282 298.2 -14.3898 298.041C-13.4514 297.883 -12.5575 297.987 -11.7081 298.353C-10.8587 298.718 -10.1146 299.332 -9.47568 300.193C-8.59838 301.375 -8.12187 302.715 -8.04617 304.213C-7.97046 305.711 -8.1629 307.398 -8.62349 309.274L-9.50573 312.917C-9.56785 313.183 -9.64283 313.457 -9.73065 313.742C-9.80563 314.017 -9.92246 314.342 -10.0811 314.719L-9.79387 314.865C-9.5585 314.511 -9.34591 314.233 -9.1561 314.033C-8.97583 313.819 -8.76364 313.622 -8.51953 313.441L-2.08275 308.663L-0.895539 310.263L-11.2059 317.915ZM5.60041 305.74C4.59828 306.484 3.56874 306.949 2.51179 307.136C1.46769 307.313 0.476185 307.212 -0.46273 306.833C-1.3888 306.444 -2.18082 305.807 -2.83879 304.92C-3.48723 304.047 -3.81051 303.101 -3.80862 302.084C-3.81626 301.053 -3.44524 300.13 -2.69555 299.315L-2.8672 299.083C-3.65303 299.447 -4.43415 299.509 -5.21055 299.268C-5.99649 299.015 -6.63263 298.561 -7.11896 297.905C-7.69111 297.134 -8.01022 296.315 -8.07628 295.448C-8.13903 294.558 -7.9539 293.693 -7.5209 292.854C-7.08789 292.014 -6.44741 291.28 -5.59945 290.65C-4.75149 290.021 -3.86308 289.621 -2.93421 289.449C-2.00534 289.278 -1.13052 289.356 -0.309747 289.683C0.514338 289.988 1.21246 290.526 1.78461 291.297C2.27094 291.952 2.51521 292.697 2.51743 293.533C2.5325 294.358 2.25367 295.083 1.68094 295.708L1.85259 295.939C2.85021 295.458 3.84106 295.37 4.82515 295.675C5.79969 295.968 6.61119 296.552 7.25962 297.425C7.9176 298.312 8.29206 299.259 8.38302 300.268C8.48683 301.267 8.29633 302.245 7.81153 303.202C7.33959 304.151 6.60255 304.996 5.60041 305.74ZM-0.950721 296.914C-0.102762 296.284 0.404673 295.599 0.571584 294.857C0.741807 294.093 0.559915 293.352 0.025907 292.632C-0.498565 291.926 -1.16702 291.535 -1.97946 291.461C-2.7919 291.386 -3.60282 291.649 -4.41224 292.25C-5.22165 292.851 -5.70836 293.551 -5.87236 294.35C-6.03636 295.149 -5.85612 295.902 -5.33165 296.609C-4.79764 297.328 -4.1468 297.722 -3.37913 297.79C-2.60815 297.835 -1.79868 297.543 -0.950721 296.914ZM4.4132 304.141C5.37679 303.425 5.96979 302.587 6.19221 301.625C6.41793 300.64 6.18274 299.679 5.48662 298.741C4.83818 297.868 4.02298 297.387 3.041 297.299C2.0495 297.198 1.05268 297.519 0.050544 298.263C-0.951589 299.007 -1.5479 299.868 -1.7384 300.846C-1.93843 301.811 -1.71423 302.731 -1.06579 303.604C-0.369671 304.542 0.475797 305.051 1.47062 305.129C2.46875 305.185 3.44961 304.856 4.4132 304.141ZM12.3692 300.417L1.45538 285.713L3.22839 284.397L8.27762 291.2L8.58597 290.971C8.45247 290.791 8.3799 290.586 8.36825 290.356C8.35991 290.103 8.37251 289.825 8.40603 289.521L9.33755 279.863L11.6116 278.175L10.3137 290.077L22.8723 292.622L20.5211 294.367L10.4658 292.296C10.3986 292.286 10.3091 292.273 10.1972 292.256C10.0981 292.23 9.97187 292.194 9.8185 292.149C9.45745 292.038 9.05951 291.945 8.62468 291.869L8.56507 292.272C8.81129 292.308 9.00612 292.383 9.14955 292.496C9.28346 292.596 9.48868 292.832 9.76522 293.204L14.1422 299.102L12.3692 300.417Z" fill="white"/>
<path opacity="0.3" d="M-17.5103 343.12L-21.1482 338.219L-20.0883 337.432L-16.3019 340.171C-16.1298 340.295 -15.9986 340.401 -15.9083 340.486C-15.8138 340.569 -15.703 340.696 -15.5758 340.867L-15.473 340.791C-15.6002 340.62 -15.6917 340.478 -15.7477 340.367C-15.7994 340.253 -15.86 340.095 -15.9294 339.894L-17.4545 335.477L-16.3881 334.685L-12.7502 339.587L-13.3412 340.026L-16.1543 336.235C-16.2973 336.043 -16.4508 335.818 -16.6149 335.561L-16.7272 335.625C-16.6036 335.872 -16.4962 336.137 -16.4048 336.421L-14.838 341.137L-15.4225 341.57L-19.4947 338.715C-19.7052 338.565 -19.9261 338.384 -20.1576 338.171L-20.2444 338.255C-20.0461 338.486 -19.8754 338.699 -19.7324 338.891L-16.9193 342.681L-17.5103 343.12ZM-9.85404 337.537C-10.3465 337.903 -10.8483 338.099 -11.3594 338.126C-11.8705 338.154 -12.3531 338.04 -12.8073 337.786C-13.2604 337.525 -13.657 337.165 -13.9971 336.707C-14.3373 336.248 -14.5652 335.767 -14.6811 335.262C-14.7927 334.753 -14.7614 334.259 -14.5873 333.777C-14.4132 333.296 -14.0798 332.873 -13.5873 332.507C-13.0905 332.138 -12.5866 331.94 -12.0755 331.913C-11.5602 331.883 -11.0775 331.996 -10.6276 332.253C-10.1766 332.503 -9.77944 332.859 -9.43615 333.321C-9.09286 333.784 -8.86542 334.269 -8.75383 334.778C-8.63795 335.283 -8.66923 335.778 -8.84765 336.262C-9.02179 336.743 -9.35726 337.168 -9.85404 337.537ZM-10.2498 337.004C-9.89004 336.737 -9.64582 336.426 -9.51711 336.071C-9.38729 335.709 -9.3694 335.331 -9.46343 334.936C-9.55317 334.537 -9.74108 334.146 -10.0272 333.76C-10.3132 333.375 -10.6323 333.083 -10.9844 332.887C-11.3354 332.682 -11.7013 332.592 -12.0823 332.615C-12.4621 332.632 -12.8319 332.773 -13.1916 333.04C-13.547 333.304 -13.7875 333.615 -13.9131 333.974C-14.0418 334.329 -14.0613 334.705 -13.9715 335.104C-13.8807 335.494 -13.6922 335.883 -13.4061 336.268C-13.1201 336.653 -12.8015 336.948 -12.4506 337.153C-12.0953 337.354 -11.7277 337.447 -11.3479 337.43C-10.9713 337.41 -10.6052 337.268 -10.2498 337.004ZM-7.03956 335.348L-10.6775 330.447L-9.81668 329.808L-5.19768 332.098C-4.94868 332.219 -4.71633 332.362 -4.50062 332.528L-4.41214 332.432C-4.56913 332.256 -4.72232 332.068 -4.87172 331.866L-7.61327 328.173L-7.0287 327.739L-3.39077 332.64L-4.25157 333.279L-8.87058 330.989C-9.00889 330.919 -9.12538 330.856 -9.22004 330.8C-9.31469 330.744 -9.42524 330.667 -9.55168 330.568L-9.64016 330.663C-9.48317 330.839 -9.32839 331.03 -9.17581 331.235L-6.44856 334.91L-7.03956 335.348ZM-0.79831 330.716L-1.38931 331.155L-4.6315 326.786L-6.28888 328.017L-6.68461 327.483L-2.77244 324.58L-2.3767 325.113L-4.0405 326.348L-0.79831 330.716ZM1.79515 328.791L1.20415 329.23L-2.43378 324.328L-1.84278 323.89L-0.23122 326.061L2.22272 324.24L0.611161 322.068L1.20216 321.63L4.84009 326.531L4.24909 326.97L2.61369 324.766L0.15975 326.588L1.79515 328.791ZM8.39002 323.896L5.60203 325.966L1.9641 321.064L2.5551 320.626L5.79729 324.994L7.99428 323.363L8.39002 323.896ZM9.34161 323.19L7.94938 321.314L3.86644 319.652L4.5538 319.142L7.25697 320.274C7.44006 320.351 7.5667 320.409 7.63689 320.45C7.70709 320.491 7.78033 320.563 7.85662 320.666L7.9594 320.59C7.88311 320.487 7.83398 320.394 7.81199 320.31C7.79112 320.22 7.77154 320.081 7.75327 319.896L7.46384 316.982L8.13835 316.482L8.56607 320.857L9.95831 322.732L9.34161 323.19ZM13.7812 319.895L13.1838 320.338L11.351 314.097L12.0191 313.601L17.4621 317.163L16.8647 317.606L15.5427 316.725L13.32 318.374L13.7812 319.895ZM13.1282 317.7L14.9526 316.346L12.6483 314.798C12.5271 314.715 12.4288 314.646 12.3533 314.589C12.2822 314.529 12.2132 314.453 12.1464 314.364L12.0437 314.44C12.1104 314.53 12.1601 314.619 12.1927 314.708C12.2296 314.793 12.2701 314.906 12.3142 315.046L13.1282 317.7ZM19.7454 315.568C19.2486 315.937 18.7468 316.133 18.24 316.157C17.7301 316.177 17.2501 316.058 16.8002 315.801C16.3503 315.544 15.9553 315.186 15.6152 314.728C15.2751 314.27 15.0471 313.788 14.9312 313.283C14.8153 312.778 14.8423 312.286 15.0122 311.808C15.182 311.33 15.5153 310.907 16.0121 310.538C16.3676 310.274 16.729 310.099 17.0964 310.012C17.4637 309.925 17.8125 309.926 18.1428 310.013C18.473 310.1 18.7671 310.263 19.0251 310.503L18.3827 310.98C18.1194 310.751 17.8089 310.646 17.4515 310.665C17.0952 310.677 16.7414 310.814 16.3902 311.074C16.0348 311.338 15.7964 311.648 15.6752 312.004C15.5508 312.355 15.5356 312.728 15.6296 313.123C15.7279 313.515 15.9201 313.904 16.2062 314.289C16.4954 314.679 16.8134 314.978 17.1601 315.185C17.5111 315.39 17.8743 315.485 18.2499 315.472C18.6222 315.455 18.9861 315.315 19.3416 315.051C19.7013 314.784 19.9333 314.479 20.0374 314.136C20.1426 313.785 20.1012 313.421 19.9133 313.042L20.5556 312.566C20.8346 313.102 20.9039 313.639 20.7636 314.175C20.6244 314.703 20.285 315.167 19.7454 315.568ZM23.9456 312.351L23.3546 312.789L20.1124 308.421L18.455 309.651L18.0593 309.118L21.9715 306.214L22.3672 306.748L20.7034 307.983L23.9456 312.351ZM26.5391 310.426L25.9481 310.865L22.3101 305.963L22.9011 305.524L26.5391 310.426ZM28.6909 308.829L23.2479 305.267L23.8453 304.824L28.0569 307.626C28.1888 307.714 28.2919 307.79 28.3662 307.854C28.4374 307.914 28.5016 307.983 28.5588 308.06L28.6616 307.984C28.6043 307.907 28.5573 307.825 28.5204 307.74C28.4803 307.65 28.4372 307.529 28.391 307.378L26.9288 302.535L27.5262 302.092L29.359 308.333L28.6909 308.829ZM34.6738 304.388L31.5068 306.739L27.8688 301.837L31.0358 299.487L31.4316 300.02L28.8556 301.932L30.0762 303.576L32.3502 301.889L32.7412 302.415L30.4671 304.103L31.702 305.767L34.278 303.855L34.6738 304.388Z" fill="white"/>
<path d="M51.8581 271.108L50.6852 269.527L52.4981 262.144C52.9032 260.489 53.0814 259.091 53.0327 257.952C52.9745 256.799 52.6021 255.761 51.9155 254.836C51.2575 253.949 50.5161 253.433 49.6912 253.288C48.8568 253.131 47.9963 253.381 47.1098 254.039C46.1462 254.754 45.614 255.607 45.513 256.599C45.4025 257.578 45.7378 258.674 46.519 259.887L44.746 261.203C43.6564 259.601 43.2099 258.019 43.4065 256.459C43.6031 254.898 44.4401 253.569 45.9176 252.473C46.817 251.805 47.7359 251.392 48.6743 251.234C49.6127 251.075 50.5066 251.179 51.3559 251.545C52.2053 251.911 52.9495 252.524 53.5884 253.385C54.4657 254.567 54.9422 255.907 55.0179 257.405C55.0936 258.903 54.9011 260.59 54.4406 262.466L53.5583 266.11C53.4962 266.375 53.4212 266.65 53.3334 266.934C53.2584 267.209 53.1416 267.535 52.9829 267.912L53.2702 268.057C53.5055 267.703 53.7181 267.426 53.9079 267.225C54.0882 267.011 54.3004 266.814 54.5445 266.633L60.9813 261.855L62.1685 263.455L51.8581 271.108ZM68.708 258.87C67.0891 260.072 65.358 260.37 63.5146 259.766C61.6841 259.152 59.8438 257.599 57.9939 255.106C56.1534 252.627 55.2028 250.433 55.1419 248.526C55.0844 246.596 55.8458 245.044 57.4261 243.871C59.0449 242.67 60.7743 242.382 62.6144 243.009C64.445 243.623 66.29 245.183 68.1495 247.688C69.9804 250.155 70.9263 252.342 70.9871 254.25C71.048 256.157 70.2883 257.697 68.708 258.87ZM67.4822 257.299C68.51 256.537 68.9442 255.457 68.7848 254.061C68.6287 252.643 67.8212 250.951 66.3622 248.985C64.8841 246.993 63.4825 245.722 62.1572 245.172C60.8224 244.608 59.6347 244.713 58.594 245.485C57.5662 246.248 57.1367 247.334 57.3057 248.743C57.4875 250.142 58.3126 251.831 59.7812 253.81C61.2497 255.788 62.6337 257.062 63.9333 257.632C65.2457 258.192 66.4287 258.081 67.4822 257.299ZM80.2643 250.293C78.6454 251.495 76.9143 251.793 75.0709 251.189C73.2404 250.575 71.4001 249.022 69.5502 246.529C67.7097 244.049 66.7591 241.856 66.6982 239.948C66.6407 238.018 67.4021 236.467 68.9823 235.294C70.6012 234.093 72.3306 233.805 74.1707 234.432C76.0013 235.046 77.8463 236.606 79.7058 239.111C81.5367 241.578 82.4825 243.765 82.5434 245.672C82.6043 247.58 81.8446 249.12 80.2643 250.293ZM79.0385 248.722C80.0663 247.959 80.5005 246.88 80.3411 245.484C80.185 244.065 79.3775 242.373 77.9185 240.408C76.4404 238.416 75.0388 237.145 73.7135 236.595C72.3787 236.031 71.191 236.136 70.1503 236.908C69.1225 237.671 68.693 238.757 68.862 240.166C69.0438 241.565 69.8689 243.254 71.3375 245.232C72.806 247.211 74.19 248.485 75.4896 249.055C76.802 249.615 77.985 249.504 79.0385 248.722Z" fill="white"/>
<path opacity="0.3" d="M60.7807 285.011L57.1428 280.109L58.4918 279.108C59.3055 278.504 60.0875 278.256 60.838 278.363C61.5884 278.47 62.256 278.918 62.8409 279.706C63.4162 280.481 63.6428 281.242 63.5206 281.991C63.4028 282.736 62.937 283.41 62.1233 284.014L60.7807 285.011ZM61.7211 283.486C62.3121 283.047 62.6799 282.558 62.8245 282.019C62.9691 281.48 62.7775 280.855 62.2499 280.144C61.2931 278.855 60.1702 278.689 58.8811 279.646L58.1295 280.204L60.976 284.039L61.7211 283.486ZM65.2267 281.711L64.6293 282.154L62.7965 275.913L63.4646 275.417L68.9076 278.979L68.3102 279.422L66.9882 278.54L64.7655 280.19L65.2267 281.711ZM64.5737 279.515L66.3981 278.161L64.0938 276.614C63.9726 276.531 63.8743 276.461 63.7988 276.404C63.7277 276.344 63.6587 276.269 63.592 276.179L63.4892 276.256C63.5559 276.346 63.6056 276.435 63.6382 276.524C63.6751 276.609 63.7156 276.722 63.7597 276.862L64.5737 279.515ZM69.8413 278.286L69.2503 278.724L65.6123 273.823L66.2033 273.384L69.8413 278.286ZM73.3935 275.649L70.6055 277.718L66.9676 272.817L67.5586 272.378L70.8008 276.747L72.9978 275.116L73.3935 275.649ZM74.3451 274.943L72.9529 273.067L68.87 271.405L69.5573 270.895L72.2605 272.027C72.4436 272.103 72.5702 272.162 72.6404 272.203C72.7106 272.244 72.7839 272.316 72.8601 272.419L72.9629 272.342C72.8866 272.24 72.8375 272.147 72.8155 272.063C72.7946 271.972 72.7751 271.834 72.7568 271.649L72.4674 268.735L73.1419 268.234L73.5696 272.609L74.9618 274.485L74.3451 274.943ZM78.7847 271.648L78.1873 272.091L76.3545 265.85L77.0226 265.354L82.4656 268.916L81.8682 269.359L80.5462 268.477L78.3235 270.127L78.7847 271.648ZM78.1317 269.452L79.9561 268.098L77.6518 266.551C77.5306 266.468 77.4323 266.398 77.3568 266.341C77.2857 266.281 77.2167 266.206 77.15 266.116L77.0472 266.193C77.1139 266.283 77.1636 266.372 77.1962 266.461C77.2331 266.546 77.2737 266.659 77.3178 266.799L78.1317 269.452ZM84.7489 267.321C84.2522 267.689 83.7504 267.886 83.2436 267.91C82.7336 267.93 82.2537 267.811 81.8037 267.554C81.3538 267.297 80.9588 266.939 80.6187 266.481C80.2786 266.023 80.0506 265.541 79.9347 265.036C79.8188 264.531 79.8458 264.039 80.0157 263.561C80.1855 263.083 80.5189 262.659 81.0156 262.291C81.3711 262.027 81.7325 261.852 82.0999 261.765C82.4673 261.678 82.8161 261.678 83.1463 261.765C83.4765 261.852 83.7707 262.016 84.0287 262.256L83.3863 262.733C83.1229 262.503 82.8125 262.398 82.455 262.418C82.0987 262.43 81.7449 262.566 81.3938 262.827C81.0383 263.091 80.8 263.401 80.6787 263.756C80.5543 264.108 80.5391 264.481 80.6331 264.876C80.7314 265.268 80.9236 265.657 81.2097 266.042C81.4989 266.432 81.8169 266.731 82.1636 266.938C82.5146 267.143 82.8779 267.238 83.2534 267.225C83.6258 267.208 83.9897 267.067 84.3451 266.803C84.7049 266.536 84.9368 266.231 85.0409 265.889C85.1461 265.538 85.1047 265.174 84.9168 264.795L85.5592 264.318C85.8381 264.855 85.9074 265.392 85.7671 265.927C85.6279 266.456 85.2885 266.92 84.7489 267.321ZM88.9491 264.104L88.3581 264.542L85.1159 260.174L83.4586 261.404L83.0628 260.871L86.975 257.967L87.3707 258.5L85.7069 259.735L88.9491 264.104ZM91.5426 262.179L90.9516 262.617L87.3137 257.716L87.9047 257.277L91.5426 262.179ZM93.6945 260.582L88.2514 257.02L88.8488 256.576L93.0605 259.378C93.1923 259.467 93.2954 259.543 93.3697 259.607C93.4409 259.667 93.5051 259.736 93.5623 259.813L93.6651 259.737C93.6079 259.66 93.5608 259.578 93.5239 259.493C93.4838 259.403 93.4407 259.282 93.3945 259.13L91.9323 254.288L92.5297 253.844L94.3625 260.086L93.6945 260.582ZM99.6773 256.141L96.5103 258.492L92.8724 253.59L96.0394 251.24L96.4351 251.773L93.8591 253.685L95.0797 255.329L97.3538 253.641L97.7447 254.168L95.4707 255.856L96.7056 257.52L99.2816 255.608L99.6773 256.141Z" fill="white"/>
<path opacity="0.3" d="M23.0488 261.659L51.6564 300.203" stroke="white"/>
<path opacity="0.3" d="M88.4922 213.086L117.1 251.63" stroke="white"/>
<path d="M122.246 217.074L120.878 218.089L117.416 213.425L112.752 216.887L111.737 215.519L116.401 212.057L112.939 207.393L114.307 206.378L117.769 211.041L122.433 207.58L123.448 208.948L118.784 212.41L122.246 217.074ZM134.269 210.212C132.65 211.414 131.054 211.961 129.48 211.854C127.896 211.734 126.542 210.996 125.416 209.64L127.189 208.324C128.007 209.211 128.913 209.694 129.908 209.773C130.893 209.839 131.958 209.447 133.101 208.598C134.065 207.883 134.649 207.061 134.856 206.13C135.052 205.187 134.827 204.279 134.178 203.405C133.463 202.442 132.595 202.01 131.573 202.111C130.552 202.211 129.489 202.671 128.384 203.492L127.478 204.164L126.291 202.564L127.158 201.921C127.968 201.32 128.502 200.604 128.763 199.773C129.036 198.933 128.872 198.108 128.271 197.299C127.756 196.605 127.12 196.231 126.361 196.176C125.594 196.108 124.824 196.36 124.054 196.932C123.206 197.562 122.699 198.316 122.535 199.195C122.371 200.074 122.587 201.01 123.183 202.002L121.41 203.317C120.82 202.441 120.483 201.505 120.402 200.509C120.321 199.514 120.489 198.572 120.906 197.684C121.326 196.775 121.954 196.01 122.789 195.39C123.663 194.741 124.558 194.336 125.474 194.174C126.38 194 127.228 194.068 128.017 194.379C128.806 194.69 129.472 195.212 130.015 195.944C130.416 196.484 130.661 197.069 130.751 197.7C130.844 198.309 130.785 198.9 130.574 199.475C130.376 200.041 130.036 200.522 129.554 200.92L129.783 201.228C130.849 200.517 131.949 200.228 133.085 200.361C134.223 200.473 135.193 201.068 135.994 202.147C136.614 202.982 136.953 203.896 137.012 204.888C137.084 205.871 136.879 206.83 136.398 207.765C135.916 208.7 135.207 209.516 134.269 210.212ZM145.71 201.721C144.091 202.922 142.36 203.221 140.516 202.616C138.686 202.003 136.845 200.449 134.995 197.957C133.155 195.477 132.204 193.284 132.144 191.376C132.086 189.446 132.847 187.895 134.428 186.722C136.046 185.52 137.776 185.233 139.616 185.86C141.447 186.474 143.292 188.033 145.151 190.539C146.982 193.005 147.928 195.193 147.989 197.1C148.05 199.008 147.29 200.548 145.71 201.721ZM144.484 200.15C145.512 199.387 145.946 198.308 145.786 196.912C145.63 195.493 144.823 193.801 143.364 191.835C141.886 189.844 140.484 188.573 139.159 188.022C137.824 187.459 136.636 187.563 135.596 188.336C134.568 189.099 134.138 190.184 134.307 191.593C134.489 192.993 135.314 194.682 136.783 196.66C138.251 198.639 139.635 199.913 140.935 200.483C142.247 201.043 143.43 200.932 144.484 200.15ZM148.779 186.501C148.188 186.94 147.553 187.172 146.875 187.197C146.209 187.213 145.563 187.055 144.938 186.722C144.325 186.38 143.795 185.907 143.347 185.303C142.898 184.699 142.604 184.061 142.463 183.388C142.313 182.702 142.342 182.043 142.55 181.411C142.758 180.778 143.151 180.247 143.729 179.818C144.269 179.418 144.867 179.203 145.523 179.174C146.179 179.146 146.82 179.298 147.445 179.63C148.084 179.954 148.632 180.423 149.09 181.04C149.557 181.67 149.859 182.332 149.996 183.027C150.134 183.722 150.094 184.38 149.876 184.999C149.671 185.61 149.306 186.11 148.779 186.501ZM154.998 194.558L153.418 195.731L151.08 174.661L152.66 173.488L154.998 194.558ZM147.778 185.152C148.215 184.828 148.431 184.368 148.428 183.773C148.424 183.178 148.208 182.591 147.779 182.013C147.359 181.448 146.854 181.075 146.263 180.896C145.685 180.708 145.164 180.785 144.702 181.129C144.214 181.491 143.982 181.971 144.008 182.57C144.024 183.156 144.247 183.738 144.676 184.316C145.105 184.894 145.598 185.276 146.154 185.461C146.722 185.636 147.264 185.533 147.778 185.152ZM162.426 189.344C161.835 189.782 161.205 190.021 160.536 190.059C159.87 190.075 159.224 189.917 158.599 189.584C157.986 189.242 157.456 188.768 157.008 188.165C156.559 187.561 156.26 186.916 156.11 186.231C155.96 185.545 155.994 184.892 156.211 184.273C156.419 183.64 156.812 183.109 157.39 182.68C157.93 182.28 158.528 182.065 159.184 182.036C159.84 182.008 160.481 182.16 161.106 182.492C161.745 182.815 162.298 183.292 162.765 183.921C163.232 184.551 163.534 185.213 163.672 185.908C163.8 186.591 163.755 187.242 163.537 187.861C163.323 188.459 162.953 188.953 162.426 189.344ZM161.453 188.033C161.89 187.709 162.107 187.249 162.103 186.654C162.1 186.059 161.884 185.472 161.454 184.894C161.025 184.316 160.526 183.939 159.958 183.763C159.379 183.575 158.853 183.657 158.377 184.01C157.889 184.372 157.653 184.846 157.669 185.432C157.698 186.008 157.927 186.585 158.357 187.163C158.795 187.754 159.293 188.142 159.848 188.328C160.404 188.513 160.939 188.415 161.453 188.033Z" fill="white"/>
<path opacity="0.3" d="M128.4 234.924C127.89 235.303 127.374 235.506 126.851 235.536C126.33 235.558 125.845 235.442 125.399 235.189C124.949 234.932 124.557 234.579 124.223 234.129C123.889 233.679 123.665 233.202 123.549 232.697C123.437 232.189 123.467 231.692 123.638 231.206C123.81 230.713 124.151 230.277 124.66 229.899C125.191 229.505 125.728 229.306 126.27 229.302C126.813 229.291 127.315 229.45 127.778 229.777L127.116 230.268C126.801 230.077 126.463 229.993 126.101 230.015C125.74 230.038 125.385 230.178 125.038 230.436C124.657 230.718 124.407 231.047 124.286 231.422C124.167 231.79 124.157 232.169 124.255 232.561C124.358 232.95 124.539 233.32 124.8 233.671C125.073 234.039 125.387 234.328 125.741 234.537C126.095 234.745 126.468 234.844 126.858 234.833C127.253 234.819 127.634 234.676 128.003 234.402C128.345 234.148 128.586 233.846 128.726 233.497C128.866 233.141 128.89 232.784 128.798 232.427C128.769 232.316 128.733 232.214 128.689 232.119C128.646 232.025 128.605 231.943 128.566 231.872C128.536 231.815 128.51 231.761 128.486 231.712C128.468 231.66 128.461 231.615 128.466 231.577L128.332 231.558C128.311 231.646 128.278 231.717 128.232 231.772C128.182 231.821 128.079 231.905 127.92 232.023L127.233 232.533L126.842 232.006L128.596 230.705L130.498 233.268L129.958 233.668L129.358 232.859L129.255 232.935C129.341 233.051 129.385 233.187 129.389 233.344C129.389 233.496 129.354 233.659 129.282 233.831C129.2 234.025 129.082 234.219 128.927 234.413C128.773 234.608 128.597 234.778 128.4 234.924ZM131.151 232.783L127.513 227.882L129.337 226.528C129.821 226.168 130.289 226.007 130.741 226.043C131.195 226.072 131.591 226.316 131.931 226.774C132.211 227.151 132.339 227.538 132.314 227.934C132.288 228.266 132.183 228.5 131.999 228.637C131.973 228.656 131.936 228.677 131.886 228.7L131.91 228.812C131.967 228.79 132.022 228.789 132.076 228.808C132.132 228.82 132.198 228.847 132.276 228.889L134.594 230.227L133.965 230.695L131.546 229.262L130.197 230.263L131.742 232.344L131.151 232.783ZM130.972 228.891C131.31 228.64 131.514 228.373 131.582 228.089C131.648 227.801 131.574 227.514 131.361 227.227C131.151 226.945 130.897 226.795 130.598 226.777C130.3 226.76 129.986 226.873 129.656 227.118L128.5 227.976L129.816 229.749L130.972 228.891ZM137.27 228.341C136.778 228.706 136.276 228.903 135.765 228.93C135.254 228.957 134.771 228.844 134.317 228.59C133.864 228.329 133.467 227.969 133.127 227.511C132.787 227.052 132.559 226.571 132.443 226.065C132.331 225.557 132.363 225.062 132.537 224.581C132.711 224.1 133.044 223.676 133.537 223.311C134.034 222.942 134.538 222.744 135.049 222.717C135.564 222.686 136.047 222.8 136.497 223.057C136.948 223.307 137.345 223.663 137.688 224.125C138.031 224.588 138.259 225.073 138.37 225.582C138.486 226.087 138.455 226.581 138.277 227.066C138.102 227.547 137.767 227.972 137.27 228.341ZM136.874 227.808C137.234 227.541 137.478 227.23 137.607 226.875C137.737 226.513 137.755 226.135 137.661 225.74C137.571 225.341 137.383 224.949 137.097 224.564C136.811 224.179 136.492 223.887 136.14 223.69C135.789 223.486 135.423 223.396 135.042 223.419C134.662 223.435 134.292 223.577 133.933 223.844C133.577 224.108 133.337 224.419 133.211 224.778C133.082 225.133 133.063 225.509 133.153 225.907C133.244 226.298 133.432 226.686 133.718 227.072C134.004 227.457 134.323 227.752 134.674 227.957C135.029 228.158 135.396 228.25 135.776 228.234C136.153 228.214 136.519 228.072 136.874 227.808ZM141.032 225.449L135.942 221.625L136.559 221.168L140.189 223.883C140.361 224.008 140.48 224.102 140.547 224.165C140.618 224.225 140.679 224.29 140.73 224.358L140.833 224.282C140.782 224.213 140.737 224.134 140.697 224.044C140.657 223.954 140.601 223.817 140.529 223.631L138.981 219.37L139.546 218.95L143.176 221.666C143.333 221.789 143.449 221.882 143.523 221.946C143.597 222.011 143.66 222.077 143.711 222.146L143.814 222.069C143.763 222.001 143.717 221.925 143.676 221.843C143.639 221.758 143.586 221.614 143.516 221.414L141.968 217.153L142.585 216.695L144.771 222.674L144.103 223.17L140.38 220.423C140.229 220.31 140.098 220.178 139.987 220.028L139.884 220.104C139.996 220.254 140.084 220.418 140.149 220.595L141.7 224.953L141.032 225.449ZM150.934 218.099L148.146 220.169L144.508 215.267L145.099 214.829L148.342 219.197L150.539 217.566L150.934 218.099ZM151.463 217.707L150.866 218.15L149.033 211.909L149.701 211.413L155.144 214.975L154.547 215.418L153.225 214.537L151.002 216.186L151.463 217.707ZM150.81 215.512L152.635 214.158L150.33 212.61C150.209 212.527 150.111 212.457 150.035 212.401C149.964 212.34 149.895 212.265 149.828 212.176L149.726 212.252C149.792 212.342 149.842 212.431 149.875 212.52C149.912 212.605 149.952 212.718 149.996 212.858L150.81 215.512ZM157.27 213.497C156.747 213.885 156.204 214.088 155.641 214.108C155.082 214.124 154.572 213.902 154.11 213.441L154.707 212.998C155.047 213.303 155.41 213.439 155.797 213.405C156.184 213.363 156.553 213.212 156.905 212.951C157.256 212.69 157.471 212.417 157.552 212.132C157.636 211.843 157.572 211.555 157.359 211.268C157.197 211.05 157.01 210.923 156.798 210.888C156.583 210.849 156.363 210.866 156.139 210.939C155.911 211.008 155.621 211.124 155.27 211.285C154.873 211.467 154.543 211.599 154.279 211.682C154.012 211.761 153.742 211.768 153.469 211.705C153.196 211.642 152.949 211.46 152.726 211.16C152.523 210.886 152.413 210.599 152.396 210.3C152.381 209.992 152.453 209.696 152.613 209.411C152.775 209.119 153.014 208.855 153.331 208.619C153.781 208.286 154.258 208.114 154.762 208.105C155.264 208.092 155.729 208.294 156.159 208.712L155.588 209.136C155.291 208.871 154.981 208.753 154.657 208.781C154.329 208.805 154.015 208.929 153.715 209.151C153.39 209.393 153.19 209.647 153.116 209.914C153.047 210.179 153.101 210.431 153.279 210.67C153.419 210.859 153.584 210.969 153.773 211.001C153.964 211.025 154.162 211.005 154.366 210.94C154.574 210.872 154.844 210.761 155.175 210.608C155.597 210.415 155.95 210.278 156.237 210.199C156.52 210.115 156.808 210.11 157.102 210.184C157.401 210.255 157.674 210.457 157.922 210.791C158.249 211.232 158.358 211.693 158.249 212.172C158.144 212.648 157.818 213.09 157.27 213.497ZM161.163 210.507L160.572 210.946L157.33 206.578L155.673 207.808L155.277 207.275L159.189 204.371L159.585 204.904L157.921 206.139L161.163 210.507ZM165.782 207.079L160.692 203.255L161.309 202.798L164.939 205.513C165.111 205.638 165.23 205.732 165.297 205.795C165.369 205.855 165.43 205.92 165.48 205.988L165.583 205.912C165.532 205.843 165.487 205.764 165.447 205.674C165.407 205.585 165.351 205.447 165.279 205.261L163.731 201L164.296 200.581L167.926 203.296C168.083 203.419 168.199 203.512 168.273 203.576C168.348 203.641 168.41 203.707 168.461 203.776L168.564 203.7C168.513 203.631 168.467 203.556 168.426 203.473C168.389 203.388 168.336 203.244 168.266 203.044L166.718 198.783L167.335 198.325L169.521 204.304L168.853 204.8L165.13 202.054C164.98 201.94 164.849 201.808 164.737 201.658L164.634 201.734C164.746 201.884 164.834 202.048 164.899 202.225L166.45 206.583L165.782 207.079ZM174.52 200.594L171.353 202.944L167.715 198.043L170.882 195.692L171.278 196.226L168.702 198.137L169.923 199.782L172.197 198.094L172.588 198.621L170.313 200.309L171.548 201.973L174.124 200.061L174.52 200.594ZM178.222 197.846L175.055 200.197L171.417 195.296L174.584 192.945L174.979 193.478L172.403 195.39L173.624 197.035L175.898 195.347L176.289 195.874L174.015 197.561L175.25 199.225L177.826 197.313L178.222 197.846ZM178.756 197.45L175.118 192.548L175.709 192.11L177.392 194.377L177.495 194.301C177.451 194.241 177.426 194.173 177.423 194.096C177.42 194.012 177.424 193.919 177.435 193.817L177.746 190.598L178.504 190.036L178.071 194.003L182.257 194.851L181.474 195.433L178.122 194.743C178.099 194.739 178.069 194.735 178.032 194.729C177.999 194.721 177.957 194.709 177.906 194.693C177.786 194.657 177.653 194.626 177.508 194.6L177.488 194.735C177.57 194.747 177.635 194.772 177.683 194.809C177.728 194.842 177.796 194.921 177.888 195.045L179.347 197.011L178.756 197.45Z" fill="white"/>
</g>
<defs>
<filter id="filter0_d_701_2548" x="-11.6816" y="30.2856" width="89.1953" height="75.7412" filterUnits="userSpaceOnUse" color-interpolation-filters="sRGB">
<feFlood flood-opacity="0" result="BackgroundImageFix"/>
<feColorMatrix in="SourceAlpha" type="matrix" values="0 0 0 0 0 0 0 0 0 0 0 0 0 0 0 0 0 0 127 0" result="hardAlpha"/>
<feOffset/>
<feGaussianBlur stdDeviation="3"/>
<feComposite in2="hardAlpha" operator="out"/>
<feColorMatrix type="matrix" values="0 0 0 0 0.0708333 0 0 0 0 0.0708333 0 0 0 0 0.0708333 0 0 0 0.25 0"/>
<feBlend mode="normal" in2="BackgroundImageFix" result="effect1_dropShadow_701_2548"/>
<feBlend mode="normal" in="SourceGraphic" in2="effect1_dropShadow_701_2548" result="shape"/>
</filter>
<linearGradient id="paint0_linear_701_2548" x1="8.1959" y1="84.9385" x2="81.155" y2="132.634" gradientUnits="userSpaceOnUse">
<stop stop-color="#1B1B1B"/>
<stop offset="1" stop-color="#232323"/>
</linearGradient>
<linearGradient id="paint1_linear_701_2548" x1="34.332" y1="84.9385" x2="34.332" y2="109.938" gradientUnits="userSpaceOnUse">
<stop stop-color="white" stop-opacity="0.15"/>
<stop offset="1" stop-color="white" stop-opacity="0"/>
</linearGradient>
</defs>
</svg>
