<svg width="22" height="22" viewBox="0 0 22 22" fill="none" xmlns="http://www.w3.org/2000/svg">
<path fill-rule="evenodd" clip-rule="evenodd" d="M10.8828 21.25C16.6818 21.25 21.3828 16.549 21.3828 10.75C21.3828 4.95101 16.6818 0.25 10.8828 0.25C5.08382 0.25 0.382812 4.95101 0.382812 10.75C0.382812 16.549 5.08382 21.25 10.8828 21.25ZM16.3177 7.89018C16.6713 7.46591 16.6139 6.83534 16.1897 6.48178C15.7654 6.12821 15.1348 6.18554 14.7813 6.60982L10.35 11.9274C10.0033 12.3434 9.80834 12.5738 9.65272 12.7153L9.64678 12.7207L9.64037 12.7159C9.47258 12.589 9.25761 12.3772 8.87465 11.9943L6.92326 10.0429C6.53273 9.65237 5.89957 9.65237 5.50904 10.0429C5.11852 10.4334 5.11852 11.0666 5.50904 11.4571L7.46043 13.4085L7.50124 13.4493C7.82774 13.7759 8.14184 14.0902 8.43408 14.3111C8.76145 14.5587 9.19017 14.7915 9.73958 14.7665C10.289 14.7416 10.6949 14.471 10.9985 14.1948C11.2695 13.9483 11.5539 13.6069 11.8495 13.2521L11.8864 13.2077L16.3177 7.89018Z" fill="white"/>
</svg>
