<svg width="1321" height="573" viewBox="0 0 1321 573" fill="none" xmlns="http://www.w3.org/2000/svg">
<rect x="0.835938" y="0.884766" width="1320" height="571.555" rx="10" fill="#090909"/>
<mask id="mask0_555_8134" style="mask-type:alpha" maskUnits="userSpaceOnUse" x="0" y="0" width="1321" height="573">
<rect x="0.835938" y="0.884766" width="1320" height="571.555" rx="10" fill="#090909"/>
</mask>
<g mask="url(#mask0_555_8134)">
<mask id="mask1_555_8134" style="mask-type:luminance" maskUnits="userSpaceOnUse" x="-6" y="276" width="1331" height="410">
<path d="M1324.84 276.439H-5.16406V685.659H1324.84V276.439Z" fill="white"/>
</mask>
<g mask="url(#mask1_555_8134)">
<path d="M-740.113 521.141H-837.002L-829.764 519.644H-733.357L-740.13 521.141H-740.113ZM-628.174 521.141H-738.792L-732.027 519.644H-621.941L-628.174 521.141ZM-516.209 521.141H-626.828L-620.603 519.644H-510.517L-516.209 521.141ZM-404.269 521.141H-514.855L-509.17 519.644H-399.1L-404.252 521.141H-404.269ZM-292.62 521.141H-402.915L-397.77 519.644H-288.016L-292.62 521.141ZM-180.655 521.141H-290.95L-286.346 519.644H-176.591L-180.655 521.141ZM-68.6994 521.141H-178.985L-174.93 519.644H-65.1755L-68.6994 521.141ZM43.2404 521.141H-67.3615L-63.8376 519.644H46.2239L43.2404 521.141ZM155.205 521.141H44.5868L47.5619 519.644H157.649L155.205 521.141ZM267.161 521.141H156.543L158.978 519.644H269.065L267.161 521.141ZM379.109 521.141H268.508L270.402 519.644H380.464L379.109 521.141ZM491.066 521.141H380.448L381.803 519.644H491.889L491.057 521.141H491.066ZM603.022 521.141H492.412L493.243 519.644H603.33L603.055 521.141H603.022ZM715.012 521.141H604.393L604.66 519.644H714.746L715.012 521.141ZM826.96 521.141H716.333L716.059 519.644H826.121L826.952 521.141H826.96ZM938.905 521.141H828.289L827.459 519.644H937.547L938.895 521.141H938.905ZM1050.86 521.141H940.207L938.849 519.644H1048.93L1050.83 521.141H1050.86ZM1162.79 521.141H1052.17L1050.27 519.644H1160.36L1162.79 521.141ZM1274.74 521.141H1164.14L1161.7 519.644H1271.81L1274.78 521.141H1274.74ZM1386.75 521.141H1276.12L1273.14 519.644H1383.18L1386.69 521.141H1386.75ZM1498.66 521.141H1388.06L1384.53 519.644H1494.61L1498.68 521.141H1498.66ZM1610.62 521.141H1500.02L1495.95 519.644H1606.02L1610.62 521.141ZM1722.59 521.141H1611.96L1607.36 519.644H1717.44L1722.59 521.141ZM1834.54 521.141H1723.93L1718.77 519.644H1828.86L1834.54 521.141ZM1946.51 521.141H1835.88L1830.2 519.644H1940.28L1946.51 521.141ZM2058.45 521.141H1947.85L1941.61 519.644H2051.68L2058.45 521.141ZM2170.4 521.141H2059.78L2053.01 519.644H2163.1L2170.4 521.141ZM2215.18 521.141H2171.75L2164.43 519.644H2207.64L2215.18 521.141Z" fill="white" fill-opacity="0.18"/>
<path d="M-376.476 441.161H-448.199L-444.152 440.331H-372.677L-376.46 441.161H-376.476ZM-293.583 441.161H-375.47L-371.689 440.331H-290.101L-293.583 441.161ZM-210.698 441.161H-292.586L-289.112 440.331H-207.532L-210.706 441.161H-210.698ZM-127.847 441.161H-209.717L-206.543 440.331H-124.97L-127.847 441.161ZM-45.211 441.161H-126.849L-123.982 440.331H-42.6347L-45.211 441.161ZM37.6655 441.161H-43.9727L-41.4048 440.331H39.9427L37.6405 441.161H37.6655ZM120.525 441.161H38.8788L41.1477 440.331H122.495L120.525 441.161ZM203.385 441.161H121.515L123.484 440.331H205.055L203.394 441.161H203.385ZM286.279 441.161H204.39L206.053 440.331H287.641L286.279 441.161ZM369.154 441.161H287.268L288.63 440.331H370.218L369.154 441.161ZM452.023 441.161H370.143L371.207 440.331H452.779L452.023 441.161ZM534.899 441.161H453.02L453.776 440.331H535.364L534.907 441.161H534.899ZM617.784 441.161H535.896L536.354 440.331H617.942L617.784 441.161ZM700.669 441.161H618.781L618.931 440.331H700.519L700.669 441.161ZM783.529 441.161H701.683L701.533 440.331H783.105L783.553 441.161H783.529ZM866.43 441.161H784.551L784.094 440.331H865.682L866.43 441.161ZM949.315 441.161H867.403L866.646 440.331H948.234L949.287 441.161H949.315ZM1032.16 441.161H950.275L949.222 440.331H1030.8L1032.15 441.161H1032.16ZM1115.02 441.161H1033.13L1031.77 440.331H1113.36L1115.02 441.161ZM1197.9 441.161H1116.01L1114.35 440.331H1195.94L1197.9 441.161ZM1280.77 441.161H1198.88L1196.93 440.331H1278.51L1280.77 441.161ZM1363.64 441.161H1281.79L1279.52 440.331H1361.09L1363.66 441.161H1363.64ZM1446.53 441.161H1364.64L1362.08 440.331H1443.67L1446.53 441.161ZM1529.42 441.161H1447.53L1444.66 440.331H1526.24L1529.42 441.161ZM1612.29 441.161H1530.4L1527.23 440.331H1608.82L1612.29 441.161ZM1695.16 441.161H1613.28L1609.8 440.331H1691.38L1695.16 441.161ZM1778.03 441.161H1696.15L1692.37 440.331H1773.96L1778.03 441.161ZM1811.18 441.161H1779.02L1774.95 440.331H1806.98L1811.18 441.161Z" fill="white" fill-opacity="0.18"/>
<path d="M-162.752 394.114H-219.682L-217.189 393.597H-160.417L-162.76 394.114H-162.752ZM-96.9796 394.114H-161.979L-159.636 393.597H-94.8105L-96.9713 394.114H-96.9796ZM-31.1821 394.114H-96.1651L-94.0125 393.597H-29.1874L-31.1572 394.114H-31.1821ZM34.6156 394.114H-30.3677L-28.3979 393.597H36.4272L34.6403 394.114H34.6156ZM100.239 394.114H35.4134L37.1918 393.597H101.817L100.222 394.114H100.239ZM166.011 394.114H101.185L102.773 393.597H167.399L165.994 394.114H166.011ZM231.776 394.114H166.95L168.355 393.597H232.947L231.726 394.114H231.776ZM297.506 394.114H232.515L233.737 393.597H298.562L297.531 394.114H297.506ZM363.312 394.114H298.313L299.343 393.597H364.168L363.337 394.114H363.312ZM429.127 394.114H364.127L364.958 393.597H429.783L429.127 394.114ZM494.899 394.114H429.916L430.573 393.597H495.398L494.924 394.114H494.899ZM560.713 394.114H495.713L496.179 393.597H561.004L560.722 394.114H560.713ZM626.511 394.114H561.511L561.785 393.597H626.61L626.519 394.114H626.511ZM692.299 394.114H627.3L627.4 393.597H692.226L692.316 394.114H692.299ZM758.098 394.114H693.106L693.014 393.597H757.84L758.122 394.114H758.098ZM823.903 394.114H758.904L758.629 393.597H823.454L823.92 394.114H823.903ZM889.709 394.114H824.709L824.244 393.597H889.069L889.726 394.114H889.709ZM955.513 394.114H890.516L889.859 393.597H954.682L955.513 394.114ZM1021.28 394.114H956.289L955.457 393.597H1020.29L1021.31 394.114H1021.28ZM1087.1 394.114H1022.11L1021.07 393.597H1085.9L1087.12 394.114H1087.1ZM1152.91 394.114H1087.9L1086.68 393.597H1151.51L1152.92 394.114H1152.91ZM1218.69 394.114H1153.7L1152.29 393.597H1217.12L1218.71 394.114H1218.69ZM1284.5 394.114H1219.5L1217.91 393.597H1282.73L1284.51 394.114H1284.5ZM1350.29 394.114H1285.11L1283.33 393.597H1348.16L1350.12 394.114H1350.29ZM1415.91 394.114H1350.91L1348.93 393.597H1413.76L1415.91 394.114H1415.91ZM1481.68 394.114H1416.7L1414.55 393.597H1479.37L1481.7 394.114H1481.68ZM1547.49 394.114H1482.5L1480.15 393.597H1544.97L1547.46 394.114H1547.49ZM1573.77 394.114H1548.26L1545.72 393.597H1571.17L1573.77 394.114Z" fill="white" fill-opacity="0.18"/>
<path d="M-22.1421 363.169H-69.3398L-67.5864 362.817H-20.5382L-22.2004 363.169H-22.1421ZM32.336 363.169H-21.5521L-19.8899 362.817H33.8733L32.3607 363.169H32.336ZM86.9054 363.169H33.0173L34.5216 362.817H88.3353L86.9553 363.169H86.9054ZM141.484 363.169H87.5871L88.9661 362.817H142.713L141.467 363.169H141.484ZM195.853 363.169H142.123L143.37 362.817H196.967L195.853 363.169ZM250.389 363.169H196.659L197.781 362.817H251.378L250.389 363.169ZM304.934 363.169H251.229L252.21 362.817H305.815L304.984 363.169H304.934ZM359.512 363.169H305.582L306.413 362.817H360.16L359.437 363.169H359.512ZM413.981 363.169H360.101L360.825 362.817H414.58L413.989 363.169H413.981ZM468.534 363.169H414.638L415.228 362.817H468.975L468.518 363.169H468.534ZM523.046 363.169H469.166L469.623 362.817H523.378L523.046 363.169ZM577.591 363.169H523.702L524.027 362.817H577.848L577.657 363.169H577.591ZM632.193 363.169H578.305L578.504 362.817H632.259L632.193 363.169ZM686.737 363.169H632.849L632.916 362.817H686.671L686.737 363.169ZM741.266 363.169H687.386L687.319 362.817H741.074L741.266 363.169ZM795.81 363.169H741.922L741.723 362.817H795.486L795.81 363.169ZM850.354 363.169H796.424L796.101 362.817H849.855L850.321 363.169H850.354ZM904.857 363.169H850.969L850.512 362.817H904.267L904.857 363.169ZM959.39 363.169H905.506L904.907 362.817H958.67L959.39 363.169ZM1013.93 363.169H960.046L959.316 362.817H1013.08L1013.91 363.169H1013.93ZM1068.46 363.169H1014.59L1013.75 362.817H1067.52L1068.5 363.169H1068.46ZM1123.03 363.169H1069.15L1068.16 362.817H1121.92L1123.03 363.169ZM1177.57 363.169H1123.68L1122.57 362.817H1176.33L1177.57 363.169ZM1232.11 363.169H1178.23L1176.97 362.817H1230.74L1232.11 363.169ZM1286.65 363.169H1232.75L1231.37 362.817H1285.11L1286.61 363.169H1286.65ZM1341.15 363.169H1287.27L1285.76 362.817H1339.5L1341.16 363.169H1341.15ZM1395.7 363.169H1341.81L1340.15 362.817H1393.9L1395.68 363.169H1395.7ZM1417.49 363.169H1396.33L1394.56 362.817H1415.66L1417.49 363.169Z" fill="white" fill-opacity="0.18"/>
<path d="M77.4325 341.265H37.1328L38.3878 341.008H78.6127L77.4325 341.265ZM123.974 341.265H77.9478L79.1279 341.008H125.054L123.974 341.265ZM170.515 341.265H124.573L125.652 341.008H171.579L170.59 341.265H170.515ZM217.13 341.265H171.122L172.111 341.008H218.028L217.13 341.265ZM263.572 341.265H217.696L218.585 341.008H264.379L263.547 341.265H263.572ZM310.088 341.265H264.204L265.035 341.008H310.828L310.121 341.265H310.088ZM356.663 341.265H310.778L311.485 341.008H357.278L356.663 341.265ZM403.204 341.265H357.195L357.809 341.008H403.728L403.204 341.265ZM449.786 341.265H403.769L404.285 341.008H450.21L449.786 341.265ZM496.328 341.265H450.31L450.734 341.008H496.66L496.328 341.265ZM542.869 341.265H496.852L497.184 341.008H543.101L542.869 341.265ZM589.41 341.265H543.608L543.841 341.008H589.768L589.626 341.265H589.41ZM636.167 341.265H590.15L590.291 341.008H636.217L636.167 341.265ZM682.75 341.265H636.732L636.774 341.008H682.7L682.75 341.265ZM729.291 341.265H683.282L683.232 341.008H729.15L729.291 341.265ZM775.874 341.265H729.94L729.798 341.008H775.724L775.965 341.265H775.874ZM822.507 341.265H776.48L776.239 341.008H822.191L822.523 341.265H822.507ZM869.064 341.265H823.047L822.714 341.008H868.648L869.064 341.265ZM915.605 341.265H869.58L869.156 341.008H915.09L915.605 341.265ZM962.144 341.265H916.129L915.613 341.008H961.544L962.144 341.265ZM1008.73 341.265H962.707L962.098 341.008H1008.02L1008.73 341.265ZM1055.27 341.265H1009.26L1008.56 341.008H1054.47L1055.3 341.265H1055.27ZM1101.85 341.265H1055.83L1054.99 341.008H1100.93L1101.81 341.265H1101.85ZM1148.39 341.265H1102.37L1101.48 341.008H1147.4L1148.39 341.265ZM1194.93 341.265H1148.92L1147.93 341.008H1193.86L1194.93 341.265ZM1241.48 341.265H1195.47L1194.39 341.008H1240.31L1241.48 341.265ZM1288.06 341.265H1242.04L1240.86 341.008H1286.78L1288.06 341.265ZM1306.69 341.265H1288.61L1287.35 341.008H1305.38L1306.69 341.265Z" fill="white" fill-opacity="0.18"/>
<path d="M151.623 324.943H116.451L117.424 324.74H152.538L151.623 324.943ZM192.264 324.943H152.105L153.02 324.74H193.103L192.272 324.943H192.264ZM232.92 324.943H192.762L193.593 324.74H233.677L232.912 324.943H232.92ZM273.545 324.943H233.394L234.159 324.74H274.243L273.545 324.943ZM314.069 324.943H274.035L274.725 324.74H314.691L314.069 324.943ZM354.717 324.943H314.675L315.298 324.74H355.266L354.717 324.943ZM395.358 324.943H355.324L355.872 324.74H395.84L395.358 324.943ZM435.998 324.943H395.84L396.314 324.74H436.388L435.989 324.943H435.998ZM476.638 324.943H436.48L436.879 324.74H476.962L476.638 324.943ZM517.279 324.943H477.12L477.453 324.74H517.536L517.279 324.943ZM557.919 324.943H517.769L518.018 324.74H558.102L557.919 324.943ZM598.56 324.943H558.401L558.584 324.74H598.668L598.56 324.943ZM639.208 324.943H599.05L599.158 324.74H639.242V324.943H639.208ZM679.882 324.943H639.723V324.74H679.807V324.943H679.882ZM720.448 324.943H680.297V324.74H720.381L720.489 324.943H720.448ZM761.129 324.943H720.971L720.863 324.74H760.946L761.129 324.943ZM801.778 324.943H761.619L761.437 324.74H801.52L801.778 324.943ZM842.419 324.943H802.244L801.986 324.74H842.136L842.459 324.943H842.419ZM883.1 324.943H842.942L842.61 324.74H882.701L883.1 324.943ZM923.739 324.943H883.582L883.183 324.74H923.268L923.739 324.943ZM964.387 324.943H924.229L923.758 324.74H963.842L964.387 324.943ZM1005.02 324.943H964.867L964.323 324.74H1004.41L1005.02 324.943ZM1045.67 324.943H1005.52L1004.89 324.74H1044.93L1045.61 324.943H1045.67ZM1086.25 324.943H1046.09L1045.41 324.74H1085.49L1086.25 324.943ZM1126.9 324.943H1086.75L1085.98 324.74H1126.07L1126.9 324.943ZM1167.53 324.943H1127.38L1126.55 324.74H1166.63L1167.54 324.943H1167.53ZM1208.18 324.943H1168.03L1167.11 324.74H1207.2L1208.18 324.943ZM1224.44 324.943H1208.65L1207.67 324.74H1223.4L1224.42 324.943" fill="white" fill-opacity="0.18"/>
<path d="M209.06 312.31H177.861L178.625 312.147H209.775L209.06 312.31ZM245.113 312.31H209.492L210.207 312.147H245.77L245.113 312.31ZM281.157 312.31H245.537L246.201 312.147H281.764L281.157 312.31ZM317.202 312.31H281.589L282.196 312.147H317.717L317.169 312.31H317.202ZM353.114 312.31H317.634L318.183 312.147H353.637L353.146 312.31H353.114ZM389.199 312.31H353.686L354.177 312.147H389.632L389.199 312.31ZM425.251 312.31H389.74L390.172 312.147H425.626L425.251 312.31ZM461.296 312.31H425.684L426.059 312.147H461.612L461.296 312.31ZM497.35 312.31H461.729L462.044 312.147H497.607L497.35 312.31ZM533.393 312.31H497.782L498.039 312.147H533.601L533.393 312.31ZM569.438 312.31H533.801L534.009 312.147H569.563L569.413 312.31H569.438ZM605.466 312.31H569.871L570.02 312.147H605.582L605.49 312.31H605.466ZM641.544 312.31H605.923L606.014 312.147H641.577V312.31H641.544ZM677.63 312.31H642.009V312.147H677.58V312.31H677.63ZM713.624 312.31H678.012V312.147H713.574L713.657 312.31H713.624ZM749.711 312.31H714.09L713.998 312.147H749.561L749.711 312.31ZM785.755 312.31H750.143L749.992 312.147H785.555L785.755 312.31ZM821.808 312.31H786.187L785.987 312.147H821.55L821.808 312.31ZM857.852 312.31H822.19L821.932 312.147H857.494L857.81 312.31H857.852ZM893.863 312.31H858.242L857.926 312.147H893.489L893.863 312.31ZM929.918 312.31H894.295L893.921 312.147H929.484L929.918 312.31ZM965.957 312.31H930.352L929.918 312.147H965.468L965.957 312.31ZM1002.02 312.31H966.392L965.902 312.147H1001.46L1002.02 312.31ZM1038.05 312.31H1002.45L1001.9 312.147H1037.46L1038.05 312.31ZM1074.11 312.31H1038.49L1037.89 312.147H1073.46L1074.11 312.31ZM1110.15 312.31H1074.55L1073.88 312.147H1109.44L1110.15 312.31ZM1146.21 312.31H1110.58L1109.87 312.147H1145.49L1146.26 312.31H1146.21ZM1160.67 312.31H1146.69L1145.91 312.147H1159.88L1160.71 312.31" fill="white" fill-opacity="0.18"/>
<path d="M254.822 302.305H226.789L227.413 302.183H255.387L254.805 302.305H254.822ZM287.217 302.305H255.221L255.794 302.183H287.749L287.217 302.305ZM319.63 302.305H287.625L288.157 302.183H320.113L319.63 302.305ZM352.043 302.305H320.046L320.536 302.183H352.483L352.043 302.305ZM384.339 302.305H352.375L352.816 302.183H384.679L384.28 302.305H384.339ZM416.694 302.305H384.788L385.178 302.183H417.043L416.694 302.305ZM449.106 302.305H417.201L417.55 302.183H449.414L449.031 302.305H449.106ZM481.443 302.305H449.447L449.746 302.183H481.701L481.443 302.305ZM513.857 302.305H481.859L482.108 302.183H514.073L513.857 302.305ZM546.269 302.305H514.264L514.471 302.183H546.427L546.269 302.305ZM578.681 302.305H546.685L546.842 302.183H578.798L578.681 302.305ZM611.094 302.305H579.089L579.205 302.183H611.094L611.027 302.305H611.094ZM643.44 302.305H611.443L611.509 302.183H643.465V302.305H643.44ZM675.877 302.305H643.872V302.183H675.828V302.305H675.877ZM708.24 302.305H676.243V302.183H708.191L708.265 302.305H708.24ZM740.678 302.305H708.672L708.606 302.183H740.562L740.678 302.305ZM773.09 302.305H741.094L740.977 302.183H772.932L773.09 302.305ZM805.503 302.305H773.498L773.34 302.183H805.295L805.503 302.305ZM837.916 302.305H805.735L805.528 302.183H837.484L837.741 302.305H837.916ZM870.154 302.305H838.149L837.899 302.183H869.854L870.154 302.305ZM902.566 302.305H870.561L870.253 302.183H902.217L902.566 302.305ZM934.981 302.305H902.981L902.632 302.183H934.584L934.981 302.305ZM967.39 302.305H935.387L934.99 302.183H966.947L967.39 302.305ZM999.8 302.305H967.797L967.353 302.183H999.218L999.698 302.305H999.8ZM1032.11 302.305H1000.05L999.551 302.183H1031.51L1032.05 302.305H1032.11ZM1064.46 302.305H1032.46L1031.92 302.183H1063.88L1064.45 302.305H1064.46ZM1096.87 302.305H1064.87L1064.29 302.183H1096.24L1096.87 302.305ZM1109.82 302.305H1097.29L1096.66 302.183H1109.21L1109.85 302.305" fill="white" fill-opacity="0.18"/>
<path d="M292.153 294.027H266.705L267.22 293.919H292.635L292.153 294.027ZM321.557 294.027H292.511L292.985 293.919H321.998L321.557 294.027ZM350.97 294.027H321.882L322.322 293.919H351.336L350.937 294.027H350.97ZM380.332 294.027H351.244L351.643 293.919H380.657L380.291 294.027H380.332ZM409.612 294.027H380.715L381.08 293.919H410.011L409.687 294.027H409.612ZM439.091 294.027H410.127L410.451 293.919H439.373L439.091 294.027ZM468.495 294.027H439.531L439.814 293.919H468.744L468.495 294.027ZM497.899 294.027H468.811L469.06 293.919H498.073L497.866 294.027H497.899ZM527.27 294.027H498.181L498.389 293.919H527.403L527.236 294.027H527.27ZM556.64 294.027H527.552L527.727 293.919H556.74L556.607 294.027H556.64ZM586.003 294.027H557.073L557.205 293.919H586.219L586.118 294.027H586.003ZM615.532 294.027H586.444L586.534 293.919H615.557L615.499 294.027H615.532ZM644.902 294.027H615.813L615.872 293.919H644.885V294.027H644.902ZM674.289 294.027H645.201V293.919H674.223V294.027H674.289ZM703.618 294.027H674.672V293.919H703.685L703.735 294.027H703.618ZM733.147 294.027H704.059L704.001 293.919H733.014L733.114 294.027H733.147ZM762.518 294.027H733.43L733.33 293.919H762.352L762.485 294.027H762.518ZM791.889 294.027H762.801L762.668 293.919H791.681L791.856 294.027H791.889ZM821.251 294.027H792.271L792.097 293.919H821.11L821.318 294.027H821.251ZM850.73 294.027H821.642L821.426 293.919H850.448L850.697 294.027H850.73ZM880.101 294.027H851.013L850.763 293.919H879.777L880.068 294.027H880.101ZM909.464 294.027H880.375L880.093 293.919H909.098L909.422 294.027H909.464ZM938.822 294.027H909.779L909.455 293.919H938.471L938.822 294.027ZM968.239 294.027H939.146L938.785 293.919H967.796L968.202 294.027H968.239ZM997.61 294.027H968.516L968.119 293.919H997.139L997.573 294.027H997.61ZM1026.97 294.027H997.887L997.444 293.919H1026.45L1026.93 294.027H1026.97ZM1056.33 294.027H1027.25L1026.76 293.919H1055.78L1056.3 294.027H1056.33ZM1068.05 294.027H1056.65L1056.13 293.919H1067.52L1068.05 294.027Z" fill="white" fill-opacity="0.18"/>
<path d="M323.187 287.194H299.916L300.332 287.112H323.603L323.212 287.194H323.187ZM350.139 287.194H323.544L323.935 287.112H350.53L350.172 287.194H350.139ZM377.091 287.194H350.497L350.854 287.112H377.449L377.116 287.194H377.091ZM404.036 287.194H377.44L377.773 287.112H404.368L404.069 287.194H404.036ZM430.913 287.194H404.393L404.692 287.112H431.179L430.913 287.194ZM457.841 287.194H431.32L431.586 287.112H458.073L457.841 287.194ZM484.759 287.194H458.24L458.472 287.112H484.967L484.759 287.194ZM511.679 287.194H485.083L485.291 287.112H511.887L511.712 287.194H511.679ZM538.639 287.194H512.045L512.219 287.112H538.814L538.672 287.194H538.639ZM565.592 287.194H538.996L539.138 287.112H565.733L565.617 287.194H565.592ZM592.535 287.194H565.94L566.049 287.112H592.643L592.56 287.194H592.535ZM619.488 287.194H592.893L592.968 287.112H619.562V287.194H619.488ZM646.482 287.194H619.886L619.928 287.112H646.523V287.194H646.482ZM673.45 287.194H646.856V287.112H673.45V287.194ZM700.37 287.194H673.774V287.112H700.37L700.42 287.194H700.37ZM727.338 287.194H700.744L700.694 287.112H727.288L727.363 287.194H727.338ZM754.291 287.194H727.696L727.621 287.112H754.216L754.324 287.194H754.291ZM781.243 287.194H754.649L754.532 287.112H781.127L781.268 287.194H781.243ZM808.187 287.194H781.592L781.451 287.112H808.046L808.212 287.194H808.187ZM835.139 287.194H808.545L808.37 287.112H834.965L835.173 287.194H835.139ZM862.092 287.194H835.497L835.289 287.112H861.884L862.117 287.194H862.092ZM889.036 287.194H862.44L862.208 287.112H888.803L889.069 287.194H889.036ZM915.997 287.194H889.402L889.136 287.112H915.731L916.029 287.194H915.997ZM942.952 287.194H916.353L916.054 287.112H942.647L942.97 287.194H942.952ZM969.903 287.194H943.303L942.97 287.112H969.57L969.93 287.194H969.903ZM996.854 287.194H970.263L969.893 287.112H996.484L996.881 287.194H996.854ZM1023.8 287.194H997.205L996.807 287.112H1023.4L1023.82 287.194H1023.8ZM1034.63 287.194H1024.18L1023.76 287.112H1034.19L1034.63 287.194Z" fill="white" fill-opacity="0.18"/>
<path d="M349.383 281.435H327.898L328.264 281.354H349.723L349.383 281.435ZM374.216 281.435H349.682L350.023 281.354H374.523L374.216 281.435ZM399.041 281.435H374.507L374.822 281.354H399.331L399.041 281.435ZM423.864 281.435H399.339L399.621 281.354H424.097L423.839 281.435H423.864ZM448.598 281.435H424.139L424.396 281.354H448.831L448.598 281.435ZM473.423 281.435H449.03L449.263 281.354H473.697L473.489 281.435H473.423ZM498.322 281.435H473.863L474.063 281.354H498.497L498.322 281.435ZM523.139 281.435H498.613L498.796 281.354H523.288L523.139 281.435ZM547.972 281.435H523.438L523.588 281.354H548.097L547.972 281.435ZM572.797 281.435H548.271L548.388 281.354H572.863L572.763 281.435H572.797ZM597.588 281.435H573.063L573.162 281.354H597.655L597.588 281.435ZM622.421 281.435H597.879L597.946 281.354H622.454L622.413 281.435H622.421ZM647.237 281.435H622.728L622.77 281.354H647.279V281.435H647.237ZM672.112 281.435H647.578V281.354H672.078V281.435H672.112ZM696.903 281.435H672.369V281.354H696.87V281.435H696.903ZM721.695 281.435H697.161L697.119 281.354H721.628L721.695 281.435ZM746.52 281.435H721.994L721.928 281.354H746.428L746.52 281.435ZM771.353 281.435H746.819L746.727 281.354H771.228L771.353 281.435ZM796.178 281.435H771.644L771.519 281.354H796.028L796.178 281.435ZM821.002 281.435H796.477L796.327 281.354H820.828L821.002 281.435ZM845.835 281.435H821.36L821.185 281.354H845.686L845.894 281.435H845.835ZM870.718 281.435H846.185L845.984 281.354H870.486L870.718 281.435ZM895.542 281.435H870.975L870.743 281.354H895.252L895.509 281.435H895.542ZM920.332 281.435H895.808L895.551 281.354H920.055L920.332 281.435ZM945.168 281.435H920.637L920.351 281.354H944.854L945.168 281.435ZM969.995 281.435H945.464L945.15 281.354H969.653L969.995 281.435ZM994.812 281.435H970.29L969.949 281.354H994.452L994.812 281.435ZM1004.75 281.435H995.117L994.747 281.354H1004.36L1004.75 281.435Z" fill="white" fill-opacity="0.18"/>
<path d="M979.84 276.507H970.908L970.761 276.467H970.474L970.631 276.507H947.864L947.726 276.467H947.449L947.596 276.507H924.839L924.709 276.467H924.432L924.561 276.507H901.8L901.684 276.467H901.409L901.526 276.507H878.762L878.663 276.467H878.38L878.488 276.507H855.733L855.633 276.467H855.359L855.459 276.507H832.695L832.612 276.467H832.338L832.421 276.507H809.665L809.59 276.467H809.316L809.391 276.507H786.628L786.569 276.467H786.287L786.353 276.507H763.59L763.54 276.467H763.274L763.324 276.507H740.561L740.519 276.467H740.244L740.286 276.507H717.53L717.497 276.467H717.223L717.248 276.507H694.493L694.476 276.467H694.193L694.21 276.507H671.463L671.455 276.467H671.181V276.507H648.425L648.433 276.467H648.151V276.507H625.387L625.404 276.467H625.13L625.113 276.507H602.35L602.383 276.467H602.109L602.075 276.507H579.32L579.362 276.467H579.088L579.046 276.507H556.283L556.341 276.467H556.058L556.008 276.507H533.252L533.311 276.467H533.036L532.978 276.507H510.223L510.29 276.467H510.015L509.94 276.507H487.252L487.335 276.467H487.269H486.994L486.911 276.507H464.213L464.313 276.467H464.248H463.964L463.873 276.507H441.176L441.284 276.467H441.01L440.901 276.507H418.146L418.271 276.467H417.989L417.872 276.507H395.117L395.242 276.467H394.968L394.834 276.507H372.079L372.22 276.467H371.946L371.805 276.507H351.867L352.175 276.439H979.526L979.84 276.507Z" fill="white" fill-opacity="0.18"/>
<path d="M-801.623 685.905H-802.129L-796.595 684.122L-292.62 521.142L-288.016 519.657L-45.2207 441.135L-42.6444 440.304L100.187 394.114L101.783 393.597L195.854 363.171L196.968 362.817L263.596 341.267L264.403 341.008L314.069 324.944L314.691 324.74L353.146 312.311L353.636 312.148L384.279 302.237L384.678 302.115L409.686 294.028L410.01 293.919L430.796 287.194L431.061 287.113L448.623 281.436L448.847 281.368L463.873 276.508L463.965 276.467H464.247H464.039L-801.623 685.905Z" fill="white" fill-opacity="0.18"/>
<path d="M-629.768 685.905H-630.275L-625.389 684.122L-180.655 521.142L-176.591 519.657L37.6562 441.135L39.9333 440.304L165.977 394.114L167.381 393.597L250.391 363.171L251.38 362.817L310.18 341.267L310.886 341.008L354.718 324.944L355.267 324.74L389.2 312.311L389.632 312.148L416.676 302.237L417.025 302.115L439.09 294.028L439.372 293.919L457.723 287.194L457.955 287.113L473.447 281.436L473.655 281.368L486.911 276.508L486.994 276.467H487.268H487.06L-629.768 685.905Z" fill="white" fill-opacity="0.18"/>
<path d="M-456.362 685.905H-458.414L-454.184 684.122L-68.6988 521.142L-65.1749 519.657L120.54 441.135L122.511 440.304L231.757 394.114L232.979 393.597L304.935 363.171L305.791 362.817L356.754 341.267L357.368 341.008L395.367 324.944L395.84 324.74L425.252 312.311L425.626 312.148L449.063 302.237L449.37 302.115L468.493 294.028L468.743 293.919L484.642 287.194L484.85 287.113L498.28 281.436L498.454 281.368L509.94 276.508L510.015 276.467H510.29L510.223 276.508L498.754 281.368L498.571 281.436L485.174 287.113L484.966 287.194L469.092 293.919L468.843 294.028L449.752 302.115L449.453 302.237L426.058 312.148L425.684 312.311L396.321 324.74L395.849 324.944L357.925 341.008L357.31 341.267L306.439 362.817L305.583 363.171L233.769 393.597L232.547 394.114L123.5 440.304L121.53 441.135L-63.8369 519.657L-67.3608 521.142L-452.14 684.122L-456.362 685.905Z" fill="white" fill-opacity="0.18"/>
<path d="M-284.542 685.905H-286.594L-283.012 684.122L43.2412 521.142L46.2249 519.657L203.4 441.135L205.071 440.304L297.539 394.114L298.569 393.597L359.463 363.171L360.186 362.817L403.328 341.267L403.843 341.008L435.999 324.944L436.397 324.74L461.297 312.311L461.613 312.148L481.451 302.237L481.708 302.115L497.898 294.028L498.106 293.919L511.561 287.194L511.736 287.113L523.097 281.436L523.247 281.368L532.978 276.508L533.037 276.467H533.311L533.252 276.508L523.545 281.368L523.396 281.436L512.06 287.113L511.886 287.194L498.455 293.919L498.248 294.028L482.091 302.115L481.841 302.237L462.045 312.148L461.729 312.311L436.887 324.74L436.488 324.944L404.4 341.008L403.885 341.267L360.843 362.817L360.12 363.171L299.351 393.597L298.32 394.114L206.06 440.304L204.398 441.135L47.5628 519.657L44.5876 521.142L-280.968 684.122L-284.542 685.905Z" fill="white" fill-opacity="0.18"/>
<path d="M-112.68 685.905H-114.74L-111.807 684.122L155.206 521.142L157.65 519.657L286.286 441.135L287.649 440.304L363.32 394.114L364.168 393.597L414.009 363.171L414.599 362.817L449.904 341.267L450.327 341.008L476.648 324.944L476.972 324.74L497.351 312.311L497.608 312.148L513.839 302.237L514.055 302.115L527.303 294.028L527.477 293.919L538.489 287.194L538.631 287.113L547.93 281.436L548.055 281.368L556.009 276.508L556.059 276.467H556.342L556.284 276.508L548.346 281.368L548.23 281.436L538.955 287.113L538.813 287.194L527.826 293.919L527.653 294.028L514.438 302.115L514.23 302.237L498.041 312.148L497.783 312.311L477.463 324.74L477.13 324.944L450.884 341.008L450.46 341.267L415.256 362.817L414.657 363.171L364.949 393.597L364.11 394.114L288.639 440.304L287.275 441.135L158.979 519.657L156.545 521.142L-109.762 684.122L-112.68 685.905Z" fill="white" fill-opacity="0.18"/>
<path d="M59.1724 685.905H57.1113L59.3968 684.122L267.17 521.142L269.065 519.657L369.161 441.135L370.225 440.304L429.108 394.114L429.765 393.597L468.552 363.171L469.008 362.817L496.477 341.267L496.809 341.008L517.286 324.944L517.544 324.74L533.393 312.311L533.601 312.148L546.233 302.237L546.391 302.115L556.705 294.028L556.838 293.919L565.407 287.194L565.515 287.113L572.754 281.436L572.854 281.368L579.045 276.508L579.087 276.467H579.361L579.32 276.508L573.153 281.368L573.053 281.436L565.84 287.113L565.731 287.194L557.187 293.919L557.054 294.028L546.783 302.115L546.624 302.237L534.033 312.148L533.826 312.311L518.026 324.74L517.777 324.944L497.366 341.008L497.033 341.267L469.657 362.817L469.199 363.171L430.554 393.597L429.897 394.114L371.215 440.304L370.151 441.135L270.402 519.657L268.508 521.142L61.4412 684.122L59.1724 685.905Z" fill="white" fill-opacity="0.18"/>
<path d="M230.993 685.905H228.932L230.569 684.122L379.11 521.142L380.465 519.657L452.03 441.135L452.786 440.304L494.881 394.114L495.355 393.597L523.081 363.171L523.413 362.817L543.051 341.267L543.284 341.008L557.927 324.944L558.11 324.74L569.447 312.311L569.588 312.148L578.622 302.237L578.738 302.115L586.102 294.028L586.202 293.919L592.326 287.194L592.41 287.113L597.579 281.436L597.646 281.368L602.075 276.508L602.108 276.467H602.383L602.349 276.508L597.945 281.368L597.878 281.436L592.725 287.113L592.651 287.194L586.55 293.919L586.46 294.028L579.121 302.115L579.004 302.237L570.02 312.148L569.871 312.311L558.592 324.74L558.41 324.944L543.841 341.008L543.608 341.267L524.06 362.817L523.736 363.171L496.136 393.597L495.671 394.114L453.776 440.304L453.019 441.135L381.803 519.657L380.448 521.142L232.614 684.122L230.993 685.905Z" fill="white" fill-opacity="0.18"/>
<path d="M402.847 685.905H400.785L401.766 684.122L491.067 521.142L491.89 519.657L534.907 441.135L535.364 440.304L560.671 394.114L560.953 393.597L577.625 363.171L577.816 362.817L589.626 341.267L589.768 341.008L598.569 324.944L598.677 324.74L605.492 312.311L605.583 312.148L611.01 302.237L611.077 302.115L615.515 294.028L615.573 293.919L619.254 287.194L619.296 287.113L622.413 281.436L622.455 281.368L625.114 276.508L625.13 276.467H625.405L625.388 276.508L622.746 281.368L622.704 281.436L619.62 287.113L619.57 287.194L615.922 293.919L615.864 294.028L611.467 302.115L611.401 302.237L606.015 312.148L605.924 312.311L599.167 324.74L599.059 324.944L590.324 341.008L590.183 341.267L578.473 362.817L578.274 363.171L561.735 393.597L561.46 394.114L536.354 440.304L535.897 441.135L493.219 519.657L492.414 521.142L403.819 684.122L402.847 685.905Z" fill="white" fill-opacity="0.18"/>
<path d="M574.7 685.905H572.646L572.971 684.122L603.031 521.142L603.306 519.657L617.783 441.135L617.941 440.304L626.46 394.114L626.551 393.597L632.161 363.171L632.228 362.817L636.2 341.267L636.25 341.008L639.218 324.944L639.251 324.74L641.544 312.311L641.577 312.148L643.406 302.237L643.423 302.115L644.918 294.028L644.935 293.919L646.173 287.194L646.19 287.113L647.237 281.436L647.254 281.368L648.152 276.508V276.467H648.434L648.426 276.508L647.553 281.368L647.537 281.436L646.514 287.113L646.497 287.194L645.284 293.919L645.268 294.028L643.813 302.115L643.789 302.237L642.001 312.148L641.976 312.311L639.741 324.74L639.7 324.944L636.807 341.008L636.765 341.267L632.884 362.817L632.818 363.171L627.341 393.597L627.241 394.114L618.93 440.304L618.781 441.135L604.636 519.657L604.37 521.142L575.024 684.122L574.7 685.905Z" fill="white" fill-opacity="0.18"/>
<path d="M746.553 685.905H744.5L744.176 684.122L714.988 521.142L714.722 519.657L700.669 441.135L700.519 440.304L692.241 394.114L692.149 393.597L686.706 363.171L686.639 362.817L682.783 341.267L682.733 341.008L679.858 324.944L679.825 324.74L677.597 312.311L677.564 312.148L675.794 302.237L675.769 302.115L674.323 294.028L674.306 293.919L673.101 287.194L673.084 287.113L672.071 281.436L672.054 281.368L671.182 276.508V276.467H671.456L671.464 276.508L672.353 281.368L672.361 281.436L673.408 287.113L673.425 287.194L674.655 293.919L674.672 294.028L676.16 302.115L676.185 302.237L677.996 312.148L678.029 312.311L680.307 324.74L680.348 324.944L683.29 341.008L683.34 341.267L687.288 362.817L687.354 363.171L692.939 393.597L693.031 394.114L701.507 440.304L701.657 441.135L716.06 519.657L716.334 521.142L746.229 684.122L746.553 685.905Z" fill="white" fill-opacity="0.18"/>
<path d="M-2174.33 685.905H-2176.39L279.853 276.467H280.127L-2174.33 685.905Z" fill="white" fill-opacity="0.18"/>
<path d="M-2002.47 685.905H-2004.53L302.873 276.467H303.147L-2002.47 685.905Z" fill="white" fill-opacity="0.18"/>
<path d="M-1830.63 685.905H-1832.69L325.896 276.467H326.178L-1830.63 685.905Z" fill="white" fill-opacity="0.18"/>
<path d="M-1658.8 685.905H-1660.87L348.917 276.467H349.2L-1658.8 685.905Z" fill="white" fill-opacity="0.18"/>
<path d="M-1486.95 685.905H-1489L-1480.87 684.122L-740.112 521.142L-733.339 519.657L-376.476 441.135L-372.695 440.304L-162.754 394.114L-160.409 393.597L-22.1405 363.171L-20.5033 362.817L77.4324 341.267L78.6127 341.008L151.624 324.944L152.538 324.74L209.061 312.311L209.776 312.148L254.82 302.237L255.402 302.115L292.154 294.028L292.636 293.919L323.186 287.194L323.577 287.113L349.382 281.436L349.723 281.368L371.805 276.508L371.946 276.467H372.22L372.079 276.508L350.022 281.368L349.682 281.436L323.901 287.113L323.51 287.194L292.985 293.919L292.511 294.028L255.785 302.115L255.211 302.237L210.208 312.148L209.493 312.311L153.02 324.74L152.106 324.944L79.1694 341.008L77.9894 341.267L-19.8551 362.817L-21.4922 363.171L-159.628 393.597L-161.972 394.114L-371.706 440.304L-375.488 441.135L-732.009 519.657L-738.775 521.142L-1478.82 684.122L-1486.95 685.905Z" fill="white" fill-opacity="0.18"/>
<path d="M-1315.09 685.905H-1317.14L-1309.67 684.122L-628.156 521.142L-621.923 519.657L-293.6 441.135L-290.118 440.304L-96.9727 394.114L-94.8119 393.597L32.395 363.171L33.9077 362.817L124.015 341.267L125.095 341.008L192.264 324.944L193.103 324.74L245.113 312.311L245.769 312.148L287.208 302.237L287.74 302.115L321.557 294.028L321.997 293.919L350.113 287.194L350.47 287.113L374.215 281.436L374.522 281.368L394.834 276.508L394.967 276.467H395.242L395.117 276.508L374.822 281.368L374.506 281.436L350.795 287.113L350.429 287.194L322.347 293.919L321.914 294.028L288.13 302.115L287.599 302.237L246.201 312.148L245.546 312.311L193.593 324.74L192.754 324.944L125.652 341.008L124.572 341.267L34.556 362.817L33.0515 363.171L-94.0305 393.597L-96.1831 394.114L-289.129 440.304L-292.604 441.135L-620.586 519.657L-626.81 521.142L-1307.61 684.122L-1315.09 685.905Z" fill="white" fill-opacity="0.18"/>
<path d="M-1143.25 685.905H-1145.3L-1138.46 684.122L-516.192 521.142L-510.499 519.657L-210.716 441.135L-207.541 440.304L-31.1831 394.114L-29.2134 393.597L86.9399 363.171L88.3198 362.817L170.589 341.267L171.579 341.008L232.913 324.944L233.678 324.74L281.158 312.311L281.765 312.148L319.604 302.237L320.086 302.115L350.97 294.028L351.368 293.919L377.032 287.194L377.365 287.113L399.04 281.436L399.331 281.368L417.873 276.508L417.989 276.467H418.271L418.147 276.508L399.622 281.368L399.339 281.436L377.689 287.113L377.357 287.194L351.717 293.919L351.318 294.028L320.477 302.115L319.986 302.237L282.197 312.148L281.59 312.311L234.16 324.74L233.395 324.944L172.136 341.008L171.146 341.267L88.9681 362.817L87.5883 363.171L-28.4238 393.597L-30.3936 394.114L-206.551 440.304L-209.727 441.135L-509.169 519.657L-514.854 521.142L-1136.41 684.122L-1143.25 685.905Z" fill="white" fill-opacity="0.18"/>
<path d="M-971.419 685.905H-973.479L-967.29 684.122L-404.252 521.142L-399.099 519.657L-127.856 441.135L-124.981 440.304L34.5887 394.114L36.3755 393.597L141.467 363.171L142.714 362.817L217.154 341.267L218.052 341.008L273.544 324.944L274.243 324.74L317.202 312.311L317.75 312.148L351.991 302.237L352.423 302.115L380.365 294.028L380.73 293.919L403.951 287.194L404.25 287.113L423.864 281.436L424.122 281.368L440.901 276.508L441.009 276.467H441.283L441.175 276.508L424.421 281.368L424.163 281.436L404.574 287.113L404.275 287.194L381.079 293.919L380.714 294.028L352.813 302.115L352.374 302.237L318.182 312.148L317.634 312.311L274.725 324.74L274.035 324.944L218.609 341.008L217.719 341.267L143.371 362.817L142.124 363.171L37.1567 393.597L35.3783 394.114L-123.992 440.304L-126.86 441.135L-397.77 519.657L-402.915 521.142L-965.24 684.122L-971.419 685.905Z" fill="white" fill-opacity="0.18"/>
<path d="M-799.561 685.905H-801.621L464.04 276.467H464.248H464.314L464.215 276.508L449.222 281.368L448.989 281.436L431.47 287.113L431.204 287.194L410.451 293.919L410.127 294.028L385.161 302.115L384.77 302.237L354.177 312.148L353.687 312.311L315.299 324.74L314.677 324.944L265.093 341.008L264.295 341.267L197.783 362.817L196.661 363.171L102.756 393.597L101.169 394.114L-41.4135 440.304L-43.9814 441.135L-286.353 519.657L-290.949 521.142L-794.034 684.122L-799.561 685.905Z" fill="white" fill-opacity="0.18"/>
<path d="M-627.708 685.905H-629.77L487.06 276.467H487.268H487.334L487.251 276.508L474.021 281.368L473.821 281.436L458.354 287.113L458.121 287.194L439.812 293.919L439.53 294.028L417.506 302.115L417.156 302.237L390.171 312.148L389.739 312.311L355.872 324.74L355.324 324.944L311.575 341.008L310.868 341.267L252.185 362.817L251.204 363.171L168.362 393.597L166.957 394.114L41.1626 440.304L38.8937 441.135L-174.93 519.657L-178.994 521.142L-622.838 684.122L-627.708 685.905Z" fill="white" fill-opacity="0.18"/>
<path d="M918.38 685.905H916.319L915.347 684.122L826.935 521.142L826.121 519.657L783.527 441.135L783.078 440.304L758.021 394.114L757.739 393.597L741.233 363.171L741.042 362.817L729.349 341.267L729.207 341.008L720.497 324.944L720.389 324.74L713.641 312.311L713.55 312.148L708.181 302.237L708.106 302.115L703.718 294.028L703.668 293.919L700.02 287.194L699.97 287.113L696.894 281.436L696.852 281.368L694.21 276.508L694.193 276.467H694.476L694.493 276.508L697.143 281.368L697.185 281.436L700.294 287.113L700.343 287.194L704.017 293.919L704.075 294.028L708.496 302.115L708.563 302.237L713.982 312.148L714.073 312.311L720.871 324.74L720.979 324.944L729.764 341.008L729.905 341.267L741.69 362.817L741.89 363.171L758.528 393.597L758.81 394.114L784.067 440.304L784.524 441.135L827.458 519.657L828.273 521.142L917.4 684.122L918.38 685.905Z" fill="white" fill-opacity="0.18"/>
<path d="M1090.23 685.905H1088.17L1086.55 684.122L938.896 521.142L937.547 519.657L866.404 441.135L865.656 440.304L823.802 394.114L823.336 393.597L795.778 363.171L795.453 362.817L775.931 341.267L775.69 341.008L761.138 324.944L760.956 324.74L749.694 312.311L749.544 312.148L740.569 302.237L740.452 302.115L733.13 294.028L733.03 293.919L726.938 287.194L726.864 287.113L721.72 281.436L721.653 281.368L717.248 276.508L717.223 276.467H717.497L717.53 276.508L721.952 281.368L722.018 281.436L727.187 287.113L727.262 287.194L733.379 293.919L733.479 294.028L740.843 302.115L740.959 302.237L749.977 312.148L750.126 312.311L761.445 324.74L761.628 324.944L776.247 341.008L776.488 341.267L796.102 362.817L796.434 363.171L824.126 393.597L824.592 394.114L866.645 440.304L867.401 441.135L938.877 519.657L940.226 521.142L1088.6 684.122L1090.23 685.905Z" fill="white" fill-opacity="0.18"/>
<path d="M1262.09 685.905H1260.03L1257.75 684.122L1050.86 521.142L1048.96 519.657L949.287 441.135L948.234 440.304L889.592 394.114L888.935 393.597L850.323 363.171L849.857 362.817L822.506 341.267L822.181 341.008L801.787 324.944L801.529 324.74L785.738 312.311L785.539 312.148L772.957 302.237L772.799 302.115L762.535 294.028L762.402 293.919L753.867 287.194L753.758 287.113L746.544 281.436L746.453 281.368L740.286 276.508L740.244 276.467H740.518L740.56 276.508L746.752 281.368L746.843 281.436L754.074 287.113L754.19 287.194L762.751 293.919L762.884 294.028L773.189 302.115L773.347 302.237L785.971 312.148L786.171 312.311L802.012 324.74L802.269 324.944L822.73 341.008L823.063 341.267L850.514 362.817L850.97 363.171L889.725 393.597L890.381 394.114L949.222 440.304L950.275 441.135L1050.3 519.657L1052.2 521.142L1259.8 684.122L1262.09 685.905Z" fill="white" fill-opacity="0.18"/>
<path d="M1433.9 685.905H1431.88L1428.96 684.122L1162.82 521.142L1160.39 519.657L1032.16 441.135L1030.81 440.304L955.382 394.114L954.541 393.597L904.858 363.171L904.268 362.817L869.08 341.267L868.656 341.008L842.427 324.944L842.103 324.74L821.791 312.311L821.533 312.148L805.351 302.237L805.144 302.115L791.938 294.028L791.763 293.919L780.784 287.194L780.643 287.113L771.376 281.436L771.252 281.368L763.323 276.508L763.273 276.467H763.539L763.589 276.508L771.543 281.368L771.667 281.436L780.959 287.113L781.108 287.194L792.112 293.919L792.287 294.028L805.526 302.115L805.734 302.237L821.957 312.148L822.215 312.311L842.577 324.74L842.908 324.944L869.204 341.008L869.628 341.267L904.908 362.817L905.507 363.171L955.317 393.597L956.158 394.114L1031.78 440.304L1033.15 441.135L1161.7 519.657L1164.14 521.142L1430.98 684.122L1433.9 685.905Z" fill="white" fill-opacity="0.18"/>
<path d="M1605.76 685.905H1603.71L1600.14 684.122L1274.76 521.142L1271.78 519.657L1115.04 441.135L1113.38 440.304L1021.15 394.114L1020.12 393.597L959.391 363.171L958.671 362.817L915.655 341.267L915.139 341.008L883.068 324.944L882.669 324.74L857.836 312.311L857.52 312.148L837.74 302.237L837.482 302.115L821.334 294.028L821.127 293.919L807.705 287.194L807.53 287.113L796.202 281.436L796.052 281.368L786.354 276.508L786.287 276.467H786.57L786.628 276.508L796.352 281.368L796.501 281.436L807.853 287.113L808.028 287.194L821.476 293.919L821.692 294.028L837.873 302.115L838.122 302.237L857.952 312.148L858.268 312.311L883.151 324.74L883.55 324.944L915.696 341.008L916.211 341.267L959.317 362.817L960.047 363.171L1020.91 393.597L1021.95 394.114L1114.36 440.304L1116.03 441.135L1273.11 519.657L1276.1 521.142L1602.18 684.122L1605.76 685.905Z" fill="white" fill-opacity="0.18"/>
<path d="M1777.62 685.905H1775.56L1771.33 684.122L1386.72 521.142L1383.2 519.657L1197.91 441.135L1195.95 440.304L1086.94 394.114L1085.72 393.597L1013.93 363.171L1013.08 362.817L962.226 341.267L961.625 341.008L923.711 324.944L923.231 324.74L893.888 312.311L893.514 312.148L870.127 302.237L869.828 302.115L850.746 294.028L850.497 293.919L834.631 287.194L834.423 287.113L821.026 281.436L820.851 281.368L809.391 276.508L809.316 276.467H809.591L809.665 276.508L821.151 281.368L821.325 281.436L834.747 287.113L834.955 287.194L850.846 293.919L851.095 294.028L870.21 302.115L870.518 302.237L893.946 312.148L894.32 312.311L923.72 324.74L924.201 324.944L962.18 341.008L962.789 341.267L1013.74 362.817L1014.59 363.171L1086.51 393.597L1087.74 394.114L1196.93 440.304L1198.91 441.135L1384.54 519.657L1388.07 521.142L1773.38 684.122L1777.62 685.905Z" fill="white" fill-opacity="0.18"/>
<path d="M1949.47 685.905H1947.42L1942.54 684.122L1498.68 521.142L1494.62 519.657L1280.8 441.135L1278.53 440.304L1152.73 394.114L1151.33 393.597L1068.48 363.171L1067.49 362.817L1008.81 341.267L1008.1 341.008L964.361 324.944L963.807 324.74L929.938 312.311L929.513 312.148L902.524 302.237L902.175 302.115L880.151 294.028L879.86 293.919L861.552 287.194L861.319 287.113L845.86 281.436L845.653 281.368L832.422 276.508L832.338 276.467H832.612L832.695 276.508L845.952 281.368L846.16 281.436L861.642 287.113L861.875 287.194L880.218 293.919L880.5 294.028L902.557 302.115L902.906 302.237L929.938 312.148L930.372 312.311L964.296 324.74L964.841 324.944L1008.67 341.008L1009.37 341.267L1068.15 362.817L1069.14 363.171L1152.11 393.597L1153.52 394.114L1279.52 440.304L1281.79 441.135L1495.95 519.657L1500.02 521.142L1944.59 684.122L1949.47 685.905Z" fill="white" fill-opacity="0.18"/>
<path d="M2121.29 685.905H2119.23L855.359 276.467H855.634L855.733 276.508L870.751 281.368L870.976 281.436L888.528 287.113L888.794 287.194L909.58 293.919L909.904 294.028L934.897 302.115L935.294 302.237L965.93 312.148L966.42 312.311L1004.86 324.74L1005.48 324.944L1055.13 341.008L1055.94 341.267L1122.55 362.817L1123.66 363.171L1217.7 393.597L1219.3 394.114L1362.08 440.304L1364.64 441.135L1607.36 519.657L1611.96 521.142L2115.76 684.122L2121.29 685.905Z" fill="white" fill-opacity="0.18"/>
<path d="M2293.15 685.905H2291.09L878.381 276.467H878.663L878.763 276.508L895.552 281.368L895.809 281.436L915.422 287.113L915.721 287.194L938.943 293.919L939.312 294.028L967.242 302.115L967.686 302.237L1001.92 312.148L1002.46 312.311L1045.43 324.74L1046.12 324.944L1101.62 341.008L1102.51 341.267L1176.95 362.817L1178.2 363.171L1283.29 393.597L1285.08 394.114L1444.66 440.304L1447.53 441.135L1718.78 519.657L1723.93 521.142L2286.96 684.122L2293.15 685.905Z" fill="white" fill-opacity="0.18"/>
<path d="M2465 685.905H2462.94L2456.11 684.122L1834.54 521.142L1828.86 519.657L1529.42 441.135L1526.24 440.304L1350.08 394.114L1348.11 393.597L1232.1 363.171L1230.71 362.817L1148.54 341.267L1147.55 341.008L1086.28 324.944L1085.51 324.74L1038.08 312.311L1037.48 312.148L999.689 302.237L999.209 302.115L968.36 294.028L967.954 293.919L942.314 287.194L941.991 287.113L920.332 281.436L920.055 281.368L901.527 276.508L901.41 276.467H901.684L901.801 276.508L920.351 281.368L920.637 281.436L942.305 287.113L942.637 287.194L968.314 293.919L968.711 294.028L999.587 302.115L1000.08 302.237L1037.92 312.148L1038.52 312.311L1086 324.74L1086.77 324.944L1148.1 341.008L1149.09 341.267L1231.36 362.817L1232.74 363.171L1348.9 393.597L1350.86 394.114L1527.23 440.304L1530.4 441.135L1830.2 519.657L1835.88 521.142L2458.17 684.122L2465 685.905Z" fill="white" fill-opacity="0.18"/>
<path d="M2636.85 685.905H2634.79L2627.32 684.122L1946.51 521.142L1940.28 519.657L1612.29 441.135L1608.81 440.304L1415.87 394.114L1413.71 393.597L1286.63 363.171L1285.12 362.817L1195.11 341.267L1194.02 341.008L1126.92 324.944L1126.08 324.74L1074.13 312.311L1073.47 312.148L1032.08 302.237L1031.55 302.115L997.766 294.028L997.323 293.919L969.245 287.194L968.876 287.113L945.167 281.436L944.853 281.368L924.561 276.508L924.432 276.467H924.709L924.838 276.508L945.148 281.368L945.462 281.436L969.199 287.113L969.569 287.194L997.674 293.919L998.117 294.028L1031.93 302.115L1032.47 302.237L1073.91 312.148L1074.56 312.311L1126.56 324.74L1127.4 324.944L1194.59 341.008L1195.67 341.267L1285.78 362.817L1287.28 363.171L1414.49 393.597L1416.65 394.114L1609.81 440.304L1613.28 441.135L1941.61 519.657L1947.85 521.142L2629.37 684.122L2636.85 685.905Z" fill="white" fill-opacity="0.18"/>
<path d="M2808.67 685.905H2806.62L2798.5 684.122L2058.45 521.142L2051.67 519.657L1695.16 441.135L1691.38 440.304L1481.64 394.114L1479.3 393.597L1341.17 363.171L1339.52 362.817L1241.67 341.267L1240.5 341.008L1167.55 324.944L1166.65 324.74L1110.18 312.311L1109.47 312.148L1064.46 302.237L1063.89 302.115L1027.17 294.028L1026.69 293.919L996.16 287.194L995.772 287.113L969.995 281.436L969.653 281.368L947.597 276.508L947.449 276.467H947.726L947.865 276.508L969.948 281.368L970.29 281.436L996.087 287.113L996.484 287.194L1027.04 293.919L1027.52 294.028L1064.27 302.115L1064.85 302.237L1109.89 312.148L1110.61 312.311L1167.14 324.74L1168.05 324.944L1241.07 341.008L1242.23 341.267L1340.18 362.817L1341.81 363.171L1480.09 393.597L1482.42 394.114L1692.37 440.304L1696.15 441.135L2053.01 519.657L2059.78 521.142L2800.55 684.122L2808.67 685.905Z" fill="white" fill-opacity="0.18"/>
<path d="M2980.53 685.905H2978.47L2969.7 684.122L2170.41 521.142L2163.1 519.657L1778.03 441.135L1773.96 440.304L1547.43 394.114L1544.9 393.597L1395.71 363.171L1393.93 362.817L1288.26 341.267L1286.99 341.008L1208.2 324.944L1207.21 324.74L1146.23 312.311L1145.46 312.148L1096.86 302.237L1096.23 302.115L1056.56 294.028L1056.05 293.919L1023.08 287.194L1022.66 287.113L994.812 281.436L994.452 281.368L970.632 276.508L970.475 276.467H970.752L970.909 276.508L994.747 281.368L995.117 281.436L1022.98 287.113L1023.41 287.194L1056.41 293.919L1056.92 294.028L1096.61 302.115L1097.24 302.237L1145.9 312.148L1146.66 312.311L1207.71 324.74L1208.69 324.944L1287.54 341.008L1288.82 341.267L1394.59 362.817L1396.36 363.171L1545.68 393.597L1548.21 394.114L1774.95 440.304L1779.02 441.135L2164.43 519.657L2171.75 521.142L2971.75 684.122L2980.53 685.905Z" fill="white" fill-opacity="0.18"/>
<path d="M3152.38 685.905H3150.33L993.5 276.467H993.777L3152.38 685.905Z" fill="white" fill-opacity="0.18"/>
<path d="M3324.2 685.905H3322.14L1016.52 276.467H1016.8L3324.2 685.905Z" fill="white" fill-opacity="0.18"/>
<path d="M3496.06 685.905H3494L1039.54 276.467H1039.82L3496.06 685.905Z" fill="white" fill-opacity="0.18"/>
</g>
</g>
</svg>
