<svg width="30" height="30" viewBox="0 0 26 26" fill="none" xmlns="http://www.w3.org/2000/svg">
<path d="M5.52627 16.3042C5.52627 17.7572 4.35191 18.9315 2.89888 18.9315C1.44585 18.9315 0.271484 17.7572 0.271484 16.3042C0.271484 14.8511 1.44585 13.6768 2.89888 13.6768H5.52627V16.3042ZM6.83997 16.3042C6.83997 14.8511 8.01433 13.6768 9.46736 13.6768C10.9204 13.6768 12.0948 14.8511 12.0948 16.3042V22.8726C12.0948 24.3257 10.9204 25.5 9.46736 25.5C8.01433 25.5 6.83997 24.3257 6.83997 22.8726V16.3042Z" fill="white"/>
<path d="M9.46773 5.75479C8.0147 5.75479 6.84034 4.58042 6.84034 3.12739C6.84034 1.67437 8.0147 0.5 9.46773 0.5C10.9208 0.5 12.0951 1.67437 12.0951 3.12739V5.75479H9.46773ZM9.46773 7.08839C10.9208 7.08839 12.0951 8.26275 12.0951 9.71578C12.0951 11.1688 10.9208 12.3432 9.46773 12.3432H2.87935C1.42632 12.3432 0.251953 11.1688 0.251953 9.71578C0.251953 8.26275 1.42632 7.08839 2.87935 7.08839H9.46773Z" fill="white"/>
<path d="M19.9982 9.71578C19.9982 8.26275 21.1725 7.08839 22.6256 7.08839C24.0786 7.08839 25.253 8.26275 25.253 9.71578C25.253 11.1688 24.0786 12.3432 22.6256 12.3432H19.9982V9.71578ZM18.6845 9.71578C18.6845 11.1688 17.5101 12.3432 16.0571 12.3432C14.6041 12.3432 13.4297 11.1688 13.4297 9.71578V3.12739C13.4297 1.67437 14.6041 0.5 16.0571 0.5C17.5101 0.5 18.6845 1.67437 18.6845 3.12739V9.71578Z" fill="white"/>
<path d="M16.0571 20.2452C17.5101 20.2452 18.6845 21.4196 18.6845 22.8726C18.6845 24.3257 17.5101 25.5 16.0571 25.5C14.6041 25.5 13.4297 24.3257 13.4297 22.8726V20.2452H16.0571ZM16.0571 18.9315C14.6041 18.9315 13.4297 17.7572 13.4297 16.3042C13.4297 14.8511 14.6041 13.6768 16.0571 13.6768H22.6455C24.0985 13.6768 25.2729 14.8511 25.2729 16.3042C25.2729 17.7572 24.0985 18.9315 22.6455 18.9315H16.0571Z" fill="white"/>
</svg>
