<svg id="Layer_1" height="512" viewBox="0 0 512 512" width="512" xmlns="http://www.w3.org/2000/svg" data-name="Layer 1"><path d="m486.7 421.47-65.2 65.2-65.726-65.72 65.2-65.2zm-486.764-233.322a188.3 188.3 0 0 1 321.337-133.1 188.218 188.218 0 0 1 4.435 261.6 141.239 141.239 0 0 0 -104.2-104.776 69.293 69.293 0 1 0 -66.676 0 141.239 141.239 0 0 0 -104.2 104.776 186.886 186.886 0 0 1 -50.7-128.5zm148.164 3.094a56.663 56.663 0 1 0 -16.6-40.065 56.723 56.723 0 0 0 16.6 40.065zm-86.763 136a188.227 188.227 0 0 0 253.656 0 128.7 128.7 0 0 0 -217.843-69.1 127.591 127.591 0 0 0 -35.813 69.1zm256.428 14.33 20.691 20.7 23.834-23.829-20.706-20.7q-5.412 6.4-11.409 12.41t-12.41 11.414zm10.608 50.292a4.056 4.056 0 0 0 1.173 2.871l17.315 17.315 65.2-65.2-17.311-17.321a4.088 4.088 0 0 0 -5.742 0l-59.459 59.459a4.047 4.047 0 0 0 -1.173 2.871zm170.2 106.7a46.151 46.151 0 0 0 0-65.2l-2.989-2.99-65.2 65.2 2.99 2.99a46.254 46.254 0 0 0 65.195 0z" fill-rule="evenodd"/></svg>