<svg id="Layer_1" enable-background="new 0 0 34 34" height="512" viewBox="0 0 34 34" width="512" xmlns="http://www.w3.org/2000/svg"><g><g><g><path d="m23.7 18.7c-1.7 3.5-5.3 6-9.5 6-5.7 0-10.5-4.7-10.5-10.5 0-5.7 4.6-10.5 10.5-10.5 2.8 0 5.5 1.1 7.5 3.1 1.2 1.2 2 2.6 2.5 4.1l2.3-2.3c-.7-1.5-1.6-2.8-2.8-4-2.6-2.5-6-4-9.6-4-7.4.1-13.5 6.2-13.5 13.6 0 7.5 6.1 13.5 13.5 13.5 7 0 12.6-5.3 13.4-11.8-1.5 1.4-2.1 2.8-3.8 2.8z"/></g></g><g><g><g><path d="m32.2 32.2c-1.5 1.5-4 1.5-5.6 0l-4.6-4.6c1.1-.7 2.2-1.5 3.1-2.4 1-1 1.8-2 2.5-3.2l4.6 4.6c1.5 1.5 1.6 4 0 5.6z"/></g></g></g><g><g><path d="m31.3 9.4-1.9 1.9-5.2 5.1c-.4.4-1 .4-1.4 0l-3.3-3.3-5.2 5.2c-.4.4-1 .4-1.4 0l-2.3-2.3-3.3 3.3c-.4-.5-.8-1.2-1.1-1.8l3.7-3.5c.4-.4 1-.4 1.4 0l2.3 2.3 5.2-5.2c.4-.4 1-.4 1.4 0l2.4 2.4.9.9 5.3-5.3 1.1-1.1c.4-.4 1-.4 1.4 0s.4 1 0 1.4z"/></g></g></g></svg>