<svg id="Capa_1" enable-background="new 0 0 512 512" height="512" viewBox="0 0 512 512" width="512" xmlns="http://www.w3.org/2000/svg"><path d="m79.834 22.355-21.133-21.133-57.695 57.695 57.695 57.694 21.133-21.132-21.618-21.619h84.399v-29.886h-84.399z"/><path d="m453.299 1.222-21.133 21.133 21.618 21.619h-84.399v29.886h84.399l-21.618 21.619 21.133 21.132 57.695-57.694z"/><path d="m256.582 47.283c32.098 0 58.212 26.114 58.212 58.212v39.554c15.918-15.34 25.836-36.863 25.836-60.716 0-46.576-37.757-84.333-84.333-84.333s-84.333 37.757-84.333 84.333c0 24.136 10.155 45.886 26.406 61.259v-40.098c0-32.098 26.113-58.211 58.212-58.211z"/><path d="m431.854 229.783c-16.133 0-29.212 13.079-29.212 29.212v-19c0-16.133-13.079-29.212-29.212-29.212-16.133 0-29.212 13.079-29.212 29.212v-16c0-16.133-13.079-29.212-29.212-29.212-16.133 0-29.212 13.079-29.212 29.212v-118.5c0-16.133-13.079-29.212-29.212-29.212-16.133 0-29.212 13.079-29.212 29.212v152.57c-25.991 2.076-46.508 23.877-46.508 50.393v63.439l66.057 82.41-.377 57.693h168.437l.276-57.993 45.811-71.352v-123.66c-.001-16.134-13.079-29.212-29.212-29.212z"/></svg>