<svg id="Start_Up" height="512" viewBox="0 0 1000 1000" width="512" xmlns="http://www.w3.org/2000/svg"><g><path d="m121.894 253.387 64.254 25.712c6.575 2.633 12.584 4.812 19.57 4.812h.002c7.352 0 13.227-2.462 19.094-5.205l17.92-8.408c.213.088 2.217.899 2.217.899 30.49 12.159 61.018 24.231 91.553 36.291-30.301 91.28-38.732 210.618 26.637 280.612-13.732 24.686-27.73 49.531-41.334 73.678-35.527 63.061-72.262 128.266-106.031 193.713-6.219 11.27-3.053 25.021 7.67 32.93 4.018 2.967 8.029 5.549 11.91 8.049 1.674 1.076 3.347 2.152 4.988 3.244 4.164 2.771 8.936 4.236 13.798 4.236.317 0 .636-.008.953-.018 2.534.215 5.069.498 7.603.777 5.744.635 11.682 1.289 18.35 1.375.34 0 .68-.008 1.019-.021.575.041 1.149.061 1.725.061 9.213 0 17.594-5.189 21.875-13.543 35.528-69.332 73.819-138.973 110.849-206.32 7.928-14.424 15.857-28.842 23.764-43.266 18.76 7.242 38.742 10.9 59.629 10.9 16.554 0 33.269-2.318 49.934-6.924-4.882 39.693-9.542 79.84-14.062 118.775-5.32 45.824-10.82 93.211-16.664 139.717-3.052 24.262 2.762 35.771 22.209 43.979l.689.291c4.553 1.93 9.997 4.117 15.863 5.727 2.213.605 4.478.91 6.735.91 1.7 0 3.394-.172 5.058-.516 4.234-.531 8.744-.752 13.502-.984 2.121-.102 4.237-.209 6.346-.336 27.365-1.678 32.971-18.133 34.846-34.01 7.877-66.563 14.77-134.299 21.435-199.807 3.927-38.598 7.987-78.506 12.201-117.703 2.386-22.203 3.519-23.369 8.972-28.979 9.18-9.449 18.055-19.709 26.563-30.697 2.172 6.293 4.297 12.439 6.367 18.016 10.91 29.385 21.792 58.781 32.674 88.18l14.285 38.588c7.061 19.064 14.008 38.754 20.727 57.793 14.229 40.332 28.941 82.037 46.16 122 5.055 11.729 11.988 19.289 21.207 23.117 5.777 2.393 15.734 2.559 18.003 2.564.54.035 1.081.053 1.624.053 3.865 0 7.623-.871 11.154-2.578 1.964-.947 4.072-1.756 6.193-2.59 3.047-1.199 6.501-2.557 9.975-4.285 26.646-13.262 18.293-35.572 14.279-46.291-26.301-70.285-51.641-142.381-76.146-212.102-19.883-56.566-40.441-115.059-61.434-172.363l-.43-1.169c-2.789-7.552-4.422-12.984-1.793-19.442 35.898-88.206 60.585-221.626 12.008-307.345-25.357-44.739-66.844-71.843-123.317-80.557-1.352-.206-2.663-.301-3.935-.301-.891 0-1.777.047-2.658.14-6.598-.754-13.287-1.136-19.903-1.136-47.957 0-96.813 19.988-145.213 59.409-41.299 33.643-78.346 80.676-107.828 136.739-29.881-11.794-59.754-23.608-89.589-35.5l-.882-.351c-1.326-.528-2.885-1.149-3.912-1.604-.248-.523-.601-1.326-1.066-2.522l-5.467-14.067c-4.033-10.354-8.609-22.092-25.576-28.88l-65.591-26.244c-5.779-2.312-12.331-4.934-19.294-4.934-8.193 0-15.402 3.684-19.783 10.105-8.123 11.911-2.402 26.503.043 32.731 2.813 7.173 5.615 14.351 8.402 21.535-7.485 3.513-14.979 7.012-22.466 10.502-14.243 6.622-21.306 15.723-20.991 27.047.311 11.272 7.9 19.952 22.531 25.791z" fill="#fff"/><g><path d="m129.172 235.208c21.418 8.571 42.838 17.142 64.256 25.713 11.596 4.644 13.719 4.43 23.094.048 6.31-2.95 12.615-5.914 18.918-8.878 7.248-3.404 9.953-1.799 16.766.917 36.322 14.486 72.699 28.851 109.078 43.211-32.92 86.803-50.836 220.987 26.256 288.27-51.618 93.254-105.674 185.588-154.528 280.303-1.716 2.924-.454 6.016 2.064 7.875 5.19 3.832 10.749 7.178 16.118 10.746 1.345.895 2.658 1.098 3.846.871 8.635.641 17.271 2.104 25.924 2.219.509.006.975-.049 1.41-.145 2.162.557 4.525-.092 5.865-2.707 45.915-89.602 95.293-177.658 143.59-266.004 39.548 20.99 85.873 21.648 129.91 4.82 9.354-3.57 10.57 2.451 8.93 15.631-11.176 89.877-20.832 179.945-32.125 269.807-2.34 18.615 1.525 19.742 11.106 23.797 4.396 1.863 8.849 3.623 13.389 4.869 1.16.316 2.196.266 3.114-.004 7.354-1.008 14.785-1.125 22.17-1.578 12.592-.771 15.119-4.275 16.595-16.764 12.499-105.605 22.243-211.564 33.613-317.301 2.517-23.418 4.194-30.037 14.396-40.533 17.266-17.773 32.543-37.67 45.954-58.688 6.79 15.209 13.321 36.523 19.376 52.834 15.689 42.248 31.313 84.521 46.967 126.785 21.967 59.311 41.432 120.643 66.506 178.842 3.276 7.604 6.852 11.17 10.719 12.775 1.863.771 10.699 1.186 11.201 1.049 1.111.189 2.33.049 3.576-.553 5.023-2.426 10.777-4.195 15.953-6.771 10.344-5.148 9.268-9.605 4.664-21.896-47.712-127.508-90.797-256.754-137.627-384.595-2.869-7.837-7.939-20.067-1.975-34.726 50.912-125.089 76.32-334.555-96.152-361.165-1.154-.178-2.188-.022-3.107.328-.554-.076-1.084-.195-1.643-.263-57.088-6.924-108.369 18.655-151.611 53.876-47.527 38.713-84.181 91.516-110.773 146.324-35.439-13.981-70.878-27.976-106.266-42.081-9.797-3.908-12.664-4.765-16.859-15.581-1.817-4.682-3.635-9.361-5.455-14.038-3.851-9.876-5.791-14.284-14.607-17.812-21.655-8.664-43.311-17.328-64.963-25.993-10.615-4.24-22.697-9.446-14.159 12.323 5.042 12.857 10.05 25.733 15.007 38.625-12.992 6.154-26.014 12.244-39.045 18.315-17.046 7.926-8.116 13.44.564 16.903z" fill="#68182b"/><path d="m397.486 592.363c2.157 2.115 4.336 4.178 6.564 6.127-5.322 14.332-16.211 30.066-23.58 43.672-17.013 31.412-34.172 62.748-51.334 94.08-24.758 45.201-50.836 89.906-74.438 135.732-3.104-2.018-6.188-4.061-9.258-6.129 47.945-92.543 100.709-182.875 151.207-274.057.271.198.568.376.839.575z" fill="#fbf199"/><path d="m279.801 874.932c-6.02-.162-12.033-.9-18.043-1.547 23.854-46.139 50.086-91.197 75.031-136.736 17.029-31.088 34.043-62.188 50.923-93.355 6.937-12.807 16.361-26.328 21.987-40.197 3.971 3.15 8.025 6.086 12.186 8.746-47.773 87.386-96.592 174.495-142.084 263.089z" fill="#aa8053"/><path d="m548.671 918.867c12.281-96.57 22.52-193.393 34.643-289.98 1.956-15.629 4.42-18.074 15.898-25.104-13.049 106.695-25.279 213.527-37.316 320.342-4.473-1.521-8.877-3.377-13.225-5.258z" fill="#fbf199"/><path d="m592.8 923.178c-7.959.895-16.057 1.039-24.085 1.727 11.378-100.99 22.925-202 35.176-302.896 2.303-18.971 6.202-24.613 19.403-34.947 1.937-1.516 3.853-3.059 5.748-4.623-12.432 113.524-22.726 227.338-36.242 340.739z" fill="#aa8053"/><path d="m728.122 548.154c-5.195-13.996-9.645-28.898-15.288-43.016-4.317-10.792-5.341-17.25.292-27.407 6.889 16.078 12.512 36.092 18.436 52.442 15.617 43.105 31.154 86.244 46.699 129.381 24.398 67.707 47.893 135.842 73.398 203.148-2.158-.002-4.306-.082-6.443-.299-27.662-62.535-48.469-128.996-72.196-193.061-14.96-40.397-29.901-80.803-44.898-121.188z" fill="#fbf199"/><path d="m869.618 855.465c-2.24 1.16-5.08 2.348-7.077 3.232-1.437.635-2.894 1.229-4.349 1.832-25.455-67.199-48.913-135.215-73.271-202.813-15.844-43.969-31.688-87.941-47.605-131.885-4.105-11.332-7.686-23.412-11.822-35.181-5.084-14.45-7.463-21.345.096-36.938 49.128 133.497 93.98 268.597 144.028 401.753z" fill="#aa8053"/><path d="m722.627 432.851c-27.778 65.483-73.372 128.766-135.484 165.104-40.8 23.869-88.012 31.744-129.907 17.973 30.318 3.277 62.148-3.723 89.843-15.004 55.172-22.477 96.215-69.363 127.955-118.22 33.273-51.22 53.068-111.05 65.96-170.365 11.97-55.065 13.44-118.925-9.608-171.485-6.303-14.373-14.564-27.636-24.621-38.998 91.503 67.124 56.926 234.192 15.862 330.995z" fill="#ff8e5b"/><path d="m659.528 81.715c53.138 18.354 72.05 80.545 76.94 130.646 6.064 62.14-10.49 125.312-31.457 183.313-36.748 101.65-129.698 226.333-252.679 207.972-17.688-2.643-33.068-9.357-46.234-18.92-.697-.678-1.408-1.328-2.096-2.021-.709-.715-1.471-1.168-2.247-1.432-26.388-21.244-43.257-54.182-51.282-87.886-15.18-63.765-1.312-132.673 21.479-192.941 8.945 3.527 17.886 7.071 26.831 10.598-29.826 78.724-42.269 216.714 62.782 244.423 39.837 10.506 84.349-7.373 116.197-30.297 41.918-30.167 70.919-78.21 90.23-125.145 30.273-73.567 57.883-208.705-28.771-256.817-38.207-21.212-85.703-6.788-120.396 14.043-46.303 27.805-81.36 74.943-105.9 122.307-9.096-3.584-18.185-7.184-27.278-10.771 46.589-94.842 153.163-228.766 273.881-187.072z" fill="#d5d5d5"/><path d="m508.892 354.505c10.387 4.115 20.943 1.826 25.479-9.106 1.806-4.356.832-9.323-1.041-13.432-2.44-5.356-8.001-8.03-13.134-10.065-3.111-1.232-6.223-2.453-9.332-3.683 13.143-16.274 40.914-39.693 53.148-8.206 5.418 13.936.452 30.423-3.822 43.881-5.537 17.434-17.735 33.979-35.129 40.64-29.753 11.395-32.472-25.274-29.023-45.102 4.284 1.693 8.571 3.378 12.854 5.073z" fill="#ff0001"/><path d="m544.013 397.608c11.576-9.434 20.684-23.397 24.93-34.501 4.137-10.83 9.01-27.198 8.922-42.279-.218-37.891-22.648-54.031-58.701-27.036-7.454 5.581-14.092 12.838-19.425 20.036-12.17-4.814-24.346-9.613-36.521-14.417 24.86-43.098 77.67-104.495 132.997-77.556 51.247 24.951 29.35 110.91 15.201 150.9-17.951 50.737-59.945 104.179-118.517 102.553-31.297-.87-48.127-30.557-54.049-57.352-6.362-28.779.275-59.721 9.988-87.156 12.104 4.776 24.211 9.55 36.311 14.333-2.388 10.854-3.354 22.592-1.252 33.028 7.747 38.464 38.501 37.07 60.116 19.447z" fill="#d5d5d5"/><path d="m480.498 484.8c63.332 19.901 119.912-51.803 139.341-102.056 19.594-50.686 38.451-135.555-17.814-170.831-58.603-36.743-124.208 38.594-149.621 83.229-9.578-3.777-19.152-7.566-28.729-11.342 36.595-69.55 112.387-161.162 200.608-134.504 40.669 12.291 55.535 59.034 59.832 96.551 5.324 46.502-6.949 93.722-22.033 137.344-27.172 78.595-97.33 175.076-191.96 162.263-42.328-5.732-67.094-43.047-76.879-81.336-12.523-49.014-1.277-102.496 16.215-148.861 9.572 3.773 19.141 7.558 28.713 11.333-18.748 53.614-24.058 137.351 42.327 158.21z" fill="#ff0001"/><path d="m517.133 333.006c4.376 1.731 7.769 4.513 6.137 9.329-1.638 4.83-8.232 2.289-11.315 1.066-85.195-33.743-170.525-67.152-255.636-101.103 5.355-2.538 7.639-4.083 5.246-10.373 85.089 33.948 170.405 67.328 255.568 101.081z" fill="#aa8053"/><path d="m249.601 232.783c-14.662 6.946-29.359 13.812-44.067 20.652-22.462-8.988-44.921-17.974-67.379-26.962 10.612-4.938 21.224-9.876 31.808-14.87 12.273-5.795 12.224-5.854 6.895-19.638-4.063-10.508-8.182-20.998-12.296-31.49 22.462 8.985 44.924 17.976 67.386 26.962 5.929 15.097 11.833 30.204 17.653 45.346z" fill="#fac135"/><path d="m380.47 642.162c7.369-13.605 18.258-29.34 23.58-43.672-2.229-1.949-4.407-4.012-6.564-6.127-.271-.199-.568-.377-.838-.574-20.252 36.564-40.861 72.998-61.382 109.488-12.379 30.221-24.821 60.416-37.114 90.67 10.377-18.559 20.789-37.092 30.984-55.705 17.163-31.332 34.322-62.668 51.334-94.08z" fill="#f3af79"/><path d="m765.031 622.898c-11.143-30.914-22.277-61.83-33.469-92.725-5.924-16.35-11.547-36.364-18.436-52.442-5.633 10.157-4.609 16.615-.292 27.407 5.644 14.117 10.093 29.02 15.288 43.016 14.997 40.385 29.938 80.791 44.897 121.189 9.056 24.449 17.69 49.25 26.438 74.045-11.639-40.117-23.208-80.257-34.426-120.49z" fill="#f3af79"/><path d="m560.568 820.711c7.338-31.307 14.563-62.643 21.671-94.004 1.628-7.186 3.218-14.379 4.831-21.568 3.986-33.795 8.012-67.582 12.143-101.355-11.479 7.029-13.942 9.475-15.898 25.104-8.021 63.885-15.241 127.872-22.747 191.823z" fill="#f3af79"/><path d="m458.893 352.365c-15.993 33.339-11.552 106.105 38.515 107.765 77.9 2.577 158.173-175.076 96.097-219.71-37.477-26.948-87.539 10.081-102.355 45.538-1.639 3.924 1.709 5.046 4.34 2.242 39.655-42.298 79.755-32.372 92.207 2.543 17.258 48.411-20.974 113.503-58.052 132.545-34.038 17.479-74.287 7.868-64.473-69.778.74-5.854-3.815-6.283-6.279-1.145z" fill="#efefef"/><g fill="#bebebe"><path d="m468.011 192.105c-17.938 19.094-33.431 41.056-44.801 64.653-2.535 5.265-4.732 10.675-6.748 16.152 24.331-45.088 58.225-89.157 102.361-115.66 34.693-20.831 82.189-35.255 120.396-14.043 70.309 39.037 65.393 135.365 44.865 209.614 1.457-3.765 2.826-7.565 3.912-11.491 4.626-16.748 8.328-33.676 10.691-50.894 3.486-25.424 2.561-51.313-3.088-76.347-9.713-43.035-40.539-82.104-86.699-85.829-54.434-4.393-104.871 25.507-140.889 63.845z"/><path d="m737.704 235.295c-1.043 43.682-11.531 87.385-25.45 128.47-18.925 55.857-47.499 109.472-86.522 153.899-39.697 45.197-97.643 84.496-160.18 80.813-65.874-3.879-100.382-61.922-112.491-120.258-10.648-51.306-3.746-101.766 9.711-151.29-16.965 53.493-25.297 111.853-12.299 166.459 8.025 33.705 24.895 66.642 51.282 87.886.776.264 1.538.717 2.247 1.432.688.693 1.398 1.344 2.096 2.021 13.166 9.563 28.547 16.277 46.234 18.92 122.981 18.361 215.931-106.322 252.679-207.972 18.393-50.877 33.379-105.733 32.693-160.38z"/><path d="m438.849 417.957c5.922 26.795 22.752 56.481 54.049 57.352 58.572 1.626 100.566-51.815 118.517-102.553 8.58-24.256 19.984-65.409 16.217-99.618-.111 10.688-.53 21.284-2.165 32.149-2.835 18.844-8.021 37.323-14.443 55.238-12.853 35.862-32.403 70.774-64.581 92.438-17.576 11.832-39.762 20.803-61.164 16.429-13.414-2.741-24.041-13.425-31.311-24.383-20.933-31.558-15.068-69.364-8.435-104.309-7.795 24.846-12.293 51.891-6.684 77.257z"/><path d="m519.163 293.792c36.053-26.995 58.483-10.854 58.701 27.036.088 15.081-4.785 31.449-8.922 42.279-3.609 9.439-10.754 20.921-19.919 29.952 34.733-31.464 47.109-92.195 20.87-110.887-15.836-11.279-37.533-3.969-51.799 7.859-6.498 5.388-13.434 13.998-18.157 23.541 5.303-7.114 11.86-14.264 19.226-19.78z"/></g><path d="m373.332 331.256c-17.942 46.203-20.52 102.929-10.627 150.364 8.596 41.229 32.236 79.499 71.271 96.368 96.456 41.689 186.892-52.121 229.496-127.134 52.387-92.235 105.754-234.169 29.66-327.293-60.773-74.377-177.166-14.138-227.546 39.968-12.158 13.056-22.373 27.946-30.42 43.842-2.359 4.659.708 6.877 4.102 2.397 12.186-16.089 28.231-35.216 48.508-51.02 113.827-88.724 219.06-23.884 221.609 89.991 1.297 57.743-18.682 129.586-43.885 180.521-38.482 77.767-115.725 163.958-216.23 138.718-93.861-23.574-93.228-161.378-69.313-235.072 2.888-8.944-3.088-10.781-6.625-1.65z" fill="#efefef"/><path d="m205.534 253.435c13.499-6.278 26.983-12.591 40.444-18.954-1.936-.771-4.102-1.282-6.551-1.398-14.105-.67-64.509 22.338-58.902-10.171 1.025-5.952 6.754-10.016 8.211-15.776 1.222-4.821.512-8.3-1.232-12.991-3.6-9.693-11.951-17.022-19.275-24.276 2.885 7.362 5.777 14.725 8.629 22.098 5.329 13.784 5.379 13.843-6.895 19.638-10.584 4.994-21.195 9.933-31.808 14.87 22.458 8.986 44.917 17.972 67.379 26.96z" fill="#ee9e2b"/><path d="m225.752 206.062c-3.027-5.925-10.035-14.409-17.48-18.477-9.27-5.064-9.949-3.999-7.597 6.13 1.058 4.551.962 8.868-1.97 14.319-1.967 3.656-6.373 9.804-4.763 14.344 3.245 9.159 15.239 7.264 22.554 4.569 8.42-3.098 13.568-12.441 9.256-20.885z" fill="#fbe134"/><path d="m462.039 279.733c29.928-44.238 87.729-100.585 139.986-67.819 56.266 35.276 37.408 120.146 17.814 170.831-3.129 8.093-7.234 16.741-12.162 25.475 8.752-10.82 14.959-25.041 20.148-36.451 9.34-20.53 15.377-42.411 17.871-64.806 4.254-38.212-5.643-84.415-42.847-103.062-33.39-16.736-72.402.752-99.323 21.721-15.671 12.205-28.324 28.609-37.443 46.169-1.263 2.433-2.65 5.116-4.044 7.942z" fill="#c30001"/><path d="m662.081 383.192c15.084-43.622 27.357-90.842 22.033-137.344-.895-7.813-2.283-16.021-4.232-24.236 3.314 48.882-3.771 111.151-28.528 169.504-29.858 70.37-95.301 141.693-158.321 146.634-68.396 5.355-118.432-69.208-91.31-199.993-12.696 40.683-19.024 85.099-8.481 126.361 9.785 38.29 34.551 75.604 76.879 81.336 94.63 12.814 164.788-83.667 191.96-162.262z" fill="#c30001"/><path d="m533.33 331.967c1.873 4.108 2.847 9.075 1.041 13.432-1.174 2.831-2.767 5.057-4.642 6.768 4.612-2.914 6.609-9.041 6.727-14.188.13-5.79-2.838-11.972-7.605-15.291-4.162-2.898-11.023-5.013-16.539-3.897 2.627 1.037 5.256 2.071 7.885 3.112 5.132 2.034 10.693 4.708 13.133 10.064z" fill="#c30001"/><path d="m525.062 394.534c17.394-6.66 29.592-23.206 35.129-40.64 4.274-13.458 9.24-29.945 3.822-43.881-1.844-4.747-4.047-8.228-6.494-10.692 2.413 4.437 3.592 9.67 4.205 14.783 2.141 17.822-4.455 34.164-13.071 49.355-7.466 13.162-26.348 32.638-43.103 23.618-6.015-3.238-8.956-10.742-10.509-18.666 1.135 17.479 8.51 34.36 30.021 26.123z" fill="#c30001"/><path d="m472.174 236.862c81.152-79.661 170.335-78.764 187.187 8.738 5.206 27.027 9.146 25.396 9.424-.51.516-47.872-29.949-88.584-82.23-88.674-47.154-.081-90.203 37.784-117.787 76.236-11.102 15.478-9.497 16.882 3.406 4.21z" fill="#ff525b"/><path d="m418.363 484.469c14.037 30.503 46.365 47.324 79.814 42.052 39.748-6.262 69.443-30.022 95.637-63.413 12.779-16.291 12.298-19.075-3.755-5.55-54.717 46.115-130.326 62.085-166.572 23.874-9.374-9.877-10.914-9.553-5.124 3.037z" fill="#ff525b"/><path d="m457.236 615.928c41.895 13.771 89.107 5.896 129.907-17.973 62.112-36.338 107.706-99.621 135.484-165.104 15.378-36.255 29.847-82.368 37.124-129.396-15.246 71.586-72.295 240.28-212.672 297.469-27.695 11.281-59.525 18.281-89.843 15.004z" fill="#ff564d"/><path d="m731.386 140.853c16.879 38.486 20.572 83.025 16.662 125.739 1.826-13.499 2.91-27.112 3.086-40.884.389-30.368-4.445-61.363-15.551-89.683-1.211-3.095-2.496-6.281-3.822-9.487-7.027-9.204-15.257-17.54-24.996-24.684 10.057 11.363 18.318 24.626 24.621 38.999z" fill="#fbc471"/><path d="m737.316 525.832c15.918 43.943 31.762 87.916 47.605 131.885 9.813 27.225 19.485 54.516 29.193 81.795-7.002-23.938-13.955-47.893-20.871-71.857-11.708-41.17-23.297-82.373-35.016-123.521-10.742-30.193-21.574-60.349-32.639-90.42-7.559 15.594-5.18 22.488-.096 36.938 4.138 11.768 7.718 23.848 11.824 35.18z" fill="#865725"/><path d="m522.679 343.393c-86.572-35.95-173.912-70.287-261.113-104.543-1.005 1.307-2.781 2.28-5.248 3.449 85.111 33.95 170.441 67.359 255.636 101.103 2.809 1.113 8.489 3.258 10.725-.009z" fill="#865725"/><path d="m629.042 582.438c-1.896 1.564-3.812 3.107-5.748 4.623-3.555 2.783-6.42 5.229-8.775 7.684-.369 12.447-1.643 25.047-2.148 37.063-1.644 39.135-3.606 78.26-5.637 117.377-1.674 32.182-3.385 64.361-5.161 96.541 9.522-87.722 17.866-175.591 27.469-263.288z" fill="#865725"/><path d="m421.885 611.842c-3.125-1.998-6.174-4.195-9.189-6.48-15.002 34.758-32.574 68.756-48.509 102.828-9.917 21.201-19.883 42.383-29.84 63.566 28.911-53.467 58.413-106.641 87.538-159.914z" fill="#865725"/></g></g></svg>