<svg id="a" height="512" viewBox="0 0 64 64" width="512" xmlns="http://www.w3.org/2000/svg"><path d="m17.07 36.183v-6.417c0-.291-.167-.555-.43-.679-.262-.123-.573-.084-.797.101l-13.321 10.999c-.172.142-.272.354-.272.578s.1.436.272.578l13.32 11c.224.186.535.224.797.101.263-.124.43-.388.43-.679v-5.948c5.861 1.261 10.18 6.522 10.18 12.581v2.594c0 .414.336.75.75.75h8c.414 0 .75-.336.75-.75v-2.594c0-11.241-8.59-20.868-19.68-22.216z"/><path d="m61.478 30.347-13.32-11c-.225-.185-.535-.224-.797-.101-.263.124-.43.388-.43.679v6.316c-3.64.234-7.121 1.409-10.18 3.43v-12.607h6.25c.291 0 .555-.167.679-.43s.084-.573-.101-.797l-11.001-13.321c-.284-.345-.872-.345-1.156 0l-11 13.32c-.185.224-.224.535-.101.797.124.263.388.43.679.43h6.25v21.295c4.322 2.806 7.687 6.943 9.5 11.784v-2.93c0-5.885 4.412-10.767 10.18-11.441v6.154c0 .291.167.555.43.679s.573.085.797-.101l13.32-11c.172-.142.272-.354.272-.578s-.1-.436-.272-.578z"/></svg>