<svg id="Capa_1" enable-background="new 0 0 510 510" height="512" viewBox="0 0 510 510" width="512" xmlns="http://www.w3.org/2000/svg"><g id="XMLID_323_"><path id="XMLID_327_" d="m375 255c0-66.169-53.832-120-120-120-84.459-1.381-144.654 89.973-110.478 166.839l59.265-59.265 63.64 63.639-59.266 59.266c76.879 34.174 168.217-26.024 166.839-110.479zm-135-45h-30v-30h30zm90 90h-30v-30h30zm-25.606-115.606 21.213 21.213-30 30-21.213-21.213z"/><path id="XMLID_326_" d="m510 297.708v-85.416l-51.316-8.549c-4.988-19.931-12.835-38.867-23.419-56.51l30.247-42.345-60.4-60.4-42.345 30.248c-17.644-10.584-36.579-18.432-56.51-23.42l-8.549-51.316h-85.416l-8.549 51.316c-19.931 4.988-38.867 12.836-56.51 23.42l-42.345-30.248-60.4 60.4 30.248 42.345c-10.584 17.643-18.432 36.579-23.42 56.51l-51.316 8.549v85.416l51.313 8.549c5.511 22.056 14.509 42.813 26.825 61.966l43.883-43.883c-52.615-97.135 21.938-220.853 132.981-219.338 82.708-.002 149.998 67.288 149.998 149.998 1.502 111.033-122.203 185.606-219.339 132.979l-43.883 43.883c19.152 12.316 39.91 21.314 61.966 26.825l8.548 51.313h85.416l8.549-51.316c19.931-4.987 38.866-12.835 56.51-23.419l42.345 30.247 60.4-60.4-30.247-42.345c10.584-17.644 18.432-36.579 23.419-56.51z"/><path id="XMLID_325_" d="m3.545 394.303h194.303v30h-194.303z" transform="matrix(.707 -.707 .707 .707 -259.928 191.086)"/><path id="XMLID_324_" d="m185.68 292.5h33.64v30h-33.64z" transform="matrix(.707 -.707 .707 .707 -158.125 233.254)"/></g></svg>