<svg height="512" viewBox="0 0 24 24" width="512" xmlns="http://www.w3.org/2000/svg"><g id="Layer_2" data-name="Layer 2"><path d="m15 17.75a6.75 6.75 0 1 1 6.75-6.75 6.758 6.758 0 0 1 -6.75 6.75zm0-12a5.25 5.25 0 1 0 5.25 5.25 5.256 5.256 0 0 0 -5.25-5.25z"/><path d="m22 19.75a.751.751 0 0 1 -.565-.256l-3.05-3.494a.75.75 0 0 1 1.13-.987l3.05 3.49a.75.75 0 0 1 -.565 1.247z"/><path d="m8 6.75h-6a.75.75 0 0 1 0-1.5h6a.75.75 0 0 1 0 1.5z"/><path d="m6 10.75h-4a.75.75 0 0 1 0-1.5h4a.75.75 0 0 1 0 1.5z"/><path d="m7 14.75h-5a.75.75 0 0 1 0-1.5h5a.75.75 0 0 1 0 1.5z"/></g></svg>