<svg height="512" viewBox="0 0 32 32" width="512" xmlns="http://www.w3.org/2000/svg"><g id="megaphone"><path d="m15.1914063 3.0454102c-.2246094-.2246094-.5415039-.3320313-.855957-.2817383-.3134766.046875-.5864258.2402344-.7348633.5209961l-6.2929688 11.8876953-3.4301758 3.4296875c-1.0551758 1.0561523-1.3779297 2.5556641-1.0048828 3.9003906-1.2348633 1.5683594-1.1469727 3.8452148.2983398 5.2924805.7802735.7792969 1.8046875 1.1689453 2.8291016 1.1689453.875 0 1.7402344-.3022461 2.4628906-.8710938.3510742.0976563.7094727.1640625 1.0717773.1640625.7016602-.0004883 1.3979492-.1972656 2.0209961-.5629883l2.5761719 2.5751953c.4868164.4873047 1.1269531.7304688 1.7670898.7304688s1.2807617-.2431641 1.7680664-.7304688c.9746094-.9746094.9746094-2.5605469 0-3.5351563l-2.4750977-2.4750977.6010742-.6010742 11.8876953-6.2939453c.2802734-.1484375.4736328-.4213867.5214844-.7353516.046875-.3134766-.0576172-.6313477-.2822266-.8554688zm-10.6059571 23.3349609c-.5209961-.5214844-.6860352-1.2592773-.5107422-1.925293l2.4355469 2.4355469c-.6655273.175293-1.4033203.0107422-1.9248047-.5102539zm3.5356446-.7070313-2.8291016-2.8291016c-.7792969-.7792969-.7792969-2.0483398 0-2.828125l2.8291016-2.8291016 5.6572266 5.6572266-2.8291016 2.8286133c-.7792969.7802735-2.0478516.7807618-2.828125.0004883zm8.1318359 2.4746094c.1254883.1254883.1445313.2753906.1445313.3535156s-.019043.2280273-.144043.3530273c-.1914063.1904297-.5151367.1928711-.7075195.0004883l-2.4755859-2.4746094.7075195-.7075195zm-.8759766-6.5327148-6.0263672-6.0273438 5.3842773-10.1708984 10.8139648 10.8129883zm3.6230469-17.6147461v-2c0-.5522461.4472656-1 1-1s1 .4477539 1 1v2c0 .5522461-.4472656 1-1 1s-1-.4477539-1-1zm11 6.9995117c0 .5522461-.4472656 1-1 1h-2c-.5527344 0-1-.4477539-1-1s.4472656-1 1-1h2c.5527344 0 1 .4477539 1 1zm-6.7070312-3.2929687c-.390625-.390625-.390625-1.0234375 0-1.4140625l2-2c.390625-.390625 1.0234375-.390625 1.4140625 0s.390625 1.0234375 0 1.4140625l-2 2c-.1953125.1953125-.4511719.2929687-.7070313.2929687s-.5117187-.0976562-.7070312-.2929687z"/></g></svg>