<svg xmlns="http://www.w3.org/2000/svg" version="1.1" xmlns:xlink="http://www.w3.org/1999/xlink" width="512" height="512" x="0" y="0" viewBox="0 0 512 512" style="enable-background:new 0 0 512 512" xml:space="preserve" class=""><g><path d="M114 206H50c-27.57 0-50 22.43-50 50v206c0 27.57 22.43 50 50 50h64c27.57 0 50-22.43 50-50V256c0-27.57-22.43-50-50-50zm10 256c0 5.514-4.486 10-10 10H50c-5.514 0-10-4.486-10-10V256c0-5.514 4.486-10 10-10h64c5.514 0 10 4.486 10 10v206zM462 206H257c-27.57 0-50 22.43-50 50v206c0 27.57 22.43 50 50 50h205c27.57 0 50-22.43 50-50V256c0-27.57-22.43-50-50-50zm10 256c0 5.514-4.486 10-10 10H257c-5.514 0-10-4.486-10-10V256c0-5.514 4.486-10 10-10h205c5.514 0 10 4.486 10 10v206zM462 0H50C22.43 0 0 22.43 0 50v64c0 27.57 22.43 50 50 50h412c27.57 0 50-22.43 50-50V50c0-27.57-22.43-50-50-50zm10 114c0 5.514-4.486 10-10 10H50c-5.514 0-10-4.486-10-10V50c0-5.514 4.486-10 10-10h412c5.514 0 10 4.486 10 10v64z" fill="#eb5095" opacity="1" data-original="#000000" class=""></path></g></svg>