<svg xmlns="http://www.w3.org/2000/svg" version="1.1" xmlns:xlink="http://www.w3.org/1999/xlink" width="512" height="512" x="0" y="0" viewBox="0 0 64 64" style="enable-background:new 0 0 512 512" xml:space="preserve"><g><path d="M48.269 16.648c-5.41-9.89-14.2-18.09-20.5-14.64-1.983 1.092-3.133 3.017-3.606 5.445-.235 1.209-.679 2.303-1.314 3.355-5.47 9.01-9.08 13.51-17.28 18a9.95 9.95 0 0 0-4.96 6.01c-.8 2.73-.37 5.67 1.16 8.07 1.84 2.89 5.02 4.47 8.31 4.47.42 0 .84-.03 1.255-.081l1.916 9.424a7.539 7.539 0 0 0 3.254 4.828 7.656 7.656 0 0 0 5.718 1.114c4.108-.844 6.766-4.865 5.926-8.959l-2.365-11.686c3.942-.791 8.163-.911 13.726-.781 1.211.022 2.371.18 3.504.633 1.21.484 2.369.727 3.456.727 1.12 0 2.16-.25 3.1-.77 2.92-1.6 4.23-5.33 3.69-10.51-.47-4.429-2.24-9.639-4.99-14.649zM21.226 57.744a2.603 2.603 0 0 1-3.075-2.034l-2.069-10.173a39.887 39.887 0 0 1 4.875-2.178l2.292 11.325a2.598 2.598 0 0 1-2.023 3.06zm-8.587-16.036c-2.37 1.29-5.29.63-6.66-1.51-.76-1.2-.97-2.62-.57-3.98.407-1.384 1.352-2.316 2.56-3.03 7.89-4.32 12.19-8.93 16.93-16.23.89 3.37 2.34 6.9 4.16 10.22 1.88 3.42 4.07 6.5 6.38 9-8.7.06-14.91 1.2-22.8 5.53zm34.869-4.579c-1.266 1.769-4.576-.911-5.669-1.781-2.98-2.37-5.96-6.13-8.39-10.58-3.16-5.77-4.46-10.99-4.49-14.4-.013-1.434-.078-4.15 1.98-4.15 1.32 0 3.4 1.12 5.74 3.28s4.92 5.36 7.21 9.55c2.44 4.45 4 8.98 4.39 12.77.31 2.93-.16 4.61-.771 5.311zM58.815 13.992a2.501 2.501 0 0 0-3.394-.991l-1.888 1.035a2.5 2.5 0 0 0 1.203 4.693c1.086 0 2.167-.838 3.087-1.343a2.5 2.5 0 0 0 .992-3.394zM50.103 10.797c1.306.384 2.719-.39 3.101-1.698l.604-2.067a2.5 2.5 0 1 0-4.799-1.403l-.604 2.067a2.5 2.5 0 0 0 1.698 3.101zM61.985 21.959l-2.067-.604a2.497 2.497 0 0 0-3.1 1.699 2.5 2.5 0 0 0 1.699 3.101c.875.255 1.845.704 2.768.704 1.083 0 2.08-.708 2.398-1.8a2.496 2.496 0 0 0-1.698-3.1z" fill="#16a9c3" opacity="1" data-original="#000000"></path></g></svg>