<svg id="Capa_1" enable-background="new 0 0 512 512" height="512" viewBox="0 0 512 512" width="512" xmlns="http://www.w3.org/2000/svg"><g><path d="m226 90h60c8.28 0 15-6.72 15-15v-60c0-8.28-6.72-15-15-15h-60c-8.28 0-15 6.72-15 15v60c0 8.28 6.72 15 15 15z"/><circle cx="467" cy="256" r="45"/><circle cx="45" cy="256" r="45"/><path d="m339.551 80.293c31.82 15.151 58.941 38.778 78.382 67.899l-16.144-1.615c-8.238-.819-15.593 5.189-16.418 13.433-.824 8.243 5.19 15.594 13.433 16.419l44.963 4.497c6.589.742 13.249-3.397 15.524-9.622l15.978-42.27c2.929-7.749-.979-16.405-8.728-19.335-7.747-2.929-16.405.979-19.335 8.728l-4.73 12.514c-22.404-33.32-53.534-60.357-90.027-77.734-7.481-3.561-16.43-.386-19.992 7.095-3.561 7.479-.385 16.429 7.094 19.991z"/><path d="m451.698 332.457c-7.479-3.562-16.43-.385-19.991 7.094-15.151 31.82-38.778 58.941-67.899 78.382l1.615-16.144c.819-8.238-5.189-15.593-13.433-16.418-8.243-.824-15.594 5.19-16.419 13.433l-4.497 44.963c-.742 6.589 3.397 13.25 9.622 15.524l42.27 15.978c7.749 2.929 16.405-.979 19.335-8.728 2.929-7.747-.979-16.405-8.728-19.335l-12.514-4.73c33.32-22.404 60.357-53.534 77.734-90.027 3.561-7.482.386-16.43-7.095-19.992z"/><path d="m172.449 431.707c-31.82-15.151-58.941-38.778-78.382-67.899l16.144 1.615c8.238.819 15.593-5.189 16.418-13.433.824-8.243-5.19-15.594-13.433-16.419l-44.963-4.497c-6.589-.742-13.249 3.397-15.524 9.622l-15.978 42.27c-2.929 7.749.979 16.405 8.728 19.335 7.747 2.929 16.405-.979 19.335-8.728l4.73-12.514c22.404 33.32 53.534 60.357 90.027 77.734 7.481 3.561 16.43.386 19.992-7.095 3.561-7.479.385-16.429-7.094-19.991z"/><path d="m60.302 179.543c7.479 3.562 16.43.385 19.991-7.094 15.151-31.82 38.778-58.941 67.899-78.382l-1.615 16.144c-.819 8.238 5.189 15.593 13.433 16.418 8.243.824 15.594-5.19 16.419-13.433l4.497-44.963c.742-6.589-3.397-13.25-9.622-15.524l-42.27-15.978c-7.749-2.929-16.405.979-19.335 8.728-2.929 7.747.979 16.405 8.728 19.335l12.514 4.73c-33.32 22.404-60.357 53.534-77.734 90.027-3.561 7.482-.386 16.43 7.095 19.992z"/><path d="m256 236.83c25.4 0 46-20.59 46-46 0-25.4-20.6-45.99-46-45.99s-46 20.59-46 45.99c0 25.41 20.6 46 46 46z"/><path d="m286 422h-60c-8.28 0-15 6.72-15 15v60c0 8.28 6.72 15 15 15h60c8.28 0 15-6.72 15-15v-60c0-8.28-6.72-15-15-15z"/><path d="m345.91 357.16v-5.42c0-49.66-40.26-89.91-89.91-89.91s-89.91 40.25-89.91 89.91v5.42c0 8.29 6.72 15 15 15h74.91 74.91c8.28 0 15-6.71 15-15z"/></g></svg>