<svg id="Capa_1" enable-background="new 0 0 512 512" height="512" viewBox="0 0 512 512" width="512" xmlns="http://www.w3.org/2000/svg"><path d="m211 381.211v130.789l90-40.078v-90.711l141.211-141.211h-372.422z"/><path d="m256 75c-8.276 0-15 6.724-15 15s6.724 15 15 15c24.814 0 45 20.186 45 45 0 19.53-12.578 36.024-30 42.237v17.763h64.314c24.772-22.249 40.686-54.316 40.686-90 0-61.137-45.886-112.542-105-120v47.763c17.422 6.213 30 22.707 30 42.237h-30c0-8.276-6.724-15-15-15z"/><path d="m136 120c0 35.684 15.916 67.751 40.688 90h64.312v-17.763c-17.422-6.213-30-22.707-30-42.237h30c0 8.276 6.724 15 15 15s15-6.724 15-15-6.724-15-15-15c-24.814 0-45-20.186-45-45 0-19.53 12.578-36.024 30-42.237v-47.763c-59.114 7.458-105 58.863-105 120z"/></svg>