<svg xmlns="http://www.w3.org/2000/svg" version="1.1" xmlns:xlink="http://www.w3.org/1999/xlink" width="512" height="512" x="0" y="0" viewBox="0 0 512 512" style="enable-background:new 0 0 512 512" xml:space="preserve" class=""><g><path fill="#ffffff" d="m352.65 206.101 18.324 69.939 64.935-17.899-7.4-70.358zM482.558 190.752l-43.94-120.118-76.479 89.885zM395.959 73.053c17.812-4.146 27.925-20.844 23.527-36.35-4.373-15.424-21.614-23.613-36.211-23.613-13.545 0-25.753 10.778-27.6 27.159-2.704 24.079 20.038 37.516 40.284 32.804zM197.267 81.393l-26.56-74.282-77.263 21.607 30.728 82.238z" opacity="1" data-original="#ffffff" class=""></path><path fill="#ffffff" d="M357.261 166.6c-1.807-11.335-22.808-24.754-31.186-26.85a106.3 106.3 0 0 0 3.425-13.763c7.379 1.972 26.026 3.7 34.037-.368 8.866-4.509 11.9-16 5.466-23.535-7.3-8.563-31.151-9.128-39.517-6.976a64.967 64.967 0 0 0-6.341-18.313 93.146 93.146 0 0 0 18.184-14.634c12.174-12.677 4.915-27.6-6.608-28.988-11.065-1.341-29.773 14.74-34.3 22.461a76.059 76.059 0 0 0-14.981-4.472c2.553-6.714 3.787-28.511-.846-36.8-4.792-8.581-16.385-11.329-23.735-4.543-8.47 7.817-7.9 32.708-5.134 40.658a57.188 57.188 0 0 0-13.966 4.418c-3.858-7.766-18.58-19.785-27.971-22.9-15.2-5.046-28.125 13.039-13.606 28.182a92.892 92.892 0 0 0 18.8 14.994 62.117 62.117 0 0 0-7.641 17.782c-7.828-1.744-24.2-1.042-33.143 3-12.766 5.754-11.48 21.963-.222 27.682 7.616 3.874 24.513 2.4 32.742.674a90.013 90.013 0 0 0 3.833 13.711c-5.011 1.484-9.241 4.239-13.417 7.094-7.894 5.4-17.507 12.963-17.035 22.466a44.2 44.2 0 0 0-25.755-8.588c-13.517 0-25.746 10.744-27.595 27.161-.1.857-.154 1.71-.186 2.558L92.617 87.892l-63.175 81.047 101.126 21.234c.13 21.972 21.81 33.126 40.47 28.782 17.751-4.133 27.94-20.782 23.526-36.35a26.736 26.736 0 0 0-.608-1.853c5.7 2.218 10.972 1.036 16.357-1.811a93.227 93.227 0 0 0 19.039-13.441 186.28 186.28 0 0 0 7.655 10.031 109.588 109.588 0 0 0 2.157 35.2c1.224 5.343 3.426 12.644 8.758 18.386-13.515.58-29.806 4.828-36.085 16.963-14.022 2.79-27.071 6.741-33.632 18.332-10.219 4.31-23.1 13.154-25.08 24.644-1.089 6.3.949 11.664 2.61 15.293.131 19 .6 37.645 3.611 56.306 3.776 23.379 11.153 43.193 22.514 60.414-2.634 40.327-2.331 64.918-2.449 70.558 9.655 1.6 33.442 32.067 126.445-3.328-1.036-24.044-1.943-46.26-3.559-70.277a281.29 281.29 0 0 0 29.025-50.66c12.952-29.323 12.216-54.43-22.878-80.555-1.979-18.811-4.195-38.645-6.936-58.535 8.862-11.78 7.8-35.515 5.064-50.014a215.032 215.032 0 0 0 6.373-10.073l.007.006a93.208 93.208 0 0 0 18.256 12.728c15.546 8.224 27.88-2.878 26.053-14.319z" opacity="1" data-original="#ffffff" class=""></path><path fill="#35dc11" d="m367.907 215.222 49.71-12.004 4.81 45.728-42.608 11.745z" opacity="1" data-original="#7ad001" class=""></path><path fill="#e01212" d="m434.263 94.96-49.661 58.366 78.192 19.632z" opacity="1" data-original="#ff605b" class=""></path><path fill="#00abfe" d="M158.964 171.456c-7.366-.379-14.676 5.757-15.838 16.087-1.762 15.662 13.65 21.954 25.089 19.29C179.226 204.269 185 194.508 182.589 186c-2.624-9.255-13.87-14.043-23.625-14.544zM383.887 25.553c-7.366-.379-14.677 5.757-15.839 16.088C366.286 57.3 381.7 63.594 393.137 60.93c11.012-2.564 16.787-12.324 14.375-20.832-2.625-9.256-13.87-14.043-23.625-14.545z" opacity="1" data-original="#00abfe"></path><path fill="#e01212" d="m88.788 113.051-37.264 47.806 60.003 12.599z" opacity="1" data-original="#ff605b" class=""></path><path fill="#35dc11" d="m109.847 37.056 21.51 57.567 50.168-20.289-18.634-52.113z" opacity="1" data-original="#7ad001" class=""></path><path fill="#ffad92" d="M298.5 311.655c-3.226-31.49-6.451-62.979-10.98-93.345a45.931 45.931 0 0 0-25 .871c-.383 27.677-.483 55.359-.323 85.433a48.521 48.521 0 0 0 27.3 9.6c3.136.104 6.658-.274 9.003-2.559z" opacity="1" data-original="#ffad92" class=""></path><path fill="#ffad92" d="M268.1 245.913c-13.654-8.128-34.632-3.236-41.274 1.484a12.287 12.287 0 0 0-5.333 9.713 105.99 105.99 0 0 0-19.844 4.509c-5.732 1.9-11.991 5.042-14.138 12.643-7.305 2.233-20.835 9.483-22.116 16.914-.55 3.19.874 6.352 2.263 9.276 4.827 10.165 9.662 20.343 15.286 30.09 6.7 11.61 11.769 10.325 22.049 5.074 6.337 11.421 27.968 5.285 31.073-5.276 10.446 6.874 27.574.527 32.036-20.124 1.569-7.264 1.356-14.779 1.135-22.208-.422-14.025-.837-28.051-1.137-42.095z" opacity="1" data-original="#ffad92" class=""></path><path fill="#ffad92" d="M168.14 296.8c.1 20.678.2 41.457 3.494 61.871s9.95 40.62 22.933 58.932c-1.481 21.57-2.442 43.175-2.64 66.059 31.378 14.334 69.521 12.847 101.146-2.9-.93-21.581-1.859-43.163-3.536-66.862 2.15-45.477 4.279-91.362-5.684-132.575a239.708 239.708 0 0 0-96.549 7.862 92.919 92.919 0 0 0-19.164 7.613z" opacity="1" data-original="#ffad92" class=""></path><path fill="#ed6c4d" d="M231.053 325.238c-8.707-20.39-10.379-42.556-12-63.993a2.5 2.5 0 1 1 4.985-.376c1.587 21.03 3.228 42.777 11.609 62.4a2.5 2.5 0 1 1-4.6 1.964zM268.517 319.111c-8.706-20.39-10.379-42.556-12-63.993a2.5 2.5 0 0 1 4.985-.376c1.587 21.03 3.228 42.777 11.61 62.405a2.5 2.5 0 1 1-4.6 1.964zM202.283 333.454a2.5 2.5 0 0 1-2.308-1.539 254.082 254.082 0 0 1-15.341-51.7 2.5 2.5 0 0 1 4.917-.9 249.121 249.121 0 0 0 15.039 50.682 2.5 2.5 0 0 1-2.307 3.463z" opacity="1" data-original="#ed6c4d"></path><path fill="#ed6c4d" d="M204.187 338.832c-10.481 5.294-16.726 4.548-23.413-7.04-5.679-9.842-10.61-20.226-15.379-30.268a2.5 2.5 0 1 1 4.516-2.145c4.727 9.954 9.615 20.246 15.194 29.914 5.731 9.932 9.244 8.963 18.153 4.4l.593-.3a2.5 2.5 0 0 1 3.323 1.014c5.18 9.338 23.976 3.776 26.489-4.769a2.5 2.5 0 0 1 3.772-1.383c9.065 5.964 24.164.2 28.218-18.564 1.514-7.006 1.293-14.428 1.08-21.6a2.5 2.5 0 1 1 5-.149c.222 7.477.452 15.208-1.19 22.81-4.393 20.326-20.708 28.545-33.267 23.082-5.476 9.677-24.54 15.144-33.089 4.998z" opacity="1" data-original="#ed6c4d"></path><path fill="#ffad92" d="M277.863 428.956a268.8 268.8 0 0 0 42.073-66.621c10.608-24.014 11.739-43.185-19.878-66.244-21.244-15.494-36.384-11.01-61.61 5.592-4.642 2.226-13.367 1.905-15.007 8.089-1.807 6.812 6.985 9.845 11.735 13.051 10.082 1.85 20.587 1.348 30.706.717-12.362 8.721-24.991 17.708-33.566 30.172-6.724 9.773-10.658 21.442-8.252 37.908 16.736 20.097 27.715 31.593 53.799 37.336z" opacity="1" data-original="#ffad92" class=""></path><path fill="#ed6c4d" d="M224.062 394.121a2.5 2.5 0 0 1-2.471-2.14c-2.228-15.244.525-27.854 8.665-39.686 7.2-10.471 17.326-18.654 27.183-25.81a103.858 103.858 0 0 1-22.714-1.2 2.5 2.5 0 0 1-.947-.386c-5.091-3.435-15.044-7.132-12.754-15.765 2.059-7.764 12.3-7.835 16.2-9.634 28.486-18.721 43.871-20.332 64.309-5.426a2.5 2.5 0 0 1-2.946 4.04c-18.513-13.5-31.646-12.186-58.763 5.66a2.5 2.5 0 0 1-.294.167c-4.846 2.323-12.493 2.035-13.671 6.474-1.2 4.513 5.2 6.688 10.274 10.043 9.452 1.656 19.394 1.226 29.6.59a2.5 2.5 0 0 1 1.6 4.538c-12.056 8.5-24.523 17.3-32.948 29.546-7.381 10.729-9.872 22.209-7.837 36.13a2.5 2.5 0 0 1-2.476 2.862z" opacity="1" data-original="#ed6c4d"></path><path fill="#ffb020" d="M258.041 180.747c-9.763-10.694-19.232-21.828-26.156-34.545s-11.21-27.223-9.934-41.647 8.654-28.664 21-36.236c12.621-7.742 28.66-7.749 43.059-4.3 5.508 1.32 10.992 3.149 15.636 6.392 7.419 5.182 12.076 13.592 14.508 22.309 4.775 17.12 1.706 35.682-5.194 52.061s-17.42 30.943-28.06 45.019c-7.79-2.129-17.91-1.44-24.859-9.053z" opacity="1" data-original="#ffb020" class=""></path><path fill="#ffffff" d="M281.6 202.439c-3.058-22.087-3.093-48.046-.5-62.347a18.759 18.759 0 0 1-7.714-5.126 31.813 31.813 0 0 1-10.418 9.77 71.379 71.379 0 0 1-1.729 45.23 2.5 2.5 0 1 1-4.674-1.773 66.382 66.382 0 0 0 1.815-41.322c-6.546 2.241-11.249-.088-13.108-4.176a6.55 6.55 0 0 1 4.213-9.252c4.275-1.28 8.971.572 11.756 6.5a26.807 26.807 0 0 0 8.871-9.149c-4.016-6.043-6.666-13.644-1.94-18.534a4.2 4.2 0 0 1 5.982-.512c5.453 4.1 4.7 12.169 1.815 18.575a15.153 15.153 0 0 0 6.2 4.846c.851-3.292 1.878-6.572 4.632-8.586 5.017-3.664 12.186.26 9.748 7.063-1.545 4.313-5.889 6.807-10.483 7.068-2.789 15.1-2.235 41.376.488 61.04a2.5 2.5 0 1 1-4.953.686zm-31.782-61.814c1.169 2.569 4.273 2.434 6.927 1.521-2.794-6.013-8.24-4.411-6.927-1.521zm37.552-5.532c-.041.141-.08.281-.119.422 3.872-.869 5.171-4 4.7-4.943-.128-.267-2.742-1.934-4.581 4.521zM271.5 116.04c-1.67 2.171-.642 5.975 1.057 9.151l.008-.025c.893-2.995 1.112-7.083-1.065-9.126z" opacity="1" data-original="#ffffff" class=""></path><g fill="#ffb020"><path d="M311.538 61.328c-2.68 3.859-.5 6.336 2.431 5.91 3.674-.533 13.892-9.019 18.382-13.7s2.754-7.785.873-8.012c-3.842-.461-17.674 10.023-21.686 15.802zM323.82 152.044c-4.447-1.516-6.231 1.258-5.016 3.961 1.706 3.8 17.99 15.074 22.493 15.425 1.786.139 3.955-1.1 3.672-2.873-.611-3.822-14.491-14.242-21.149-16.513zM229.983 59.347c2.68 3.859.5 6.336-2.431 5.911-3.562-.517-19.246-12.649-21.009-17.391-.715-1.921.037-5.152 3.327-4.062 6.352 2.106 16.965 11.008 20.113 15.542zM208.644 105.1c4.585 1.022 4.663 4.319 2.217 5.994-2.969 2.033-22.724 3.74-27.235 1.447-1.827-.928-3.463-3.814-.305-5.241 6.098-2.755 19.935-3.4 25.323-2.2zM217.7 150.064c4.447-1.517 6.23 1.257 5.015 3.961-1.475 3.283-17.448 15.031-22.493 15.424-2.042.159-4.943-1.451-2.991-4.315 3.769-5.534 15.246-13.289 20.469-15.07zM267.275 45.717c1.2 4.542 4.5 4.491 6.076 1.981 1.916-3.046 2.848-22.853.381-27.271-.874-1.564-3.11-2.68-4.426-1.465-2.843 2.626-3.83 19.953-2.031 26.755zM332.877 107.081c-4.586 1.022-4.663 4.319-2.217 5.994 2.969 2.034 22.724 3.74 27.235 1.447 1.6-.811 2.8-3 1.637-4.365-2.512-2.943-19.788-4.607-26.655-3.076z" fill="#ffb020" opacity="1" data-original="#ffb020" class=""></path></g><path fill="#a369f7" d="M293.729 177.551c-14.79 1.119-29.643 1.419-44.539 1.858-.912 11.735.312 35.828 9.711 42.923 6.719 5.071 24.855 4.9 30.273.845 9.517-7.127 7.242-33.231 4.555-45.626z" opacity="1" data-original="#a369f7"></path></g></svg>